<svg width="664" height="566" viewBox="0 0 664 566" fill="none" xmlns="http://www.w3.org/2000/svg">
<g filter="url(#filter0_dd)">
<rect x="25" y="61" width="232" height="128" rx="24" fill="white"/>
</g>
<path d="M62.952 117.512C59.848 117.512 57.704 115.88 56.712 113.384H65.384L65.448 110.824H56.136C56.104 110.504 56.104 110.184 56.104 109.832C56.104 109.416 56.136 109 56.168 108.584H65.448L65.48 106.024H56.84C57.864 103.656 59.944 102.152 62.952 102.152C65 102.152 66.472 102.792 67.56 103.72L69.64 100.392C67.944 99.048 65.704 98.376 62.952 98.376C57.608 98.376 53.928 101.416 52.648 106.024H50.696V108.584H52.232C52.2 109 52.168 109.416 52.168 109.832C52.168 110.152 52.168 110.504 52.2 110.824H50.664L50.632 113.384H52.584C53.8 118.152 57.48 121.32 62.952 121.32C65.704 121.32 67.944 120.616 69.64 119.272L67.56 115.944C66.472 116.872 65 117.512 62.952 117.512ZM79.2225 117.384C83.0625 115.016 87.3505 110.344 87.3505 105.32C87.3505 101.16 84.4385 98.408 80.3425 98.408C75.3825 98.408 72.6945 102.44 72.6945 106.536L76.4705 106.824C76.5665 104.52 77.4625 102.12 80.2785 102.12C82.4865 102.12 83.5105 103.592 83.5105 105.608C83.5105 110.824 76.5985 115.432 72.6625 117.832V121H88.2785V117.384H79.2225ZM99.6365 105.672C98.6125 105.672 97.3965 105.864 96.1805 106.632L96.9805 102.376H106.229V98.696H93.8125L91.6685 110.44L95.2845 111.336C96.0205 110.184 97.2365 109.256 99.1245 109.256C101.941 109.256 103.157 111.144 103.157 113.224C103.157 115.4 101.845 117.64 99.0285 117.64C96.3725 117.64 94.9965 115.752 94.7725 113.928L90.9965 114.568C91.5405 118.312 94.7725 121.32 99.0605 121.32C103.829 121.32 107.221 117.48 107.221 113.224C107.221 109.16 104.117 105.672 99.6365 105.672ZM118.099 121.32C124.083 121.32 125.587 115.4 125.587 109.896C125.587 104.328 124.019 98.344 117.875 98.344C111.123 98.344 110.355 105.096 110.355 109.864C110.355 114.568 111.187 121.32 118.099 121.32ZM118.003 117.64C114.387 117.64 114.291 113.512 114.291 109.864C114.291 106.088 114.387 102.024 117.875 102.024C121.363 102.024 121.459 106.056 121.459 109.832C121.459 113.416 121.395 117.64 118.003 117.64ZM154.966 104.904C152.918 104.904 151.094 105.64 149.878 108.008C148.918 105.576 146.998 104.904 145.27 104.904C143.702 104.904 142.07 105.448 141.046 107.208V105.224H137.334L137.366 121H141.206V114.984C141.206 111.816 141.11 108.264 144.342 108.264C146.838 108.264 146.998 110.856 146.998 112.104V121H150.838V114.984C150.838 111.816 150.71 108.264 153.942 108.264C156.47 108.264 156.63 110.856 156.63 112.104V121H160.47V110.952C160.47 107.784 158.774 104.904 154.966 104.904ZM164.457 102.248H168.489V98.696H164.457V102.248ZM164.553 121H168.393V105.224H164.553V121ZM176.417 121.32C177.153 121.32 178.017 121.16 178.881 120.84V117.768C178.433 117.896 178.017 117.96 177.665 117.96C176.961 117.96 176.545 117.672 176.545 116.968V98.696H172.705V117.224C172.705 120.04 174.273 121.32 176.417 121.32ZM185.323 121.32C186.059 121.32 186.923 121.16 187.787 120.84V117.768C187.339 117.896 186.923 117.96 186.571 117.96C185.867 117.96 185.451 117.672 185.451 116.968V98.696H181.611V117.224C181.611 120.04 183.179 121.32 185.323 121.32ZM190.582 102.248H194.614V98.696H190.582V102.248ZM190.678 121H194.518V105.224H190.678V121ZM205.486 121.32C210.35 121.32 213.39 117.544 213.39 113.096C213.39 108.616 210.35 104.904 205.486 104.904C200.59 104.904 197.582 108.616 197.582 113.096C197.582 117.544 200.59 121.32 205.486 121.32ZM205.486 117.96C202.574 117.96 201.422 115.656 201.422 113.096C201.422 110.504 202.574 108.264 205.486 108.264C208.398 108.264 209.55 110.504 209.55 113.096C209.55 115.656 208.398 117.96 205.486 117.96ZM225.067 104.904C223.147 104.904 221.419 105.544 220.299 107.048V105.224H216.459V121H220.299V114.696C220.299 111.88 220.299 108.264 223.883 108.264C226.795 108.264 226.795 110.696 226.795 111.784V121H230.635V110.824C230.635 107.08 228.619 104.904 225.067 104.904Z" fill="#101417"/>
<path d="M120.756 148.748C120.672 148.076 120.084 146.624 117.708 146.66H114.648V155.012H115.74V151.724C115.74 151.724 116.604 151.724 116.664 151.724H117.636C118.812 151.712 119.256 151.544 119.76 151.208C119.88 151.124 120.024 150.992 120.108 150.92C120.624 150.416 120.84 149.516 120.756 148.748ZM117.828 150.788L115.848 150.776H115.74V147.584L117.816 147.572C119.256 147.572 119.676 148.424 119.676 149.168C119.676 149.84 119.412 150.788 117.828 150.788ZM125.051 149.912C125.291 149.54 125.303 149.492 125.531 149.12C125.531 149.12 125.063 148.808 124.355 148.832C123.155 148.892 122.747 149.744 122.747 149.744V148.94H121.703V155H122.759L122.747 152.324C122.747 152.324 122.735 151.268 122.771 151.04C122.867 150.404 123.299 149.756 124.199 149.732C124.811 149.708 125.051 149.912 125.051 149.912ZM128.444 148.772C126.392 148.772 125.564 150.104 125.564 152.012C125.564 153.536 126.32 155.108 128.444 155.12C130.676 155.12 131.324 153.416 131.324 151.94C131.324 150.152 130.424 148.772 128.444 148.772ZM128.444 154.28C127.376 154.28 126.668 153.56 126.668 151.82C126.668 150.416 127.448 149.588 128.408 149.588C129.392 149.588 130.22 150.26 130.22 151.808C130.22 153.5 129.5 154.28 128.444 154.28ZM134.97 154.208C134.01 154.208 133.218 153.464 133.206 151.892C133.218 150.656 133.698 149.708 134.886 149.66C136.098 149.612 136.41 150.692 136.41 150.692L137.454 150.44C137.454 150.44 137.094 148.832 134.886 148.832C133.194 148.832 132.138 150.032 132.138 151.868C132.138 154.052 133.386 155.12 134.934 155.12C137.178 155.12 137.562 153.488 137.562 153.488L136.518 153.26C136.518 153.26 136.194 154.196 134.97 154.208ZM140.978 148.808C138.182 148.892 137.942 152.144 138.698 153.728C139.106 154.568 139.898 155.12 141.254 155.12C143.198 155.12 143.714 153.668 143.714 153.668L142.694 153.392C142.694 153.392 142.394 154.268 141.158 154.268C139.358 154.268 139.454 152.24 139.454 152.24L143.774 152.228V152.216C143.798 152.048 143.798 151.808 143.798 151.616C143.798 150.428 143.15 148.748 140.978 148.808ZM142.682 151.472H139.454C139.454 151.472 139.454 149.6 141.062 149.6C142.778 149.6 142.682 151.472 142.682 151.472ZM149.406 152.228C148.65 151.316 146.598 151.64 145.998 151.1C145.602 150.728 145.662 150.008 146.37 149.744C146.838 149.576 147.81 149.54 148.398 149.972C148.722 150.212 148.818 150.656 148.818 150.656L149.766 150.368C149.574 149.744 149.238 149.36 148.698 149.084C148.05 148.736 146.31 148.628 145.47 149.252C144.63 149.864 144.474 150.968 145.278 151.796C146.094 152.624 148.158 152.24 148.638 152.912C148.914 153.308 148.77 153.764 148.446 153.992C148.17 154.208 147.498 154.28 147.054 154.232C145.89 154.076 145.782 153.332 145.782 153.332L144.738 153.56C144.738 153.56 144.882 154.076 145.362 154.484C146.55 155.528 149.634 155.408 149.814 153.536C149.874 153.008 149.682 152.552 149.406 152.228ZM155.043 152.228C154.287 151.316 152.235 151.64 151.635 151.1C151.239 150.728 151.299 150.008 152.007 149.744C152.475 149.576 153.447 149.54 154.035 149.972C154.359 150.212 154.455 150.656 154.455 150.656L155.403 150.368C155.211 149.744 154.875 149.36 154.335 149.084C153.687 148.736 151.947 148.628 151.107 149.252C150.267 149.864 150.111 150.968 150.915 151.796C151.731 152.624 153.795 152.24 154.275 152.912C154.551 153.308 154.407 153.764 154.083 153.992C153.807 154.208 153.135 154.28 152.691 154.232C151.527 154.076 151.419 153.332 151.419 153.332L150.375 153.56C150.375 153.56 150.519 154.076 150.999 154.484C152.187 155.528 155.271 155.408 155.451 153.536C155.511 153.008 155.319 152.552 155.043 152.228ZM159.037 148.808C156.241 148.892 156.001 152.144 156.757 153.728C157.165 154.568 157.957 155.12 159.313 155.12C161.257 155.12 161.773 153.668 161.773 153.668L160.753 153.392C160.753 153.392 160.453 154.268 159.217 154.268C157.417 154.268 157.513 152.24 157.513 152.24L161.833 152.228V152.216C161.857 152.048 161.857 151.808 161.857 151.616C161.857 150.428 161.209 148.748 159.037 148.808ZM160.741 151.472H157.513C157.513 151.472 157.513 149.6 159.121 149.6C160.837 149.6 160.741 151.472 160.741 151.472ZM167.008 146.648C167.008 147.02 167.008 149.792 167.008 149.792C167.008 149.792 166.54 148.82 165.232 148.82C164.38 148.82 162.736 149.012 162.736 151.928C162.736 154.7 164.332 155.108 165.184 155.108C166.492 155.108 167.008 154.208 167.008 154.208V155.012H168.028V146.648H167.008ZM165.412 154.244C164.392 154.244 163.732 153.488 163.732 151.856C163.732 150.356 164.356 149.564 165.412 149.612C166.06 149.636 166.96 150.164 166.96 151.952C166.96 153.8 166.012 154.244 165.412 154.244Z" fill="#101417" fill-opacity="0.68"/>
<g filter="url(#filter1_dd)">
<rect x="407" y="393" width="232" height="128" rx="24" fill="white"/>
</g>
<path d="M481.376 453.32C485.696 453.32 489.632 451.016 489.632 446.408C489.632 443.976 488.544 442.024 486.4 440.872C487.712 439.944 488.544 438.568 488.544 436.648C488.544 432.712 485.088 430.376 481.376 430.376C477.664 430.376 474.208 432.712 474.208 436.648C474.208 438.568 475.04 439.944 476.352 440.872C474.208 442.024 473.12 443.976 473.12 446.408C473.12 451.048 477.088 453.32 481.376 453.32ZM481.376 439.784C479.392 439.784 478.048 438.696 478.048 436.904C478.048 435.144 479.424 434.056 481.376 434.056C483.328 434.056 484.704 435.144 484.704 436.904C484.704 438.696 483.36 439.784 481.376 439.784ZM481.376 449.672C478.88 449.672 476.96 448.456 476.96 446.056C476.96 443.72 478.784 442.408 481.376 442.408C483.968 442.408 485.792 443.72 485.792 446.056C485.792 448.456 483.872 449.672 481.376 449.672ZM501.731 459.528H505.891L514.851 437.224H510.627L506.595 448.168L502.595 437.224H498.371L504.547 452.584L501.731 459.528ZM529.618 444.904C529.618 440.52 527.25 436.904 522.354 436.904C517.106 436.904 514.866 441.064 514.866 445.192C514.866 449.416 517.17 453.32 522.61 453.32C525.266 453.32 527.346 452.392 529.074 450.472L526.418 448.136C525.33 449.384 524.05 449.832 522.642 449.832C520.146 449.832 518.866 448.456 518.706 446.376H529.522C529.586 445.864 529.618 445.384 529.618 444.904ZM518.674 443.336C518.898 441.768 519.986 440.104 522.322 440.104C524.338 440.104 525.874 441.32 525.938 443.336H518.674ZM538.883 436.904C536.003 436.904 533.667 438.024 531.779 440.296L534.563 442.632C535.715 441.096 537.219 440.264 538.819 440.264C540.643 440.264 541.795 441.32 541.795 443.048V443.496H537.859C536.067 443.496 534.723 443.72 533.667 444.2C532.131 444.904 531.299 446.312 531.299 448.168C531.299 451.176 533.667 453.32 536.995 453.32C539.075 453.32 540.867 452.424 541.795 450.952L542.115 453H545.635V443.048C545.635 439.24 543.043 436.904 538.883 436.904ZM537.603 450.056C536.067 450.056 535.139 449.352 535.139 448.232C535.139 447.656 535.363 447.208 535.779 446.92C536.291 446.536 537.059 446.376 538.371 446.376H541.795C541.795 448.424 539.907 450.056 537.603 450.056ZM557.774 436.904C555.982 436.904 554.222 437.96 553.55 439.912V437.224H549.678V453H553.518V445.064C553.518 442.088 554.67 440.648 557.006 440.648C557.774 440.648 558.382 440.84 558.926 441.192L560.782 437.8C559.758 437.16 558.83 436.904 557.774 436.904ZM567.169 453.32C570.145 453.32 573.313 451.72 573.313 448.04C573.313 442.28 565.057 443.688 565.057 441.288C565.057 440.552 565.825 439.944 567.073 439.944C568.801 439.944 569.665 440.968 570.209 441.96L573.185 440.328C572.001 438.184 569.921 436.904 567.201 436.904C564.161 436.904 561.409 438.472 561.409 441.512C561.409 447.368 569.537 445.608 569.537 448.264C569.537 449.096 568.769 450.12 566.977 450.12C564.865 450.12 564.033 448.68 563.617 447.528L560.545 448.904C561.313 451.304 563.841 453.32 567.169 453.32Z" fill="#101417"/>
<path d="M456.032 478.648L454.244 485.032L452.264 478.66L452.252 478.648C452.132 478.648 451.976 478.648 451.82 478.648C451.628 478.648 451.424 478.648 451.268 478.648V478.66L449.3 485.02L447.488 478.648C447.176 478.648 446.684 478.648 446.396 478.648C446.396 478.648 448.868 486.964 448.856 487H449.708L451.76 480.256L453.812 487H454.652L457.124 478.648C456.836 478.648 456.344 478.648 456.032 478.648ZM460.151 480.772C458.099 480.772 457.271 482.104 457.271 484.012C457.271 485.536 458.027 487.108 460.151 487.12C462.383 487.12 463.031 485.416 463.031 483.94C463.031 482.152 462.131 480.772 460.151 480.772ZM460.151 486.28C459.083 486.28 458.375 485.56 458.375 483.82C458.375 482.416 459.155 481.588 460.115 481.588C461.099 481.588 461.927 482.26 461.927 483.808C461.927 485.5 461.207 486.28 460.151 486.28ZM467.434 481.912C467.674 481.54 467.686 481.492 467.914 481.12C467.914 481.12 467.446 480.808 466.738 480.832C465.538 480.892 465.13 481.744 465.13 481.744V480.94H464.086V487H465.142L465.13 484.324C465.13 484.324 465.118 483.268 465.154 483.04C465.25 482.404 465.682 481.756 466.582 481.732C467.194 481.708 467.434 481.912 467.434 481.912ZM474.147 487L470.895 483.676L473.919 480.916H472.587L469.899 483.4L469.923 478.624H468.855V487.012L469.923 487L469.899 483.94L472.803 487H474.147ZM475.294 487.012H476.338L476.362 480.952H475.294V487.012ZM476.362 479.692V478.648H475.294V479.692H476.362ZM482.99 482.68C482.786 481.3 481.79 480.832 480.878 480.832C479.33 480.832 478.922 481.816 478.922 481.816V480.94H477.902V487.012H478.97V483.532C478.994 482.5 479.414 481.816 480.41 481.708C481.766 481.552 481.958 482.752 481.958 483.532C481.958 483.532 481.97 483.844 481.97 484.408V484.612C481.97 484.66 481.97 484.816 481.97 484.816V487.012L483.074 487V484.156C483.074 484.156 483.05 483.088 482.99 482.68ZM488.427 480.88C488.427 481.252 488.427 481.78 488.427 481.78C488.427 481.78 488.235 481.444 487.935 481.18C487.671 480.952 487.263 480.772 486.639 480.772C485.775 480.772 484.119 480.964 484.119 483.904C484.119 486.688 485.739 487.108 486.591 487.108C487.347 487.108 487.791 486.796 488.079 486.532C488.283 486.352 488.427 486.004 488.427 486.004V486.592C488.439 487.3 488.259 488.404 486.807 488.404C485.655 488.404 485.319 487.828 485.319 487.828L484.467 488.44C484.467 488.44 485.031 489.316 486.807 489.316C488.487 489.316 489.423 488.284 489.435 487H489.447V480.88H488.427ZM486.807 486.232C485.787 486.232 485.127 485.476 485.127 483.832C485.127 482.308 485.751 481.528 486.807 481.564C487.467 481.588 488.379 482.128 488.379 483.928C488.379 485.788 487.419 486.232 486.807 486.232ZM500.729 480.952L499.661 484.408L499.421 485.344L499.205 484.384L497.993 480.952H497.189L495.965 484.516L495.737 485.332L495.521 484.492L494.417 480.952H493.385L495.329 487H496.037L497.585 482.464L499.109 487H499.769L501.773 480.952H500.729ZM502.927 487.012H503.971L503.995 480.952H502.927V487.012ZM503.995 479.692V478.648H502.927V479.692H503.995ZM506.911 484.42V482.596L506.875 481.708L507.643 481.744H508.351V480.916H507.643L506.887 480.94L506.911 480.196L506.923 478.636L505.879 479.056L505.867 480.268L505.891 480.94L504.955 480.916V481.744L505.891 481.708L505.867 482.608V484.912C505.867 484.936 505.867 484.948 505.867 484.96C505.867 486.484 506.059 487.468 508.555 486.988L508.303 486.064C508.303 486.064 507.991 486.208 507.583 486.208C506.791 486.208 506.911 485.728 506.911 484.42ZM514.701 482.68C514.497 481.288 513.501 480.832 512.589 480.832C511.041 480.832 510.633 481.816 510.633 481.816V478.66H509.613V487L510.681 487.012V483.532C510.705 482.5 511.125 481.816 512.121 481.696C513.477 481.552 513.669 482.752 513.669 483.52C513.669 483.52 513.681 483.832 513.681 484.408V484.612C513.681 484.66 513.681 484.816 513.681 484.816V487H514.785V484.156C514.785 484.156 514.761 483.088 514.701 482.68ZM522.634 486.196C521.266 486.196 519.982 485.26 519.982 482.704C519.982 480.58 521.158 479.416 522.55 479.38C524.47 479.332 524.83 480.796 524.83 480.796L525.862 480.628C525.862 480.628 525.454 478.504 522.622 478.504C520.45 478.504 518.842 479.956 518.83 482.692C518.83 485.572 520.366 487.12 522.658 487.12C525.514 487.12 525.934 485.104 525.934 485.104L524.926 484.828C524.926 484.828 524.686 486.196 522.634 486.196ZM530.445 481.912C530.685 481.54 530.697 481.492 530.925 481.12C530.925 481.12 530.457 480.808 529.749 480.832C528.549 480.892 528.141 481.744 528.141 481.744V480.94H527.097V487H528.153L528.141 484.324C528.141 484.324 528.129 483.268 528.165 483.04C528.261 482.404 528.693 481.756 529.593 481.732C530.205 481.708 530.445 481.912 530.445 481.912ZM537.411 480.952H536.307L534.867 484.852L534.579 485.8L534.255 484.852L532.647 480.952H531.483L534.027 486.928C533.763 487.888 533.259 488.152 532.851 488.248C532.503 488.32 532.311 488.248 532.311 488.248L532.131 489.244C532.131 489.244 533.943 489.556 534.711 487.864L537.411 480.952ZM541.203 480.868C540.495 480.868 540.027 481.12 539.739 481.36C539.475 481.564 539.355 481.96 539.355 481.96V480.976H538.347V489.028H539.355C539.355 488.656 539.355 486.028 539.355 486.028C539.355 486.028 539.487 486.412 539.763 486.64C540.051 486.88 540.507 487.144 541.143 487.168C542.007 487.204 543.663 486.988 543.663 484.048C543.663 481.288 542.055 480.868 541.203 480.868ZM540.975 486.34C540.315 486.316 539.415 485.776 539.415 484C539.415 482.128 540.363 481.696 540.975 481.696C541.995 481.696 542.655 482.452 542.655 484.084C542.655 485.596 542.031 486.388 540.975 486.34ZM546.157 484.42V482.596L546.121 481.708L546.889 481.744H547.597V480.916H546.889L546.133 480.94L546.157 480.196L546.169 478.636L545.125 479.056L545.113 480.268L545.137 480.94L544.201 480.916V481.744L545.137 481.708L545.113 482.608V484.912C545.113 484.936 545.113 484.948 545.113 484.96C545.113 486.484 545.305 487.468 547.801 486.988L547.549 486.064C547.549 486.064 547.237 486.208 546.829 486.208C546.037 486.208 546.157 485.728 546.157 484.42ZM551.135 480.772C549.083 480.772 548.255 482.104 548.255 484.012C548.255 485.536 549.011 487.108 551.135 487.12C553.367 487.12 554.015 485.416 554.015 483.94C554.015 482.152 553.115 480.772 551.135 480.772ZM551.135 486.28C550.067 486.28 549.359 485.56 549.359 483.82C549.359 482.416 550.139 481.588 551.099 481.588C552.083 481.588 552.911 482.26 552.911 483.808C552.911 485.5 552.191 486.28 551.135 486.28ZM557.662 486.208C556.702 486.208 555.91 485.464 555.898 483.892C555.91 482.656 556.39 481.708 557.578 481.66C558.79 481.612 559.102 482.692 559.102 482.692L560.146 482.44C560.146 482.44 559.786 480.832 557.578 480.832C555.886 480.832 554.83 482.032 554.83 483.868C554.83 486.052 556.078 487.12 557.626 487.12C559.87 487.12 560.254 485.488 560.254 485.488L559.21 485.26C559.21 485.26 558.886 486.196 557.662 486.208ZM561.27 485.284C561.462 486.664 562.47 487.12 563.382 487.12C564.918 487.12 565.338 486.136 565.338 486.136V487.024H566.358V480.952H565.29V484.432C565.266 485.464 564.846 486.148 563.85 486.256C562.494 486.412 562.302 485.212 562.302 484.432C562.302 484.432 562.29 484.12 562.29 483.544V483.352C562.29 483.292 562.29 483.148 562.29 483.148V480.952H561.186V483.796C561.186 483.796 561.21 484.876 561.27 485.284ZM571.039 481.912C571.279 481.54 571.291 481.492 571.519 481.12C571.519 481.12 571.051 480.808 570.343 480.832C569.143 480.892 568.735 481.744 568.735 481.744V480.94H567.691V487H568.747L568.735 484.324C568.735 484.324 568.723 483.268 568.759 483.04C568.855 482.404 569.287 481.756 570.187 481.732C570.799 481.708 571.039 481.912 571.039 481.912ZM575.809 481.912C576.049 481.54 576.061 481.492 576.289 481.12C576.289 481.12 575.821 480.808 575.113 480.832C573.913 480.892 573.505 481.744 573.505 481.744V480.94H572.461V487H573.517L573.505 484.324C573.505 484.324 573.493 483.268 573.529 483.04C573.625 482.404 574.057 481.756 574.957 481.732C575.569 481.708 575.809 481.912 575.809 481.912ZM579.103 480.808C576.307 480.892 576.067 484.144 576.823 485.728C577.231 486.568 578.023 487.12 579.379 487.12C581.323 487.12 581.839 485.668 581.839 485.668L580.819 485.392C580.819 485.392 580.519 486.268 579.283 486.268C577.483 486.268 577.579 484.24 577.579 484.24L581.899 484.228V484.216C581.923 484.048 581.923 483.808 581.923 483.616C581.923 482.428 581.275 480.748 579.103 480.808ZM580.807 483.472H577.579C577.579 483.472 577.579 481.6 579.187 481.6C580.903 481.6 580.807 483.472 580.807 483.472ZM588.119 482.68C587.915 481.3 586.919 480.832 586.007 480.832C584.459 480.832 584.051 481.816 584.051 481.816V480.94H583.031V487.012H584.099V483.532C584.123 482.5 584.543 481.816 585.539 481.708C586.895 481.552 587.087 482.752 587.087 483.532C587.087 483.532 587.099 483.844 587.099 484.408V484.612C587.099 484.66 587.099 484.816 587.099 484.816V487.012L588.203 487V484.156C588.203 484.156 588.179 483.088 588.119 482.68ZM592.068 486.208C591.108 486.208 590.316 485.464 590.304 483.892C590.316 482.656 590.796 481.708 591.984 481.66C593.196 481.612 593.508 482.692 593.508 482.692L594.552 482.44C594.552 482.44 594.192 480.832 591.984 480.832C590.292 480.832 589.236 482.032 589.236 483.868C589.236 486.052 590.484 487.12 592.032 487.12C594.276 487.12 594.66 485.488 594.66 485.488L593.616 485.26C593.616 485.26 593.292 486.196 592.068 486.208ZM600.985 480.952H599.881L598.441 484.852L598.153 485.8L597.829 484.852L596.221 480.952H595.057L597.601 486.928C597.337 487.888 596.833 488.152 596.425 488.248C596.077 488.32 595.885 488.248 595.885 488.248L595.705 489.244C595.705 489.244 597.517 489.556 598.285 487.864L600.985 480.952Z" fill="#101417" fill-opacity="0.68"/>
<g filter="url(#filter2_d)">
<rect x="342" y="205" width="105" height="128" rx="24" fill="white"/>
</g>
<path d="M364.644 261.384C368.484 259.016 372.772 254.344 372.772 249.32C372.772 245.16 369.86 242.408 365.764 242.408C360.804 242.408 358.116 246.44 358.116 250.536L361.892 250.824C361.988 248.52 362.884 246.12 365.7 246.12C367.908 246.12 368.932 247.592 368.932 249.608C368.932 254.824 362.02 259.432 358.084 261.832V265H373.7V261.384H364.644ZM383.394 261.384C387.234 259.016 391.522 254.344 391.522 249.32C391.522 245.16 388.61 242.408 384.514 242.408C379.554 242.408 376.866 246.44 376.866 250.536L380.642 250.824C380.738 248.52 381.634 246.12 384.45 246.12C386.658 246.12 387.682 247.592 387.682 249.608C387.682 254.824 380.77 259.432 376.834 261.832V265H392.45V261.384H383.394ZM406.336 250.28C405.28 249.864 404.16 249.672 403.008 249.736L407.584 242.696H403.168L396.512 253.416C395.712 254.696 395.264 256.104 395.264 257.576C395.264 261.832 398.944 265.32 403.424 265.32C407.872 265.32 411.52 261.832 411.52 257.544C411.52 254.184 409.312 251.4 406.336 250.28ZM403.424 261.64C401.056 261.64 399.2 259.784 399.2 257.544C399.2 255.304 401.056 253.448 403.424 253.448C405.76 253.448 407.616 255.304 407.616 257.544C407.616 259.784 405.76 261.64 403.424 261.64ZM420.542 263.304H423.742V256.712H430.302V253.512H423.742V246.952H420.542V253.512H413.95V256.712H420.542V263.304Z" fill="#101417"/>
<path d="M374.292 290.636H373.584L370.644 297.032L367.596 290.636H366.924L366.42 299H367.476L367.728 293.252L370.548 299H370.704L373.536 293.252L373.812 299H374.916L374.292 290.636ZM378.447 292.808C375.651 292.892 375.411 296.144 376.167 297.728C376.575 298.568 377.367 299.12 378.723 299.12C380.667 299.12 381.183 297.668 381.183 297.668L380.163 297.392C380.163 297.392 379.863 298.268 378.627 298.268C376.827 298.268 376.923 296.24 376.923 296.24L381.243 296.228V296.216C381.267 296.048 381.267 295.808 381.267 295.616C381.267 294.428 380.619 292.748 378.447 292.808ZM380.151 295.472H376.923C376.923 295.472 376.923 293.6 378.531 293.6C380.247 293.6 380.151 295.472 380.151 295.472ZM385.723 293.912C385.963 293.54 385.975 293.492 386.203 293.12C386.203 293.12 385.735 292.808 385.027 292.832C383.827 292.892 383.419 293.744 383.419 293.744V292.94H382.375V299H383.431L383.419 296.324C383.419 296.324 383.407 295.268 383.443 295.04C383.539 294.404 383.971 293.756 384.871 293.732C385.483 293.708 385.723 293.912 385.723 293.912ZM389.396 298.208C388.436 298.208 387.644 297.464 387.632 295.892C387.644 294.656 388.124 293.708 389.312 293.66C390.524 293.612 390.836 294.692 390.836 294.692L391.88 294.44C391.88 294.44 391.52 292.832 389.312 292.832C387.62 292.832 386.564 294.032 386.564 295.868C386.564 298.052 387.812 299.12 389.36 299.12C391.604 299.12 391.988 297.488 391.988 297.488L390.944 297.26C390.944 297.26 390.62 298.196 389.396 298.208ZM398.068 294.68C397.864 293.288 396.868 292.832 395.956 292.832C394.408 292.832 394 293.816 394 293.816V290.66H392.98V299L394.048 299.012V295.532C394.072 294.5 394.492 293.816 395.488 293.696C396.844 293.552 397.036 294.752 397.036 295.52C397.036 295.52 397.048 295.832 397.048 296.408V296.612C397.048 296.66 397.048 296.816 397.048 296.816V299H398.152V296.156C398.152 296.156 398.128 295.088 398.068 294.68ZM404.477 297.896L404.453 295.436C404.429 294.74 404.489 293.864 403.649 293.228C402.965 292.7 401.501 292.808 401.021 292.916C400.649 293 400.325 293.156 400.037 293.384C399.713 293.624 399.521 293.972 399.413 294.344L400.385 294.584C400.685 293.42 402.665 293.516 403.169 294.044C403.589 294.464 403.457 294.932 403.457 294.932C403.397 295.232 402.845 295.364 401.981 295.46C401.597 295.508 401.201 295.556 400.877 295.592C398.537 295.916 398.525 299.12 401.429 299.12C401.921 299.12 402.353 299.036 402.677 298.892C402.833 298.82 402.977 298.76 403.085 298.664C403.373 298.412 403.529 298.112 403.529 298.112L403.613 299L404.765 298.988L404.477 297.896ZM403.469 296.624C403.469 297.116 403.277 297.452 403.013 297.716C402.641 298.1 402.077 298.28 401.549 298.28C401.177 298.28 400.829 298.22 400.565 298.016C400.133 297.692 400.073 297.032 400.433 296.72C401.033 296.168 402.689 296.396 403.469 295.94V296.624ZM410.912 294.68C410.708 293.3 409.712 292.832 408.8 292.832C407.252 292.832 406.844 293.816 406.844 293.816V292.94H405.824V299.012H406.892V295.532C406.916 294.5 407.336 293.816 408.332 293.708C409.688 293.552 409.88 294.752 409.88 295.532C409.88 295.532 409.892 295.844 409.892 296.408V296.612C409.892 296.66 409.892 296.816 409.892 296.816V299.012L410.996 299V296.156C410.996 296.156 410.972 295.088 410.912 294.68ZM413.716 296.42V294.596L413.68 293.708L414.448 293.744H415.156V292.916H414.448L413.692 292.94L413.716 292.196L413.728 290.636L412.684 291.056L412.672 292.268L412.696 292.94L411.76 292.916V293.744L412.696 293.708L412.672 294.608V296.912C412.672 296.936 412.672 296.948 412.672 296.96C412.672 298.484 412.864 299.468 415.36 298.988L415.108 298.064C415.108 298.064 414.796 298.208 414.388 298.208C413.596 298.208 413.716 297.728 413.716 296.42ZM420.918 296.228C420.162 295.316 418.11 295.64 417.51 295.1C417.114 294.728 417.174 294.008 417.882 293.744C418.35 293.576 419.322 293.54 419.91 293.972C420.234 294.212 420.33 294.656 420.33 294.656L421.278 294.368C421.086 293.744 420.75 293.36 420.21 293.084C419.562 292.736 417.822 292.628 416.982 293.252C416.142 293.864 415.986 294.968 416.79 295.796C417.606 296.624 419.67 296.24 420.15 296.912C420.426 297.308 420.282 297.764 419.958 297.992C419.682 298.208 419.01 298.28 418.566 298.232C417.402 298.076 417.294 297.332 417.294 297.332L416.25 297.56C416.25 297.56 416.394 298.076 416.874 298.484C418.062 299.528 421.146 299.408 421.326 297.536C421.386 297.008 421.194 296.552 420.918 296.228Z" fill="#101417" fill-opacity="0.68"/>
<g filter="url(#filter3_d)">
<rect x="102" y="293" width="169" height="128" rx="24" fill="white"/>
</g>
<path d="M176.928 330.696V332.04C176.928 333.544 176.224 334.184 174.688 334.184H171.712V337.384H176.928V353H180.768V330.696H176.928ZM196.126 353.32C200.446 353.32 204.382 351.016 204.382 346.408C204.382 343.976 203.294 342.024 201.15 340.872C202.462 339.944 203.294 338.568 203.294 336.648C203.294 332.712 199.838 330.376 196.126 330.376C192.414 330.376 188.958 332.712 188.958 336.648C188.958 338.568 189.79 339.944 191.102 340.872C188.958 342.024 187.87 343.976 187.87 346.408C187.87 351.048 191.838 353.32 196.126 353.32ZM196.126 339.784C194.142 339.784 192.798 338.696 192.798 336.904C192.798 335.144 194.174 334.056 196.126 334.056C198.078 334.056 199.454 335.144 199.454 336.904C199.454 338.696 198.11 339.784 196.126 339.784ZM196.126 349.672C193.63 349.672 191.71 348.456 191.71 346.056C191.71 343.72 193.534 342.408 196.126 342.408C198.718 342.408 200.542 343.72 200.542 346.056C200.542 348.456 198.622 349.672 196.126 349.672Z" fill="#101417"/>
<path d="M130.644 382.596C129.492 382.2 128.148 381.9 127.776 381.42C127.248 380.724 127.788 379.8 128.508 379.596C129.216 379.38 130.176 379.38 130.8 379.848C131.04 380.016 131.256 380.28 131.388 380.688L132.336 380.292C132.336 380.292 132.06 379.296 130.812 378.768C130.272 378.54 128.364 378.192 127.176 379.248C126.18 380.124 126.372 381.66 127.176 382.344C127.68 382.776 128.184 382.896 128.988 383.16C129.588 383.352 130.68 383.568 131.112 384.132C131.796 385.02 131.04 386.484 128.904 386.088C127.764 385.884 127.56 385.02 127.536 384.888C127.188 385.032 126.828 385.176 126.504 385.296C126.636 385.62 126.864 385.992 127.188 386.304C128.616 387.768 132.576 387.36 132.468 384.804C132.42 383.604 131.58 382.92 130.644 382.596ZM133.668 385.284C133.86 386.664 134.868 387.12 135.78 387.12C137.316 387.12 137.736 386.136 137.736 386.136V387.024H138.756V380.952H137.688V384.432C137.664 385.464 137.244 386.148 136.248 386.256C134.892 386.412 134.7 385.212 134.7 384.432C134.7 384.432 134.688 384.12 134.688 383.544V383.352C134.688 383.292 134.688 383.148 134.688 383.148V380.952H133.584V383.796C133.584 383.796 133.608 384.876 133.668 385.284ZM142.945 380.868C142.237 380.868 141.769 381.12 141.481 381.36C141.217 381.564 141.097 381.96 141.097 381.96V380.976H140.089V389.028H141.097C141.097 388.656 141.097 386.028 141.097 386.028C141.097 386.028 141.229 386.412 141.505 386.64C141.793 386.88 142.249 387.144 142.885 387.168C143.749 387.204 145.405 386.988 145.405 384.048C145.405 381.288 143.797 380.868 142.945 380.868ZM142.717 386.34C142.057 386.316 141.157 385.776 141.157 384C141.157 382.128 142.105 381.696 142.717 381.696C143.737 381.696 144.397 382.452 144.397 384.084C144.397 385.596 143.773 386.388 142.717 386.34ZM149.379 380.868C148.671 380.868 148.203 381.12 147.915 381.36C147.651 381.564 147.531 381.96 147.531 381.96V380.976H146.523V389.028H147.531C147.531 388.656 147.531 386.028 147.531 386.028C147.531 386.028 147.663 386.412 147.939 386.64C148.227 386.88 148.683 387.144 149.319 387.168C150.183 387.204 151.839 386.988 151.839 384.048C151.839 381.288 150.231 380.868 149.379 380.868ZM149.151 386.34C148.491 386.316 147.591 385.776 147.591 384C147.591 382.128 148.539 381.696 149.151 381.696C150.171 381.696 150.831 382.452 150.831 384.084C150.831 385.596 150.207 386.388 149.151 386.34ZM155.573 380.772C153.521 380.772 152.693 382.104 152.693 384.012C152.693 385.536 153.449 387.108 155.573 387.12C157.805 387.12 158.453 385.416 158.453 383.94C158.453 382.152 157.553 380.772 155.573 380.772ZM155.573 386.28C154.505 386.28 153.797 385.56 153.797 383.82C153.797 382.416 154.577 381.588 155.537 381.588C156.521 381.588 157.349 382.26 157.349 383.808C157.349 385.5 156.629 386.28 155.573 386.28ZM162.855 381.912C163.095 381.54 163.107 381.492 163.335 381.12C163.335 381.12 162.867 380.808 162.159 380.832C160.959 380.892 160.551 381.744 160.551 381.744V380.94H159.507V387H160.563L160.551 384.324C160.551 384.324 160.539 383.268 160.575 383.04C160.671 382.404 161.103 381.756 162.003 381.732C162.615 381.708 162.855 381.912 162.855 381.912ZM165.993 384.42V382.596L165.957 381.708L166.725 381.744H167.433V380.916H166.725L165.969 380.94L165.993 380.196L166.005 378.636L164.961 379.056L164.949 380.268L164.973 380.94L164.037 380.916V381.744L164.973 381.708L164.949 382.608V384.912C164.949 384.936 164.949 384.948 164.949 384.96C164.949 386.484 165.141 387.468 167.637 386.988L167.385 386.064C167.385 386.064 167.073 386.208 166.665 386.208C165.873 386.208 165.993 385.728 165.993 384.42ZM170.779 380.808C167.983 380.892 167.743 384.144 168.499 385.728C168.907 386.568 169.699 387.12 171.055 387.12C172.999 387.12 173.515 385.668 173.515 385.668L172.495 385.392C172.495 385.392 172.195 386.268 170.959 386.268C169.159 386.268 169.255 384.24 169.255 384.24L173.575 384.228V384.216C173.599 384.048 173.599 383.808 173.599 383.616C173.599 382.428 172.951 380.748 170.779 380.808ZM172.483 383.472H169.255C169.255 383.472 169.255 381.6 170.863 381.6C172.579 381.6 172.483 383.472 172.483 383.472ZM178.751 378.648C178.751 379.02 178.751 381.792 178.751 381.792C178.751 381.792 178.283 380.82 176.975 380.82C176.123 380.82 174.479 381.012 174.479 383.928C174.479 386.7 176.075 387.108 176.927 387.108C178.235 387.108 178.751 386.208 178.751 386.208V387.012H179.771V378.648H178.751ZM177.155 386.244C176.135 386.244 175.475 385.488 175.475 383.856C175.475 382.356 176.099 381.564 177.155 381.612C177.803 381.636 178.703 382.164 178.703 383.952C178.703 385.8 177.755 386.244 177.155 386.244ZM188.605 382.536C188.605 382.536 189.877 382.272 189.877 380.712C189.877 378.996 188.401 378.612 186.805 378.648H184.093V387H184.873H186.913C187.525 387 188.065 386.988 188.509 386.928C189.853 386.748 190.393 385.752 190.429 384.912C190.525 382.824 188.605 382.536 188.605 382.536ZM185.161 379.464L186.649 379.452C188.461 379.452 188.833 380.16 188.833 380.784C188.833 381.684 188.185 382.2 187.261 382.176C187.093 382.176 186.541 382.2 186.265 382.2C186.217 382.2 185.893 382.2 185.893 382.2H185.161V379.464ZM186.961 386.112C186.901 386.112 186.577 386.112 186.577 386.112H185.161V383.112L187.405 383.1C188.929 383.1 189.349 383.964 189.349 384.6C189.349 385.512 188.905 386.16 186.961 386.112ZM192.637 387V378.648H191.617V387H192.637ZM196.577 380.772C194.525 380.772 193.697 382.104 193.697 384.012C193.697 385.536 194.453 387.108 196.577 387.12C198.809 387.12 199.457 385.416 199.457 383.94C199.457 382.152 198.557 380.772 196.577 380.772ZM196.577 386.28C195.509 386.28 194.801 385.56 194.801 383.82C194.801 382.416 195.581 381.588 196.541 381.588C197.525 381.588 198.353 382.26 198.353 383.808C198.353 385.5 197.633 386.28 196.577 386.28ZM203.103 386.208C202.143 386.208 201.351 385.464 201.339 383.892C201.351 382.656 201.831 381.708 203.019 381.66C204.231 381.612 204.543 382.692 204.543 382.692L205.587 382.44C205.587 382.44 205.227 380.832 203.019 380.832C201.327 380.832 200.271 382.032 200.271 383.868C200.271 386.052 201.519 387.12 203.067 387.12C205.311 387.12 205.695 385.488 205.695 385.488L204.651 385.26C204.651 385.26 204.327 386.196 203.103 386.208ZM211.979 387L208.727 383.676L211.751 380.916H210.419L207.731 383.4L207.755 378.624H206.687V387.012L207.755 387L207.731 383.94L210.635 387H211.979ZM215.068 386.208C214.108 386.208 213.316 385.464 213.304 383.892C213.316 382.656 213.796 381.708 214.984 381.66C216.196 381.612 216.508 382.692 216.508 382.692L217.552 382.44C217.552 382.44 217.192 380.832 214.984 380.832C213.292 380.832 212.236 382.032 212.236 383.868C212.236 386.052 213.484 387.12 215.032 387.12C217.276 387.12 217.66 385.488 217.66 385.488L216.616 385.26C216.616 385.26 216.292 386.196 215.068 386.208ZM223.74 382.68C223.536 381.288 222.54 380.832 221.628 380.832C220.08 380.832 219.672 381.816 219.672 381.816V378.66H218.652V387L219.72 387.012V383.532C219.744 382.5 220.164 381.816 221.16 381.696C222.516 381.552 222.708 382.752 222.708 383.52C222.708 383.52 222.72 383.832 222.72 384.408V384.612C222.72 384.66 222.72 384.816 222.72 384.816V387H223.824V384.156C223.824 384.156 223.8 383.088 223.74 382.68ZM230.149 385.896L230.125 383.436C230.101 382.74 230.161 381.864 229.321 381.228C228.637 380.7 227.173 380.808 226.693 380.916C226.321 381 225.997 381.156 225.709 381.384C225.385 381.624 225.193 381.972 225.085 382.344L226.057 382.584C226.357 381.42 228.337 381.516 228.841 382.044C229.261 382.464 229.129 382.932 229.129 382.932C229.069 383.232 228.517 383.364 227.653 383.46C227.269 383.508 226.873 383.556 226.549 383.592C224.209 383.916 224.197 387.12 227.101 387.12C227.593 387.12 228.025 387.036 228.349 386.892C228.505 386.82 228.649 386.76 228.757 386.664C229.045 386.412 229.201 386.112 229.201 386.112L229.285 387L230.437 386.988L230.149 385.896ZM229.141 384.624C229.141 385.116 228.949 385.452 228.685 385.716C228.313 386.1 227.749 386.28 227.221 386.28C226.849 386.28 226.501 386.22 226.237 386.016C225.805 385.692 225.745 385.032 226.105 384.72C226.705 384.168 228.361 384.396 229.141 383.94V384.624ZM231.712 387.012H232.756L232.78 380.952H231.712V387.012ZM232.78 379.692V378.648H231.712V379.692H232.78ZM239.408 382.68C239.204 381.3 238.208 380.832 237.296 380.832C235.748 380.832 235.34 381.816 235.34 381.816V380.94H234.32V387.012H235.388V383.532C235.412 382.5 235.832 381.816 236.828 381.708C238.184 381.552 238.376 382.752 238.376 383.532C238.376 383.532 238.388 383.844 238.388 384.408V384.612C238.388 384.66 238.388 384.816 238.388 384.816V387.012L239.492 387V384.156C239.492 384.156 239.468 383.088 239.408 382.68ZM245.265 384.228C244.509 383.316 242.457 383.64 241.857 383.1C241.461 382.728 241.521 382.008 242.229 381.744C242.697 381.576 243.669 381.54 244.257 381.972C244.581 382.212 244.677 382.656 244.677 382.656L245.625 382.368C245.433 381.744 245.097 381.36 244.557 381.084C243.909 380.736 242.169 380.628 241.329 381.252C240.489 381.864 240.333 382.968 241.137 383.796C241.953 384.624 244.017 384.24 244.497 384.912C244.773 385.308 244.629 385.764 244.305 385.992C244.029 386.208 243.357 386.28 242.913 386.232C241.749 386.076 241.641 385.332 241.641 385.332L240.597 385.56C240.597 385.56 240.741 386.076 241.221 386.484C242.409 387.528 245.493 387.408 245.673 385.536C245.733 385.008 245.541 384.552 245.265 384.228Z" fill="#101417" fill-opacity="0.68"/>
<g filter="url(#filter4_dd)">
<rect x="471" y="5" width="126" height="128" rx="24" fill="white"/>
</g>
<path d="M515.287 42.696V44.04C515.287 45.544 514.583 46.184 513.047 46.184H510.071V49.384H515.287V65H519.127V42.696H515.287ZM534.933 49.672C533.909 49.672 532.693 49.864 531.477 50.632L532.277 46.376H541.525V42.696H529.109L526.965 54.44L530.581 55.336C531.317 54.184 532.533 53.256 534.421 53.256C537.237 53.256 538.453 55.144 538.453 57.224C538.453 59.4 537.141 61.64 534.325 61.64C531.669 61.64 530.293 59.752 530.069 57.928L526.293 58.568C526.837 62.312 530.069 65.32 534.357 65.32C539.125 65.32 542.517 61.48 542.517 57.224C542.517 53.16 539.413 49.672 534.933 49.672ZM551.667 63.304H554.867V56.712H561.427V53.512H554.867V46.952H551.667V53.512H545.075V56.712H551.667V63.304Z" fill="#101417"/>
<path d="M501.108 91.524V90.648H495.648V99H496.728V98.016V95.1L500.7 95.088V94.152H496.704V91.536L501.108 91.524ZM502.309 99.012H503.353L503.377 92.952H502.309V99.012ZM503.377 91.692V90.648H502.309V91.692H503.377ZM509.97 97.896L509.946 95.436C509.922 94.74 509.982 93.864 509.142 93.228C508.458 92.7 506.994 92.808 506.514 92.916C506.142 93 505.818 93.156 505.53 93.384C505.206 93.624 505.014 93.972 504.906 94.344L505.878 94.584C506.178 93.42 508.158 93.516 508.662 94.044C509.082 94.464 508.95 94.932 508.95 94.932C508.89 95.232 508.338 95.364 507.474 95.46C507.09 95.508 506.694 95.556 506.37 95.592C504.03 95.916 504.018 99.12 506.922 99.12C507.414 99.12 507.846 99.036 508.17 98.892C508.326 98.82 508.47 98.76 508.578 98.664C508.866 98.412 509.022 98.112 509.022 98.112L509.106 99L510.258 98.988L509.97 97.896ZM508.962 96.624C508.962 97.116 508.77 97.452 508.506 97.716C508.134 98.1 507.57 98.28 507.042 98.28C506.67 98.28 506.322 98.22 506.058 98.016C505.626 97.692 505.566 97.032 505.926 96.72C506.526 96.168 508.182 96.396 508.962 95.94V96.624ZM512.716 96.42V94.596L512.68 93.708L513.448 93.744H514.156V92.916H513.448L512.692 92.94L512.716 92.196L512.728 90.636L511.684 91.056L511.672 92.268L511.696 92.94L510.76 92.916V93.744L511.696 93.708L511.672 94.608V96.912C511.672 96.936 511.672 96.948 511.672 96.96C511.672 98.484 511.864 99.468 514.36 98.988L514.108 98.064C514.108 98.064 513.796 98.208 513.388 98.208C512.596 98.208 512.716 97.728 512.716 96.42ZM521.994 98.196C520.626 98.196 519.342 97.26 519.342 94.704C519.342 92.58 520.518 91.416 521.91 91.38C523.83 91.332 524.19 92.796 524.19 92.796L525.222 92.628C525.222 92.628 524.814 90.504 521.982 90.504C519.81 90.504 518.202 91.956 518.19 94.692C518.19 97.572 519.726 99.12 522.018 99.12C524.874 99.12 525.294 97.104 525.294 97.104L524.286 96.828C524.286 96.828 524.046 98.196 521.994 98.196ZM526.481 97.284C526.673 98.664 527.681 99.12 528.593 99.12C530.129 99.12 530.549 98.136 530.549 98.136V99.024H531.569V92.952H530.501V96.432C530.477 97.464 530.057 98.148 529.061 98.256C527.705 98.412 527.513 97.212 527.513 96.432C527.513 96.432 527.501 96.12 527.501 95.544V95.352C527.501 95.292 527.501 95.148 527.501 95.148V92.952H526.397V95.796C526.397 95.796 526.421 96.876 526.481 97.284ZM536.25 93.912C536.49 93.54 536.502 93.492 536.73 93.12C536.73 93.12 536.262 92.808 535.554 92.832C534.354 92.892 533.946 93.744 533.946 93.744V92.94H532.902V99H533.958L533.946 96.324C533.946 96.324 533.934 95.268 533.97 95.04C534.066 94.404 534.498 93.756 535.398 93.732C536.01 93.708 536.25 93.912 536.25 93.912ZM541.019 93.912C541.259 93.54 541.271 93.492 541.499 93.12C541.499 93.12 541.031 92.808 540.323 92.832C539.123 92.892 538.715 93.744 538.715 93.744V92.94H537.671V99H538.727L538.715 96.324C538.715 96.324 538.703 95.268 538.739 95.04C538.835 94.404 539.267 93.756 540.167 93.732C540.779 93.708 541.019 93.912 541.019 93.912ZM542.657 99.012H543.701L543.725 92.952H542.657V99.012ZM543.725 91.692V90.648H542.657V91.692H543.725ZM550.353 94.68C550.149 93.3 549.153 92.832 548.241 92.832C546.693 92.832 546.285 93.816 546.285 93.816V92.94H545.265V99.012H546.333V95.532C546.357 94.5 546.777 93.816 547.773 93.708C549.129 93.552 549.321 94.752 549.321 95.532C549.321 95.532 549.333 95.844 549.333 96.408V96.612C549.333 96.66 549.333 96.816 549.333 96.816V99.012L550.437 99V96.156C550.437 96.156 550.413 95.088 550.353 94.68ZM554.303 98.208C553.343 98.208 552.551 97.464 552.539 95.892C552.551 94.656 553.031 93.708 554.219 93.66C555.431 93.612 555.743 94.692 555.743 94.692L556.787 94.44C556.787 94.44 556.427 92.832 554.219 92.832C552.527 92.832 551.471 94.032 551.471 95.868C551.471 98.052 552.719 99.12 554.267 99.12C556.511 99.12 556.895 97.488 556.895 97.488L555.851 97.26C555.851 97.26 555.527 98.196 554.303 98.208ZM558.102 99.012H559.146L559.17 92.952H558.102V99.012ZM559.17 91.692V90.648H558.102V91.692H559.17ZM563.135 92.808C560.339 92.892 560.099 96.144 560.854 97.728C561.263 98.568 562.055 99.12 563.411 99.12C565.355 99.12 565.871 97.668 565.871 97.668L564.851 97.392C564.851 97.392 564.551 98.268 563.315 98.268C561.515 98.268 561.611 96.24 561.611 96.24L565.931 96.228V96.216C565.955 96.048 565.955 95.808 565.955 95.616C565.955 94.428 565.307 92.748 563.135 92.808ZM564.839 95.472H561.611C561.611 95.472 561.611 93.6 563.219 93.6C564.935 93.6 564.839 95.472 564.839 95.472ZM571.562 96.228C570.806 95.316 568.754 95.64 568.154 95.1C567.758 94.728 567.818 94.008 568.526 93.744C568.994 93.576 569.966 93.54 570.554 93.972C570.878 94.212 570.974 94.656 570.974 94.656L571.922 94.368C571.73 93.744 571.394 93.36 570.854 93.084C570.206 92.736 568.466 92.628 567.626 93.252C566.786 93.864 566.63 94.968 567.434 95.796C568.25 96.624 570.314 96.24 570.794 96.912C571.07 97.308 570.926 97.764 570.602 97.992C570.326 98.208 569.654 98.28 569.21 98.232C568.046 98.076 567.938 97.332 567.938 97.332L566.894 97.56C566.894 97.56 567.038 98.076 567.518 98.484C568.706 99.528 571.79 99.408 571.97 97.536C572.03 97.008 571.838 96.552 571.562 96.228Z" fill="#101417" fill-opacity="0.68"/>
<defs>
<filter id="filter0_dd" x="0" y="56" width="282" height="178" filterUnits="userSpaceOnUse" color-interpolation-filters="sRGB">
<feFlood flood-opacity="0" result="BackgroundImageFix"/>
<feColorMatrix in="SourceAlpha" type="matrix" values="0 0 0 0 0 0 0 0 0 0 0 0 0 0 0 0 0 0 127 0"/>
<feOffset dy="20"/>
<feGaussianBlur stdDeviation="12.5"/>
<feColorMatrix type="matrix" values="0 0 0 0 0 0 0 0 0 0 0 0 0 0 0.0901961 0 0 0 0.16 0"/>
<feBlend mode="normal" in2="BackgroundImageFix" result="effect1_dropShadow"/>
<feColorMatrix in="SourceAlpha" type="matrix" values="0 0 0 0 0 0 0 0 0 0 0 0 0 0 0 0 0 0 127 0"/>
<feOffset dy="10"/>
<feGaussianBlur stdDeviation="5"/>
<feColorMatrix type="matrix" values="0 0 0 0 0 0 0 0 0 0 0 0 0 0 0 0 0 0 0.04 0"/>
<feBlend mode="normal" in2="effect1_dropShadow" result="effect2_dropShadow"/>
<feBlend mode="normal" in="SourceGraphic" in2="effect2_dropShadow" result="shape"/>
</filter>
<filter id="filter1_dd" x="382" y="388" width="282" height="178" filterUnits="userSpaceOnUse" color-interpolation-filters="sRGB">
<feFlood flood-opacity="0" result="BackgroundImageFix"/>
<feColorMatrix in="SourceAlpha" type="matrix" values="0 0 0 0 0 0 0 0 0 0 0 0 0 0 0 0 0 0 127 0"/>
<feOffset dy="20"/>
<feGaussianBlur stdDeviation="12.5"/>
<feColorMatrix type="matrix" values="0 0 0 0 0 0 0 0 0 0 0 0 0 0 0.0901961 0 0 0 0.16 0"/>
<feBlend mode="normal" in2="BackgroundImageFix" result="effect1_dropShadow"/>
<feColorMatrix in="SourceAlpha" type="matrix" values="0 0 0 0 0 0 0 0 0 0 0 0 0 0 0 0 0 0 127 0"/>
<feOffset dy="10"/>
<feGaussianBlur stdDeviation="5"/>
<feColorMatrix type="matrix" values="0 0 0 0 0 0 0 0 0 0 0 0 0 0 0 0 0 0 0.04 0"/>
<feBlend mode="normal" in2="effect1_dropShadow" result="effect2_dropShadow"/>
<feBlend mode="normal" in="SourceGraphic" in2="effect2_dropShadow" result="shape"/>
</filter>
<filter id="filter2_d" x="322" y="192" width="145" height="168" filterUnits="userSpaceOnUse" color-interpolation-filters="sRGB">
<feFlood flood-opacity="0" result="BackgroundImageFix"/>
<feColorMatrix in="SourceAlpha" type="matrix" values="0 0 0 0 0 0 0 0 0 0 0 0 0 0 0 0 0 0 127 0"/>
<feOffset dy="7"/>
<feGaussianBlur stdDeviation="10"/>
<feColorMatrix type="matrix" values="0 0 0 0 0 0 0 0 0 0 0 0 0 0 0 0 0 0 0.07 0"/>
<feBlend mode="normal" in2="BackgroundImageFix" result="effect1_dropShadow"/>
<feBlend mode="normal" in="SourceGraphic" in2="effect1_dropShadow" result="shape"/>
</filter>
<filter id="filter3_d" x="82" y="280" width="209" height="168" filterUnits="userSpaceOnUse" color-interpolation-filters="sRGB">
<feFlood flood-opacity="0" result="BackgroundImageFix"/>
<feColorMatrix in="SourceAlpha" type="matrix" values="0 0 0 0 0 0 0 0 0 0 0 0 0 0 0 0 0 0 127 0"/>
<feOffset dy="7"/>
<feGaussianBlur stdDeviation="10"/>
<feColorMatrix type="matrix" values="0 0 0 0 0 0 0 0 0 0 0 0 0 0 0 0 0 0 0.07 0"/>
<feBlend mode="normal" in2="BackgroundImageFix" result="effect1_dropShadow"/>
<feBlend mode="normal" in="SourceGraphic" in2="effect1_dropShadow" result="shape"/>
</filter>
<filter id="filter4_dd" x="446" y="0" width="176" height="178" filterUnits="userSpaceOnUse" color-interpolation-filters="sRGB">
<feFlood flood-opacity="0" result="BackgroundImageFix"/>
<feColorMatrix in="SourceAlpha" type="matrix" values="0 0 0 0 0 0 0 0 0 0 0 0 0 0 0 0 0 0 127 0"/>
<feOffset dy="20"/>
<feGaussianBlur stdDeviation="12.5"/>
<feColorMatrix type="matrix" values="0 0 0 0 0 0 0 0 0 0 0 0 0 0 0.0901961 0 0 0 0.16 0"/>
<feBlend mode="normal" in2="BackgroundImageFix" result="effect1_dropShadow"/>
<feColorMatrix in="SourceAlpha" type="matrix" values="0 0 0 0 0 0 0 0 0 0 0 0 0 0 0 0 0 0 127 0"/>
<feOffset dy="10"/>
<feGaussianBlur stdDeviation="5"/>
<feColorMatrix type="matrix" values="0 0 0 0 0 0 0 0 0 0 0 0 0 0 0 0 0 0 0.04 0"/>
<feBlend mode="normal" in2="effect1_dropShadow" result="effect2_dropShadow"/>
<feBlend mode="normal" in="SourceGraphic" in2="effect2_dropShadow" result="shape"/>
</filter>
</defs>
</svg>
