<svg width="22" height="24" viewBox="0 0 22 24" fill="none" xmlns="http://www.w3.org/2000/svg">
<path d="M2.33163 7.77393C1.91811 7.77393 1.56726 7.91813 1.27885 8.20654C0.990439 8.49495 0.846191 8.84103 0.846191 9.24496V15.4468C0.846191 15.8609 0.990396 16.2114 1.27885 16.4999C1.56726 16.7883 1.91811 16.9325 2.33163 16.9325C2.74485 16.9325 3.09358 16.7883 3.37752 16.4999C3.66089 16.2115 3.80297 15.8609 3.80297 15.4468V9.24496C3.80297 8.84098 3.65876 8.49495 3.37031 8.20654C3.08186 7.91813 2.73556 7.77393 2.33163 7.77393Z" fill="white" fill-opacity="0.32"/>
<path d="M14.2739 2.20654L15.2979 0.317431C15.3651 0.192364 15.3412 0.0964594 15.226 0.0290222C15.1009 -0.0291283 15.0047 0.00033753 14.9376 0.115337L13.8992 2.01955C12.9855 1.61558 12.0191 1.41322 11 1.41322C9.98074 1.41322 9.01427 1.61562 8.10092 2.01955L7.0625 0.115337C6.99502 0.00033753 6.8989 -0.0288679 6.77409 0.0290222C6.65857 0.0967632 6.63466 0.192364 6.70214 0.317431L7.72624 2.20654C6.68782 2.7361 5.86078 3.47361 5.24543 4.42069C4.63007 5.36828 4.32227 6.40379 4.32227 7.52904H17.6633C17.6633 6.40405 17.3554 5.36849 16.7401 4.42069C16.1247 3.47361 15.3025 2.7361 14.2739 2.20654ZM8.35322 4.95428C8.24248 5.06529 8.11021 5.12053 7.95645 5.12053C7.8024 5.12053 7.67282 5.06529 7.56711 4.95428C7.46139 4.84379 7.40854 4.71204 7.40854 4.55777C7.40854 4.40402 7.46139 4.27201 7.56711 4.16126C7.67282 4.05078 7.8027 3.99554 7.95645 3.99554C8.11021 3.99554 8.24248 4.05078 8.35322 4.16126C8.46371 4.27227 8.51921 4.40402 8.51921 4.55777C8.51891 4.71178 8.46345 4.84379 8.35322 4.95428ZM14.4324 4.95428C14.3265 5.06529 14.1966 5.12053 14.0431 5.12053C13.889 5.12053 13.7568 5.06529 13.6462 4.95428C13.5355 4.84379 13.4803 4.71204 13.4803 4.55777C13.4803 4.40402 13.5355 4.27201 13.6462 4.16126C13.7568 4.05078 13.889 3.99554 14.0431 3.99554C14.1968 3.99554 14.3264 4.05078 14.4324 4.16126C14.5382 4.27227 14.5909 4.40402 14.5909 4.55777C14.5909 4.71178 14.5381 4.84379 14.4324 4.95428Z" fill="white" fill-opacity="0.32"/>
<path d="M4.37988 17.6536C4.37988 18.0963 4.53363 18.4711 4.84118 18.7786C5.14899 19.0861 5.52375 19.2399 5.96618 19.2399H7.03354L7.04816 22.5143C7.04816 22.9278 7.19237 23.2789 7.48078 23.5673C7.76919 23.8558 8.11553 24 8.5192 24C8.93246 24 9.28353 23.8558 9.57198 23.5673C9.86043 23.2789 10.0046 22.9278 10.0046 22.5143V19.2402H11.9949V22.5143C11.9949 22.9278 12.1391 23.2789 12.4276 23.5673C12.716 23.8558 13.0668 24 13.4803 24C13.8936 24 14.2447 23.8558 14.5331 23.5673C14.8216 23.2789 14.9657 22.9278 14.9657 22.5143V19.2402H16.0475C16.4801 19.2402 16.8501 19.0864 17.1582 18.7789C17.4657 18.4713 17.6195 18.0965 17.6195 17.6539V8.04773H4.37988V17.6536Z" fill="white" fill-opacity="0.32"/>
<path d="M19.6683 7.77393C19.2644 7.77393 18.9183 7.916 18.6299 8.19938C18.3415 8.48327 18.1973 8.832 18.1973 9.24496V15.4468C18.1973 15.8609 18.3414 16.2114 18.6299 16.4999C18.9183 16.7883 19.2646 16.9325 19.6683 16.9325C20.0816 16.9325 20.4327 16.7883 20.7211 16.4999C21.0096 16.2114 21.1537 15.8609 21.1537 15.4468V9.24496C21.1537 8.83196 21.0096 8.48327 20.7211 8.19938C20.4327 7.916 20.0816 7.77393 19.6683 7.77393Z" fill="white" fill-opacity="0.32"/>
</svg>
