<svg width="20" height="24" viewBox="0 0 20 24" fill="none" xmlns="http://www.w3.org/2000/svg">
<path d="M1.20552 8.82252C-0.823462 12.3434 0.4664 17.6866 2.71012 20.9264C3.8301 22.5461 4.964 24 6.51707 24C6.54635 24 6.5757 23.9995 6.60576 23.9983C7.33543 23.9692 7.86273 23.7445 8.37255 23.5274C8.94493 23.2835 9.5369 23.0313 10.4654 23.0313C11.3488 23.0313 11.9125 23.2753 12.4577 23.5112C12.9949 23.7437 13.5484 23.9841 14.3661 23.9688C16.1155 23.9362 17.1896 22.3673 18.1372 20.9833C19.1261 19.5382 19.6222 18.1351 19.7895 17.5989L19.7963 17.5776C19.8282 17.4823 19.7832 17.3782 19.6918 17.3363C19.6893 17.3351 19.68 17.3313 19.6774 17.3302C19.3693 17.2042 16.667 16.0054 16.6386 12.7379C16.6123 10.0833 18.6659 8.6775 19.0777 8.4227L19.0969 8.41074C19.1415 8.38202 19.1726 8.33646 19.1832 8.28437C19.1937 8.23236 19.1827 8.17822 19.1528 8.13447C17.7353 6.06008 15.5627 5.74745 14.688 5.70984C14.5611 5.69717 14.4301 5.6908 14.2985 5.6908C13.2711 5.6908 12.287 6.07881 11.4963 6.39057C10.9505 6.60579 10.4791 6.79165 10.154 6.79165C9.78863 6.79165 9.31453 6.6035 8.76552 6.38569C8.03136 6.09431 7.19922 5.76413 6.31831 5.76413C6.2973 5.76413 6.2766 5.76437 6.25622 5.76476C4.20796 5.7949 2.27254 6.96673 1.20552 8.82252Z" fill="white" fill-opacity="0.32"/>
<path d="M14.69 0.000151195C13.4496 0.0506692 11.9617 0.814184 11.0724 1.85586C10.3166 2.73143 9.57824 4.19126 9.77276 5.66273C9.78495 5.7548 9.85987 5.82586 9.95248 5.83302C10.0362 5.83955 10.1217 5.84285 10.2068 5.84293C11.4196 5.84293 12.728 5.17195 13.6215 4.09156C14.5619 2.95073 15.0374 1.48666 14.8936 0.175233C14.8822 0.0724659 14.7918 -0.00386192 14.69 0.000151195Z" fill="white" fill-opacity="0.32"/>
</svg>
