<svg width="24" height="24" viewBox="0 0 24 24" fill="none" xmlns="http://www.w3.org/2000/svg">
<g clip-path="url(#clip0)">
<path d="M3.20552 8.82252C1.17654 12.3434 2.4664 17.6866 4.71012 20.9264C5.8301 22.5461 6.964 24 8.51707 24C8.54635 24 8.5757 23.9995 8.60576 23.9983C9.33543 23.9692 9.86273 23.7445 10.3726 23.5274C10.9449 23.2835 11.5369 23.0313 12.4654 23.0313C13.3488 23.0313 13.9125 23.2753 14.4577 23.5112C14.9949 23.7437 15.5484 23.9841 16.3661 23.9688C18.1155 23.9362 19.1896 22.3673 20.1372 20.9833C21.1261 19.5382 21.6222 18.1351 21.7895 17.5989L21.7963 17.5776C21.8282 17.4823 21.7832 17.3782 21.6918 17.3363C21.6893 17.3351 21.68 17.3313 21.6774 17.3302C21.3693 17.2042 18.667 16.0054 18.6386 12.7379C18.6123 10.0833 20.6659 8.6775 21.0777 8.4227L21.0969 8.41074C21.1415 8.38202 21.1726 8.33646 21.1832 8.28437C21.1937 8.23236 21.1827 8.17822 21.1528 8.13447C19.7353 6.06008 17.5627 5.74745 16.688 5.70984C16.5611 5.69717 16.4301 5.6908 16.2985 5.6908C15.2711 5.6908 14.287 6.07881 13.4963 6.39057C12.9505 6.60579 12.4791 6.79165 12.154 6.79165C11.7886 6.79165 11.3145 6.6035 10.7655 6.38569C10.0314 6.09431 9.19922 5.76413 8.31831 5.76413C8.2973 5.76413 8.2766 5.76437 8.25622 5.76476C6.20796 5.7949 4.27254 6.96673 3.20552 8.82252Z" fill="white" fill-opacity="0.32"/>
<path d="M16.69 0.000151195C15.4496 0.0506692 13.9617 0.814184 13.0724 1.85586C12.3166 2.73143 11.5782 4.19126 11.7728 5.66273C11.785 5.7548 11.8599 5.82586 11.9525 5.83302C12.0362 5.83955 12.1217 5.84285 12.2068 5.84293C13.4196 5.84293 14.728 5.17195 15.6215 4.09156C16.5619 2.95073 17.0374 1.48666 16.8936 0.175233C16.8822 0.0724659 16.7918 -0.00386192 16.69 0.000151195Z" fill="white" fill-opacity="0.32"/>
</g>
<defs>
<clipPath id="clip0">
</clipPath>
</defs>
</svg>
