<svg width="1194" height="457" viewBox="0 0 1194 457" fill="none" xmlns="http://www.w3.org/2000/svg">
<path fill-rule="evenodd" clip-rule="evenodd" d="M206 312.251V316.944C206.17 316.944 206.283 316.944 206.453 317H217.606C217.653 316.995 217.7 316.991 217.748 316.986C218.275 316.935 218.842 316.879 219.361 316.777C222.645 316.05 224.57 313.983 225.475 310.911C226.155 308.564 226.155 306.162 225.589 303.816C225.249 302.419 224.626 301.19 223.72 300.128C222.701 298.899 221.399 298.061 219.927 297.503C219.191 297.223 218.399 297 217.606 297H206V301.525H208.774V312.251H206ZM215.058 312.264C214.851 312.258 214.643 312.251 214.435 312.251V301.525C214.66 301.525 214.889 301.516 215.12 301.507C215.705 301.484 216.302 301.461 216.87 301.581C217.379 301.637 217.832 302.084 218.172 302.475C218.738 303.145 219.191 303.983 219.361 304.877C219.701 306.385 219.87 307.894 219.417 309.402C219.191 310.073 218.795 310.687 218.342 311.246C217.832 311.916 217.096 312.196 216.304 312.251C215.888 312.289 215.473 312.276 215.058 312.264Z" fill="white" fill-opacity="0.24"/>
<path d="M271 439.5C268.49 439.5 266.32 438.08 265.24 436H271V434H264.58C264.53 433.67 264.5 433.34 264.5 433C264.5 432.66 264.53 432.33 264.58 432H271V430H265.24C266.32 427.92 268.5 426.5 271 426.5C272.61 426.5 274.09 427.09 275.23 428.07L277 426.3C275.41 424.87 273.3 424 271 424C267.08 424 263.76 426.51 262.52 430H259V432H262.06C262.02 432.33 262 432.66 262 433C262 433.34 262.02 433.67 262.06 434H259V436H262.52C263.76 439.49 267.08 442 271 442C273.31 442 275.41 441.13 277 439.7L275.22 437.93C274.09 438.91 272.62 439.5 271 439.5Z" fill="white" fill-opacity="0.24"/>
<path d="M256.547 72.7586L256.575 72.7594C256.47 72.8806 256.489 72.8503 256.547 72.7586Z" fill="white" fill-opacity="0.24"/>
<path fill-rule="evenodd" clip-rule="evenodd" d="M256.824 72.7652C256.827 72.6622 256.83 72.5598 256.833 72.458C256.71 72.6026 256.627 72.6996 256.575 72.7594C256.658 72.7617 256.741 72.7636 256.824 72.7652ZM256.824 72.7652C256.809 73.3173 256.798 73.8859 256.786 74.4545C256.773 75.1291 256.76 75.8039 256.74 76.451C256.681 76.6983 256.822 76.7822 257.049 76.729C257.238 76.7307 257.431 76.7313 257.628 76.7319C258.435 76.7344 259.305 76.7371 260.192 76.8111C261.296 76.9032 262.11 77.764 262.101 78.7004C262.16 84.7603 262.077 90.7364 261.994 96.7125C262.072 97.5119 261.5 98.1129 260.537 98.1047C259.715 98.1802 258.752 98.172 257.903 98.1372C257.562 98.2169 257.449 98.2434 257.417 98.6012C257.295 99.5642 257.087 100.664 256.879 101.764C256.82 102.011 256.782 102.225 256.745 102.438C256.708 102.651 256.67 102.864 256.612 103.111C259.5 103.136 262.276 103.187 265.051 103.239C265.083 103.368 265.067 103.469 265.053 103.552C265.044 103.611 265.035 103.661 265.047 103.707C264.916 105.606 264.927 107.589 264.937 109.573C264.878 109.82 264.905 109.93 265.273 109.961C266.463 109.916 267.653 109.871 268.871 109.937C269.195 109.964 269.212 109.881 269.252 109.692C269.257 109.667 269.263 109.639 269.27 109.61C269.261 109.086 269.28 108.556 269.299 108.026C269.318 107.496 269.337 106.966 269.327 106.443C269.318 105.919 269.337 105.389 269.356 104.859C269.375 104.329 269.394 103.799 269.384 103.276C270.46 103.258 271.423 103.266 272.386 103.274C272.569 103.315 272.576 103.398 272.586 103.524C272.59 103.572 272.594 103.628 272.609 103.689C272.479 105.589 272.489 107.572 272.499 109.555C272.441 109.802 272.468 109.913 272.836 109.943C273.374 109.934 273.948 109.946 274.521 109.958C275.094 109.97 275.668 109.981 276.206 109.972C276.802 110.056 276.802 109.959 276.805 109.54L276.805 109.482C276.814 108.545 276.816 107.581 276.817 106.617C276.819 105.653 276.821 104.689 276.829 103.753C276.861 103.395 277.06 103.232 277.428 103.262C279.781 103.062 282.106 102.752 284.409 101.862C286.171 101.216 287.569 100.072 288.463 98.3441C289.184 96.8905 289.424 95.4328 289.495 93.7809C289.535 92.4867 289.321 91.1353 288.793 89.9739C287.957 88.5345 286.748 87.5326 285.14 86.8578C284.871 86.7453 284.61 86.6605 284.349 86.5756C284.088 86.4907 283.827 86.4059 283.559 86.2934C283.692 86.2623 283.776 86.2024 283.846 86.1528C283.896 86.1177 283.938 86.0877 283.985 86.0767C284.812 85.5329 285.611 84.8788 286.128 84.0569C286.818 82.9611 286.999 81.7508 287.039 80.4566C287.056 78.5838 286.505 76.8439 285.073 75.427C284.005 74.5089 282.765 73.8648 281.466 73.468L277.309 72.6887C276.941 72.658 276.8 72.5742 276.832 72.2164C276.922 71.6113 276.899 71.0327 276.876 70.4541C276.889 69.0495 276.902 67.6449 276.887 66.1299C276.83 66.1432 276.795 66.1222 276.76 66.1013C276.725 66.0803 276.689 66.0594 276.633 66.0726C276.059 66.0559 275.512 66.0546 274.977 66.0534C274.271 66.0519 273.587 66.0503 272.894 66.013C272.64 65.9558 272.554 66.0927 272.608 66.3136L272.596 67.7181C272.497 69.2597 272.484 70.6643 272.499 72.1792C272.47 72.2249 272.444 72.2828 272.418 72.3408C272.367 72.4566 272.316 72.5725 272.24 72.5902C271.758 72.586 271.249 72.5886 270.739 72.5911C270.229 72.5936 269.719 72.5961 269.238 72.592C269.296 72.3446 269.269 72.2342 269.242 72.1238C269.25 71.1874 269.252 70.2234 269.254 69.2595C269.255 68.2955 269.257 67.3314 269.265 66.3951C269.324 66.1477 269.297 66.0373 268.929 66.0066C267.739 66.0515 266.663 66.0698 265.445 66.0042C265.077 65.9736 264.991 66.1105 264.96 66.4683C264.965 67.4599 264.963 68.4239 264.961 69.3879C264.96 70.3519 264.958 71.3158 264.963 72.3074C264.932 72.6652 264.845 72.8022 264.478 72.7715C263.812 72.752 263.153 72.7601 262.495 72.7683C261.836 72.7764 261.178 72.7845 260.512 72.765C259.847 72.7456 259.188 72.7537 258.53 72.7618C257.962 72.7688 257.395 72.7758 256.824 72.7652ZM277.03 84.6675C276.603 84.8842 276.063 85.1275 275.836 85.1806C274.518 85.489 273.337 85.5811 272.116 85.6763C271.654 85.7123 271.186 85.7488 270.704 85.7976C270.463 85.7956 270.251 85.7868 270.038 85.7781C269.826 85.7694 269.614 85.7607 269.373 85.7587C269.118 85.7014 268.978 85.6176 269.036 85.3702C269.144 82.8922 269.165 80.5513 269.159 78.0999C269.191 77.7421 269.277 77.6052 269.645 77.6359C270.005 77.6444 270.359 77.6497 270.709 77.6549C272.124 77.6758 273.477 77.6959 274.882 77.9287C276.013 78.1312 277.199 78.5545 278.013 79.4153C279.612 81.0265 279.078 83.7211 277.03 84.6675ZM269.34 98.731C269.34 98.731 269.199 98.6472 269.086 98.6738C269.105 97.9157 269.108 97.1828 269.111 96.4623C269.115 95.508 269.119 94.5754 269.16 93.6341C269.137 93.0555 269.149 92.4978 269.161 91.9402C269.173 91.3826 269.185 90.8249 269.162 90.2463C269.165 90.2146 269.167 90.1849 269.17 90.157C269.192 89.8701 269.199 89.7808 269.535 89.8088L269.745 89.8009C272.061 89.7129 274.476 89.6211 276.725 90.2285C277.77 90.568 278.815 90.9075 279.601 91.6579C281.287 93.1321 281.062 96.1048 279.069 97.2721C277.929 98.0059 276.68 98.2982 275.29 98.5066C273.639 98.7945 271.911 98.7682 270.255 98.743C269.947 98.7383 269.642 98.7336 269.34 98.731Z" fill="white" fill-opacity="0.24"/>
<path d="M105.15 51.5701L105.22 51.4301C105.22 51.3601 105.22 51.2901 105.36 51.3401C105.371 51.2773 105.371 51.213 105.36 51.1501C105.394 51.0598 105.394 50.9604 105.36 50.8701C105.218 50.5242 105.194 50.1413 105.29 49.7801C105.301 49.7341 105.301 49.6861 105.29 49.6401L105.36 49.5701C105.388 49.5958 105.412 49.6263 105.43 49.6601C105.441 49.7061 105.441 49.7541 105.43 49.8001V49.8701C105.43 49.9401 105.55 49.8001 105.6 49.7501C105.662 49.7025 105.729 49.6622 105.8 49.6301C105.813 49.4473 105.79 49.2636 105.73 49.0901C105.619 48.7137 105.643 48.3101 105.8 47.9501C105.8 48.0201 105.89 48.0701 105.89 48.1401C105.907 48.4001 106.017 48.6451 106.2 48.8301C106.403 49.0631 106.556 49.3351 106.65 49.6301C106.65 49.6301 106.65 49.7201 106.72 49.7201C107.008 49.8031 107.27 49.9571 107.48 50.1701C107.722 50.3881 107.952 50.6181 108.17 50.8601C108.208 50.9013 108.238 50.9487 108.26 51.0001H108.33C108.342 50.7803 108.342 50.56 108.33 50.3401C108.33 50.1501 108.42 49.9601 108.61 49.9901H108.7C108.704 49.9057 108.736 49.825 108.79 49.76C108.844 49.6951 108.918 49.6495 109 49.6301C109.035 49.6909 109.054 49.7599 109.054 49.8301C109.054 49.9003 109.035 49.9693 109 50.0301C109.14 50.2001 109.17 50.2901 109 50.4801C108.83 50.6701 108.91 50.6901 109 50.8801C109.019 50.77 109.06 50.6647 109.12 50.5701C109.17 50.4701 109.19 50.3101 109.31 50.2601C109.349 50.2464 109.391 50.2464 109.43 50.2601C109.546 50.283 109.664 50.283 109.78 50.2601C109.853 50.2541 109.926 50.2712 109.989 50.3088C110.052 50.3465 110.101 50.4029 110.13 50.4701L109.8 50.6301C109.87 50.7701 109.8 50.8201 109.66 50.9101C109.59 50.9741 109.527 51.0444 109.47 51.1201C109.598 51.0974 109.725 51.0673 109.85 51.0301C109.935 51.0085 110.025 51.0178 110.104 51.0563C110.182 51.0947 110.245 51.1599 110.28 51.2401C110.307 51.2967 110.348 51.345 110.4 51.3801C110.497 51.4642 110.558 51.5824 110.57 51.7101C110.578 51.7396 110.578 51.7706 110.57 51.8001L110.38 51.6601C110.356 51.6369 110.324 51.6239 110.29 51.6239C110.256 51.6239 110.224 51.6369 110.2 51.6601C110.166 51.6925 110.122 51.7106 110.075 51.7106C110.028 51.7106 109.984 51.6925 109.95 51.6601C109.882 51.6196 109.804 51.5983 109.725 51.5983C109.646 51.5983 109.568 51.6196 109.5 51.6601C109.394 51.7299 109.284 51.7934 109.17 51.8501C109.301 51.8678 109.427 51.9158 109.536 51.9905C109.645 52.0652 109.736 52.1643 109.8 52.2801C109.87 52.4201 109.97 52.5601 110.04 52.7101C110.067 52.7699 110.07 52.838 110.048 52.8997C110.025 52.9615 109.979 53.0119 109.92 53.0401H109.87V52.9901C109.87 52.8701 109.8 52.8501 109.68 52.8701C109.647 52.881 109.613 52.8852 109.578 52.8825C109.544 52.8798 109.51 52.8702 109.479 52.8544C109.449 52.8386 109.421 52.8168 109.399 52.7903C109.377 52.7638 109.36 52.7332 109.35 52.7001C109.234 52.4672 109.039 52.2829 108.8 52.1801L108.59 52.0901C108.574 52.1811 108.544 52.2689 108.5 52.3501C108.467 52.4024 108.427 52.4496 108.38 52.4901C108.24 52.6101 108.24 52.6301 108.38 52.8001C108.52 52.9701 108.45 52.8901 108.5 52.9701C108.425 52.9745 108.35 52.9614 108.28 52.9319C108.211 52.9024 108.149 52.8573 108.1 52.8001C107.976 52.6603 107.875 52.5017 107.8 52.3301C107.771 52.2501 107.769 52.1628 107.794 52.0816C107.82 52.0003 107.871 51.9296 107.94 51.8801C108.01 51.8106 108.068 51.7294 108.11 51.6401L107.4 51.4501C107.411 51.5598 107.411 51.6704 107.4 51.7801C107.424 52.1831 107.424 52.5871 107.4 52.9901C107.376 53.589 107.282 54.183 107.12 54.7601C107.003 55.2045 106.835 55.634 106.62 56.0401C106.44 56.4061 106.236 56.7602 106.01 57.1001C105.817 57.3825 105.603 57.6499 105.37 57.9001C105.134 58.177 104.873 58.4314 104.59 58.6601C104.28 58.9201 103.95 59.1301 103.59 59.3501C103.105 59.6578 102.58 59.8967 102.03 60.0601C101.659 60.169 101.281 60.2558 100.9 60.3201C100.688 60.3617 100.475 60.3918 100.26 60.4101C100.194 60.431 100.135 60.4673 100.086 60.516C100.037 60.5647 100.001 60.6244 99.98 60.6901C99.9507 60.8486 99.8894 60.9994 99.8001 61.1335C99.7107 61.2676 99.595 61.3821 99.46 61.4701C99.34 61.5601 99.2 61.6401 99.06 61.7301L99.13 61.5201C99.1421 61.4745 99.142 61.4264 99.1297 61.3808C99.1175 61.3352 99.0934 61.2936 99.06 61.2601C98.99 61.1901 98.89 61.2601 98.8 61.2601C98.71 61.2601 98.63 61.3801 98.61 61.5201C98.5908 61.6484 98.5394 61.7698 98.4608 61.8729C98.3821 61.9761 98.2787 62.0577 98.16 62.1101H98.04C98.0714 62.0258 98.0948 61.9388 98.11 61.8501C98.11 61.7801 98.04 61.7101 97.99 61.6401C97.94 61.5701 97.9 61.6401 97.85 61.6401L97.42 61.8501L97.28 61.9201L97.66 62.0901C97.8657 62.1886 98.0315 62.3545 98.13 62.5601C98.1706 62.6152 98.1925 62.6817 98.1925 62.7501C98.1925 62.8185 98.1706 62.8851 98.13 62.9401C98.1184 62.958 98.1122 62.9788 98.1122 63.0001C98.1122 63.0214 98.1184 63.0423 98.13 63.0601C98.1626 63.1786 98.1715 63.3023 98.156 63.4241C98.1406 63.546 98.1012 63.6636 98.04 63.7701C98.04 63.8401 97.92 63.9101 97.87 63.9801L97.8 63.5001C97.8 63.4763 97.7905 63.4534 97.7737 63.4365C97.7568 63.4196 97.7339 63.4101 97.71 63.4101C97.5688 63.4163 97.4288 63.3819 97.3065 63.311C97.1842 63.2402 97.0848 63.1357 97.02 63.0101L96.95 62.9201C96.8262 63.0974 96.6408 63.2221 96.43 63.2701C96.2871 63.3349 96.1602 63.4302 96.0582 63.5495C95.9563 63.6687 95.8818 63.8089 95.84 63.9601C95.8057 64.1336 95.7485 64.3017 95.67 64.4601C95.6274 64.569 95.5441 64.6571 95.4377 64.7056C95.3313 64.7541 95.2102 64.7594 95.1 64.7201V65.1001C95.0459 65.0862 94.995 65.0616 94.9505 65.0278C94.906 64.994 94.8686 64.9516 94.8407 64.9032C94.8127 64.8548 94.7947 64.8013 94.7878 64.7458C94.7808 64.6903 94.7849 64.634 94.8 64.5801C94.8122 64.5241 94.8122 64.4661 94.8 64.4101C94.7304 64.2743 94.7134 64.1176 94.7521 63.97C94.7909 63.8224 94.8827 63.6943 95.01 63.6101C95.2058 63.4674 95.3751 63.2914 95.51 63.0901C95.517 63.0673 95.517 63.0429 95.51 63.0201L94.8 62.9301C94.7131 62.9062 94.6222 62.9001 94.5329 62.9121C94.4435 62.9241 94.3575 62.9541 94.28 63.0001L94.14 63.1801C93.93 63.4201 93.83 63.4401 93.55 63.3001C93.4397 63.4941 93.3975 63.7194 93.43 63.9401C93.3241 63.8369 93.251 63.7047 93.22 63.5601C93.2078 63.4806 93.2078 63.3997 93.22 63.3201V63.1801C93.1971 63.112 93.1971 63.0383 93.22 62.9701C93.3038 62.7776 93.4574 62.6239 93.65 62.5401C93.8624 62.4009 94.1068 62.3183 94.36 62.3001C94.55 62.2881 94.74 62.2881 94.93 62.3001H95.07C95.0276 62.1964 94.9638 62.1027 94.8828 62.0252C94.8019 61.9477 94.7055 61.888 94.6 61.8501L94.06 61.6401C94.0004 61.6488 93.9398 61.6337 93.8912 61.5982C93.8426 61.5627 93.8099 61.5095 93.8 61.4501C93.8 61.4263 93.7905 61.4034 93.7737 61.3865C93.7568 61.3696 93.7339 61.3601 93.71 61.3601C93.543 61.3596 93.3795 61.4083 93.24 61.5001C93.31 61.2901 93.41 61.0701 93.64 61.0301C93.743 61.0181 93.847 61.0181 93.95 61.0301H94.04C94.18 60.8201 94.39 60.8601 94.58 60.9601C94.857 61.0921 95.087 61.3041 95.24 61.5701C95.2749 61.6391 95.3242 61.6999 95.3846 61.7482C95.445 61.7965 95.515 61.8312 95.59 61.8501C95.6033 61.6673 95.5795 61.4836 95.52 61.3101C95.5165 61.2296 95.4874 61.1524 95.4371 61.0895C95.3868 61.0265 95.3178 60.9813 95.24 60.9601C95 60.8901 94.93 60.7201 95.05 60.4601C94.971 60.3899 94.8748 60.3418 94.7712 60.3208C94.6675 60.2997 94.5602 60.3064 94.46 60.3401C94.53 60.1501 94.81 60.0801 95 60.1001C95.1717 60.2028 95.3703 60.2515 95.57 60.2401C95.637 60.2527 95.7001 60.281 95.754 60.3227C95.8079 60.3645 95.8511 60.4184 95.88 60.4801L96.02 60.7601C96.14 60.9701 96.23 61.2101 96.33 61.4201C96.47 61.0201 96.64 60.5901 96.8 60.1401L96.56 60.0501L95.87 59.7701C95.3436 59.5424 94.8439 59.2574 94.38 58.9201C94.2988 58.8762 94.211 58.8458 94.12 58.8301C94.05 58.8301 93.95 58.9201 94 59.0001C94.05 59.0801 94.12 59.0901 94.17 59.1701C94.22 59.2501 94.17 59.2401 94.26 59.2901H94.14C93.9775 59.2938 93.8178 59.248 93.682 59.1587C93.5463 59.0694 93.4409 58.9408 93.38 58.7901C93.2327 58.4933 93.1444 58.1706 93.12 57.8401C93.1247 57.8291 93.1271 57.8172 93.1271 57.8051C93.1271 57.7931 93.1247 57.7812 93.12 57.7701L92.48 57.0601C92.4321 57.1823 92.4321 57.318 92.48 57.4401L92.55 57.5801V57.7501H92.36C92.252 57.632 92.1642 57.4968 92.1 57.3501C92.01 57.0001 91.96 56.6401 91.89 56.2901C91.8728 56.1148 91.8427 55.941 91.8 55.7701C91.7482 55.5699 91.6848 55.3729 91.61 55.1801V55.7301C91.61 55.7801 91.49 55.7301 91.47 55.6401C91.3615 55.4537 91.2965 55.2452 91.28 55.0301C91.2683 54.5253 91.3392 54.022 91.49 53.5401C91.5359 53.3634 91.5926 53.1898 91.66 53.0201C91.6371 53.0771 91.6068 53.1309 91.57 53.1801L91.48 53.2701V53.1501C91.4771 52.9253 91.5359 52.7039 91.65 52.5101C91.82 52.1301 92.03 51.7501 92.22 51.3801C92.2985 51.2481 92.3854 51.1211 92.48 51.0001L92.31 51.1801L92.19 51.2501V51.1801C92.2544 51.0731 92.3245 50.9696 92.4 50.8701C92.625 50.5976 92.8876 50.3585 93.18 50.1601C93.248 50.1365 93.322 50.1365 93.39 50.1601L94.39 50.3701L94.74 50.4601C94.6448 50.5582 94.5639 50.6693 94.5 50.7901C94.4693 50.8505 94.4533 50.9174 94.4533 50.9851C94.4533 51.0529 94.4693 51.1197 94.5 51.1801C94.5172 51.2051 94.5264 51.2348 94.5264 51.2651C94.5264 51.2955 94.5172 51.3251 94.5 51.3501C94.2724 51.5463 94.0797 51.7796 93.93 52.0401V52.1301C93.93 52.1301 94.26 52.4601 94.43 52.6501C94.44 52.6801 94.44 52.7101 94.43 52.7401C94.3544 52.869 94.3146 53.0157 94.3146 53.1651C94.3146 53.3145 94.3544 53.4613 94.43 53.5901C94.4415 53.6347 94.4619 53.6765 94.49 53.713C94.5181 53.7495 94.5534 53.7798 94.5936 53.8023C94.6338 53.8247 94.6781 53.8388 94.7239 53.8436C94.7697 53.8483 94.816 53.8438 94.86 53.8301C94.8516 54.0245 94.9118 54.2156 95.03 54.3701C95.1 54.4401 95.2 54.4901 95.27 54.5601C95.3121 54.5895 95.3436 54.6315 95.36 54.6801C95.4157 54.8584 95.5201 55.0175 95.6615 55.1394C95.8028 55.2613 95.9755 55.3413 96.16 55.3701C96.448 55.4101 96.74 55.3501 96.99 55.2001C97.08 55.2001 97.11 55.1301 97.13 55.2001C97.186 55.5491 97.298 55.8861 97.46 56.2001C97.667 56.5661 97.923 56.9021 98.22 57.2001C98.487 57.4551 98.814 57.6401 99.17 57.7401C99.61 57.8391 100.07 57.7151 100.4 57.4101C100.607 57.2003 100.783 56.9611 100.92 56.7001L101.35 56.0101C101.539 55.7494 101.781 55.5314 102.06 55.3701C102.106 55.3345 102.16 55.3097 102.217 55.2976C102.274 55.2855 102.333 55.2864 102.39 55.3001L102.32 55.4401C102.267 55.5257 102.239 55.6244 102.239 55.7251C102.239 55.8259 102.267 55.9246 102.32 56.0101C102.39 56.1001 102.44 56.1001 102.49 56.0101C102.54 55.9201 102.63 55.7501 102.82 55.7701C103.01 55.7901 103.01 55.6501 103.03 55.5301C103.05 55.0094 103.205 54.5027 103.48 54.0601C103.531 54.0073 103.588 53.9604 103.65 53.9201V54.3001C103.669 54.4061 103.7 54.5101 103.74 54.6101L103.8 54.4801C103.817 54.4442 103.844 54.4138 103.878 54.3926C103.911 54.3713 103.95 54.3601 103.99 54.3601C104.037 54.3519 104.08 54.3271 104.11 54.2901C104.176 54.2127 104.221 54.1199 104.242 54.0204C104.263 53.9208 104.259 53.8176 104.23 53.7201C104.206 53.5711 104.206 53.4192 104.23 53.2701C104.23 53.0811 104.278 52.8951 104.37 52.7301C104.392 52.6787 104.422 52.6313 104.46 52.5901H104.53V52.9201C104.522 52.9496 104.522 52.9806 104.53 53.0101H104.62L104.8 52.8901C104.868 52.7683 104.899 52.6294 104.89 52.4901C104.876 52.4107 104.876 52.3295 104.89 52.2501V51.4301C104.89 51.3201 104.89 51.3101 104.96 51.2401L105.07 51.1801V51.6201C105.077 51.6052 105.089 51.5926 105.103 51.5838C105.117 51.575 105.133 51.5702 105.15 51.5701ZM92.86 47.0101L93.45 46.4201C93.4841 46.383 93.5248 46.3525 93.57 46.3301C93.64 46.2601 93.57 46.1901 93.57 46.1201C93.57 46.0501 93.48 46.1201 93.4 46.1201H93.31V46.0001C93.3349 45.9182 93.3773 45.8427 93.4343 45.7788C93.4913 45.7149 93.5615 45.6642 93.64 45.6301C93.8985 45.537 94.1815 45.537 94.44 45.6301C94.4618 45.6407 94.4858 45.6463 94.51 45.6463C94.5343 45.6463 94.5582 45.6407 94.58 45.6301L95.15 45.3201C95.24 45.3201 95.22 45.2301 95.15 45.1801C95.08 45.1301 94.98 45.0601 94.89 45.1801C94.8605 45.1878 94.8295 45.1878 94.8 45.1801C94.8 45.0101 94.97 44.8701 95.13 44.8001C95.4 44.7171 95.69 44.7171 95.96 44.8001H96C96.07 44.8001 96.28 44.8901 96.45 44.8001L96.8 44.6801C96.89 44.6801 96.89 44.6101 96.8 44.5601C96.71 44.5101 96.68 44.4201 96.59 44.4901C96.5 44.5601 96.59 44.4901 96.5 44.4901C96.481 44.4698 96.4705 44.443 96.4705 44.4151C96.4705 44.3873 96.481 44.3605 96.5 44.3401C96.6744 44.2086 96.8936 44.1511 97.11 44.1801C97.3068 44.1953 97.4947 44.2684 97.65 44.3901H97.72C97.7537 44.4296 97.7978 44.459 97.8472 44.4749C97.8967 44.4907 97.9496 44.4926 98 44.4801C98.0574 44.4458 98.1231 44.4276 98.19 44.4276C98.2569 44.4276 98.3226 44.4458 98.38 44.4801H98.45V44.3901C98.4341 44.3285 98.3978 44.2742 98.3469 44.236C98.296 44.1978 98.2336 44.1781 98.17 44.1801H98.1C98.2188 44.0874 98.3598 44.0276 98.509 44.0065C98.6581 43.9854 98.8102 44.0039 98.95 44.0601C99.156 44.1441 99.336 44.2821 99.47 44.4601C99.5225 44.4925 99.5799 44.5161 99.64 44.5301C99.7767 44.5259 99.9129 44.5497 100.04 44.6001C100.16 44.6701 100.11 44.6001 100.13 44.6901C100.145 44.658 100.154 44.6231 100.156 44.5876C100.157 44.5521 100.152 44.5166 100.14 44.4831C100.128 44.4497 100.109 44.4189 100.085 44.3927C100.061 44.3664 100.032 44.3452 100 44.3301H99.8V44.1801C99.909 44.1588 100.021 44.1588 100.13 44.1801C100.446 44.2171 100.73 44.3881 100.91 44.6501C100.98 44.7701 101.038 44.8971 101.08 45.0301C101.165 45.0197 101.251 45.0317 101.33 45.0651C101.409 45.0984 101.478 45.1519 101.53 45.2201H101.6C101.641 45.2117 101.682 45.1983 101.72 45.1801C101.718 45.1022 101.692 45.0267 101.645 44.9641C101.599 44.9015 101.534 44.8547 101.46 44.8301H101.39C101.48 44.8301 101.56 44.7601 101.65 44.8301C101.8 44.8441 101.945 44.8851 102.08 44.9501C102.436 45.0951 102.702 45.3991 102.8 45.7701C102.97 45.8601 103.08 45.9601 103.2 46.0301H103.34V45.8201C103.325 45.7487 103.294 45.6817 103.249 45.6245C103.204 45.5672 103.146 45.5212 103.08 45.4901L102.99 45.4201C103.099 45.3956 103.213 45.4002 103.32 45.4336C103.427 45.4669 103.524 45.5278 103.6 45.6101C103.785 45.7661 103.923 45.9701 104 46.2001C104.008 46.2376 104.025 46.2726 104.049 46.3021C104.074 46.3317 104.105 46.355 104.14 46.3701C104.216 46.4271 104.286 46.4901 104.35 46.5601C104.44 46.3001 104.23 46.1601 104.16 45.9701C104.236 45.9717 104.311 45.9895 104.38 46.0222C104.449 46.055 104.511 46.102 104.56 46.1601C104.7 46.3061 104.826 46.4631 104.94 46.6301C105.012 46.7521 105.092 46.8691 105.18 46.9801C105.252 47.1141 105.299 47.2601 105.32 47.4101C105.334 47.7492 105.287 48.088 105.18 48.4101C105.168 48.63 105.168 48.8503 105.18 49.0701C105.19 49.1001 105.19 49.1301 105.18 49.1601C105.092 49.2329 105.019 49.3226 104.966 49.4239C104.912 49.5252 104.88 49.6361 104.87 49.7501C104.823 50.0483 104.823 50.352 104.87 50.6501V50.7201C104.732 50.8107 104.619 50.9339 104.541 51.0787C104.462 51.2235 104.421 51.3854 104.42 51.5501V52.0701C104.276 52.0993 104.142 52.1667 104.033 52.2652C103.924 52.3638 103.844 52.4898 103.8 52.6301C103.73 52.7701 103.71 52.9401 103.63 53.0801C103.55 53.2201 103.54 53.1701 103.49 53.2201V53.0301C103.55 52.7172 103.573 52.3984 103.56 52.0801C103.57 51.6103 103.481 51.1437 103.3 50.7101V50.5401C103.457 50.3803 103.555 50.1726 103.58 49.9501C103.605 49.6173 103.605 49.283 103.58 48.9501C103.584 48.7141 103.498 48.4853 103.34 48.3101C103.259 48.2267 103.154 48.1697 103.04 48.1465C102.926 48.1233 102.807 48.135 102.7 48.1801C102.561 48.2391 102.442 48.338 102.358 48.4643C102.274 48.5905 102.23 48.7387 102.23 48.8901V49.2401C101.877 48.8857 101.45 48.6127 100.98 48.4401C100.71 48.3451 100.432 48.2748 100.15 48.2301H99.54C99.1457 48.2316 98.7542 48.2957 98.38 48.4201C98.17 48.4901 97.98 48.5901 97.77 48.6601C97.7484 48.6715 97.7244 48.6775 97.7 48.6775C97.6756 48.6775 97.6516 48.6715 97.63 48.6601C97.1814 48.3895 96.6965 48.1841 96.19 48.0501C95.9514 47.9855 95.7068 47.9453 95.46 47.9301C94.96 47.8301 94.46 47.7601 94.04 47.6301C93.664 47.5404 93.3057 47.3883 92.98 47.1801C92.9576 47.1129 92.9159 47.0537 92.86 47.0101ZM102.31 51.7101C102.31 51.8801 102 51.9201 101.67 51.8301V52.1801C101.675 52.22 101.675 52.2603 101.67 52.3001H101.53C101.431 52.2199 101.337 52.133 101.25 52.0401C101.191 52.0655 101.139 52.1039 101.098 52.1524C101.056 52.2009 101.026 52.2583 101.01 52.3201C100.94 52.5101 100.84 52.5301 100.7 52.3201C100.648 52.2677 100.591 52.2208 100.53 52.1801C100.466 52.2714 100.396 52.3582 100.32 52.4401C100.303 52.4606 100.281 52.4774 100.257 52.4894C100.233 52.5014 100.207 52.5085 100.18 52.5101C100.144 52.4749 100.114 52.4344 100.09 52.3901C100.08 52.3205 100.08 52.2498 100.09 52.1801C99.97 52.4901 99.83 52.7501 99.48 52.8201C99.4672 52.6894 99.4915 52.5577 99.55 52.4401C99.62 52.3201 99.55 52.4401 99.55 52.3701C99.3939 52.5201 99.3009 52.724 99.29 52.9401C99.306 53.3731 99.418 53.7971 99.62 54.1801C99.76 54.5301 99.93 54.8701 100.07 55.1801C100.198 55.4971 100.256 55.8381 100.24 56.1801C100.256 56.354 100.221 56.5288 100.14 56.6832C100.058 56.8376 99.9336 56.965 99.7809 57.0498C99.6283 57.1346 99.4543 57.1731 99.2801 57.1608C99.106 57.1484 98.9391 57.0856 98.8 56.9801C98.5714 56.8384 98.3714 56.6553 98.21 56.4401C98.07 56.2501 97.93 56.0601 97.81 55.8701C97.7429 55.7311 97.6861 55.5874 97.64 55.4401V55.3001C97.6959 55.2967 97.7514 55.3114 97.7982 55.342C97.845 55.3727 97.8807 55.4176 97.9 55.4701C97.95 55.5501 98.16 55.8701 98.3 56.0601C98.415 56.2901 98.588 56.4861 98.8 56.6301C98.8703 56.6597 98.9457 56.6752 99.0219 56.6756C99.0981 56.6761 99.1737 56.6615 99.2443 56.6327C99.3149 56.6039 99.3791 56.5615 99.4333 56.5078C99.4874 56.4542 99.5305 56.3904 99.56 56.3201V56.2501C99.6021 56.1256 99.6177 55.9936 99.6056 55.8627C99.5936 55.7318 99.5542 55.6049 99.49 55.4901C99.32 55.1101 99.11 54.7301 98.92 54.3601C98.7001 53.9613 98.5481 53.5288 98.47 53.0801C98.4582 52.9704 98.4582 52.8598 98.47 52.7501C98.32 52.7621 98.17 52.7621 98.02 52.7501L97.57 52.6301L97.36 52.7701C97.3694 52.7239 97.3694 52.6763 97.36 52.6301C97.3621 52.5385 97.3389 52.4481 97.2931 52.3687C97.2472 52.2893 97.1804 52.2241 97.1 52.1801C97.0496 52.1801 97.0013 52.2001 96.9657 52.2358C96.93 52.2714 96.91 52.3197 96.91 52.3701C96.9027 52.4722 96.923 52.5743 96.9687 52.6658C97.0145 52.7573 97.084 52.8348 97.17 52.8901L97.57 53.1701C97.71 53.2601 97.69 53.2601 97.76 53.1701C97.7697 53.124 97.7697 53.0763 97.76 53.0301C97.95 53.0301 98.02 53.1501 98.04 53.3401C98.086 53.5801 98.15 53.8181 98.23 54.0501C98.2344 54.1004 98.2287 54.1511 98.2132 54.1992C98.1978 54.2473 98.1729 54.2918 98.14 54.3301C98.0165 54.4858 97.8545 54.6064 97.67 54.6801C97.5188 54.7388 97.3512 54.7388 97.2 54.6801C97.2873 54.5933 97.3809 54.5131 97.48 54.4401C97.522 54.3974 97.5523 54.3447 97.5681 54.2869C97.5838 54.2291 97.5845 54.1682 97.57 54.1101C97.5628 54.0914 97.5507 54.0749 97.5348 54.0626C97.5189 54.0502 97.5 54.0425 97.48 54.0401C97.387 54.0286 97.293 54.0286 97.2 54.0401C97.1277 54.0453 97.0599 54.0774 97.01 54.1301C96.8461 54.2602 96.6722 54.3772 96.49 54.4801C96.3416 54.5572 96.1725 54.5851 96.0072 54.56C95.8419 54.5348 95.6888 54.4578 95.57 54.3401C95.4846 54.2444 95.4199 54.1321 95.38 54.0101L95.31 53.8701C95.2748 53.906 95.2343 53.9363 95.19 53.9601C95.14 53.9601 95.12 53.8401 95.19 53.8201C95.219 53.6901 95.26 53.5631 95.31 53.4401C95.3214 53.4186 95.3274 53.3945 95.3274 53.3701C95.3274 53.3457 95.3214 53.3217 95.31 53.3001C95.23 53.1889 95.1234 53.0995 95 53.0401C94.91 52.9701 94.83 53.0401 94.76 53.0401H94.64C94.6424 53.0002 94.6424 52.9601 94.64 52.9201C94.6569 52.8148 94.7035 52.7165 94.7744 52.6368C94.8453 52.5571 94.9374 52.4993 95.04 52.4701H95.16C94.8733 52.3607 94.614 52.1901 94.4 51.9701C94.33 51.9001 94.31 51.8501 94.4 51.7801C94.49 51.7101 94.66 51.5501 94.8 51.4501C95.0685 51.3548 95.3616 51.3548 95.63 51.4501C95.877 51.5321 96.103 51.6681 96.29 51.8501L96.36 51.9201C96.3036 51.7489 96.2083 51.593 96.0817 51.4646C95.9551 51.3362 95.8005 51.2389 95.63 51.1801C95.3254 51.0668 95.0048 51.0026 94.68 50.9901C94.6961 50.9296 94.7291 50.8748 94.7751 50.8323C94.8212 50.7898 94.8784 50.7613 94.94 50.7501L95.48 50.6501C95.672 50.6074 95.8506 50.5181 96 50.3901C95.9035 50.3106 95.7997 50.2403 95.69 50.1801C95.41 50.0601 95.12 49.9201 94.84 49.8301C94.5856 49.7179 94.316 49.6438 94.04 49.6101C93.6546 49.5563 93.2759 49.4625 92.91 49.3301C92.4685 49.2096 92.0472 49.0242 91.66 48.7801C91.26 48.5201 90.92 48.1801 90.66 47.7801C90.5994 47.6766 90.5523 47.5657 90.52 47.4501V47.3301H90.64L90.8 47.4201C91.06 47.6301 91.3 47.8901 91.56 48.0801C91.879 48.3116 92.2385 48.4812 92.62 48.5801C92.93 48.6501 93.23 48.7201 93.54 48.7701C93.85 48.8201 94.06 48.7701 94.32 48.8401L94.89 48.9101C95.107 48.9251 95.322 48.9651 95.53 49.0301C95.86 49.1501 96.17 49.2901 96.48 49.4101C96.4979 49.4217 96.5187 49.4279 96.54 49.4279C96.5613 49.4279 96.5822 49.4217 96.6 49.4101C96.73 49.3811 96.857 49.3401 96.98 49.2901V49.1801C96.7494 49.0515 96.5125 48.9347 96.27 48.8301C95.8153 48.6513 95.3369 48.5402 94.85 48.5001L94.19 48.4301C93.8283 48.3703 93.4708 48.2868 93.12 48.1801C92.7569 48.048 92.4188 47.8553 92.12 47.6101C91.8686 47.416 91.6806 47.1515 91.58 46.8501V46.6401C91.6069 46.6289 91.6358 46.623 91.665 46.623C91.6942 46.623 91.7231 46.6289 91.75 46.6401L92.01 46.9201C92.15 47.0601 92.29 47.2001 92.46 47.3501C92.856 47.6601 93.312 47.8851 93.8 48.0101C94.08 48.0801 94.37 48.1301 94.65 48.1801C95.1 48.2501 95.57 48.3201 96.02 48.4201C96.5535 48.5158 97.0512 48.7543 97.46 49.1101C97.63 49.2501 97.77 49.1801 97.93 49.1101C98.0148 49.0941 98.1024 49.1059 98.1799 49.1437C98.2574 49.1816 98.3206 49.2435 98.36 49.3201C98.48 49.6431 98.48 49.9971 98.36 50.3201C98.3492 50.3799 98.3568 50.4415 98.3818 50.4969C98.4068 50.5522 98.448 50.5987 98.5 50.6301H98.62C98.7596 50.5729 98.9119 50.5539 99.0613 50.5749C99.2107 50.596 99.3517 50.6565 99.47 50.7501C99.5071 50.7793 99.5529 50.7952 99.6 50.7952C99.6472 50.7952 99.693 50.7793 99.73 50.7501C99.9261 50.6585 100.116 50.5549 100.3 50.4401C100.49 50.3201 100.39 50.2701 100.44 50.1801C100.508 50.0417 100.618 49.9284 100.755 49.8565C100.892 49.7847 101.047 49.7579 101.2 49.7801C101.415 49.7801 101.63 49.8031 101.84 49.8501C102.01 49.896 102.19 49.896 102.36 49.8501C102.467 49.8372 102.568 49.7906 102.647 49.7169C102.726 49.6432 102.78 49.5463 102.8 49.4401V48.8001C102.8 48.7301 102.8 48.6601 102.92 48.6601C103.04 48.6601 103.01 48.7501 103.01 48.8301C103.082 49.1601 103.082 49.5001 103.01 49.8301C102.99 49.9727 102.915 50.1018 102.801 50.1897C102.687 50.2776 102.543 50.3172 102.4 50.3001H101.55C101.435 50.2928 101.321 50.3272 101.229 50.397C101.137 50.4668 101.074 50.5673 101.05 50.6801C101.039 50.7261 101.039 50.7741 101.05 50.8201C101.12 50.9601 101.17 51.0801 101.38 51.0601C101.492 51.0701 101.58 51.1581 101.59 51.2701C101.612 51.3899 101.673 51.499 101.763 51.5805C101.854 51.6619 101.969 51.711 102.09 51.7201L102.31 51.7101ZM96.74 51.0201C96.86 51.1431 96.987 51.2601 97.12 51.3701C97.1877 51.4212 97.2702 51.4489 97.355 51.4489C97.4398 51.4489 97.5223 51.4212 97.59 51.3701C97.7221 51.2916 97.849 51.2048 97.97 51.1101V51.0401C97.9587 50.9948 97.9376 50.9526 97.9083 50.9163C97.8789 50.88 97.842 50.8506 97.8 50.8301C97.7148 50.8077 97.6252 50.8077 97.54 50.8301L97.37 50.9001C97.1997 50.946 97.0203 50.946 96.85 50.9001L96.74 51.0201ZM100 51.3501C100.041 51.3837 100.089 51.4077 100.14 51.4201C100.315 51.4536 100.474 51.5452 100.59 51.6801C100.706 51.6911 100.824 51.6911 100.94 51.6801C101.01 51.6801 101.06 51.6101 101.13 51.5901C101.073 51.521 101.009 51.4574 100.94 51.4001C100.642 51.2746 100.31 51.257 100 51.3501ZM87.54 54.4301C87.6651 54.5639 87.8245 54.6607 88.0008 54.7101C88.1772 54.7595 88.3637 54.7595 88.54 54.7101C88.5989 54.6927 88.6529 54.6621 88.698 54.6204C88.7431 54.5788 88.778 54.5274 88.8 54.4701C88.4251 54.5568 88.0316 54.5071 87.69 54.3301C87.5284 54.2379 87.388 54.1129 87.2777 53.963C87.1675 53.8132 87.0899 53.6418 87.05 53.4601C86.9751 53.1939 86.9871 52.9107 87.0842 52.6517C87.1814 52.3927 87.3585 52.1715 87.59 52.0201C87.4867 52.3517 87.5193 52.7106 87.6806 53.0181C87.8418 53.3257 88.1186 53.5566 88.45 53.6601H88.59C88.8882 53.7221 89.1985 53.6831 89.4719 53.5491C89.7454 53.415 89.9664 53.1938 90.1 52.9201C89.9952 53.0011 89.8951 53.0879 89.8 53.1801C89.363 53.4801 88.787 53.4801 88.35 53.1801C88.2315 53.1019 88.1334 52.9964 88.064 52.8725C87.9945 52.7487 87.9557 52.61 87.9508 52.468C87.9459 52.3261 87.9751 52.1851 88.0358 52.0567C88.0966 51.9283 88.1872 51.8163 88.3 51.7301C88.3135 51.8136 88.3456 51.893 88.3941 51.9623C88.4426 52.0315 88.5062 52.0889 88.58 52.1301C88.7268 52.2111 88.8854 52.2684 89.05 52.3001C89.2293 52.3289 89.4128 52.3159 89.5863 52.2621C89.7597 52.2083 89.9184 52.1153 90.05 51.9901C90.1948 51.8415 90.3072 51.6644 90.38 51.4701C90.57 51.0201 90.71 50.5501 90.92 50.1001C91.056 49.8258 91.2062 49.5588 91.37 49.3001C91.37 49.2301 91.46 49.3001 91.51 49.3001L92.03 49.5801L92.36 49.7201L92.22 49.8401C91.9067 50.1742 91.6378 50.5472 91.42 50.9501C91.25 51.2601 91.09 51.5401 90.95 51.8501C90.81 52.1601 90.67 52.5601 90.55 52.9101L90.27 53.7101C90.2 53.9201 90.1 54.1101 90.01 54.3201C89.876 54.6242 89.6435 54.8743 89.35 55.0301C89.1776 55.1139 88.9911 55.1648 88.8 55.1801C88.6108 55.204 88.4193 55.204 88.23 55.1801C88.0768 55.1684 87.9308 55.1105 87.8112 55.0141C87.6916 54.9177 87.604 54.7873 87.56 54.6401C87.5739 54.5697 87.5669 54.4967 87.54 54.4301ZM101.61 53.6301C101.622 53.7401 101.622 53.8501 101.61 53.9601C101.61 54.1001 101.52 54.1001 101.4 54.0301L101.12 53.8901H101C101.04 53.9708 101.062 54.0599 101.062 54.1501C101.062 54.2404 101.04 54.3294 101 54.4101C100.984 54.4587 100.952 54.5008 100.91 54.5301H100.8L100.73 54.3201C100.706 54.2647 100.661 54.221 100.605 54.1986C100.548 54.1761 100.486 54.1767 100.43 54.2001C100.337 54.2255 100.249 54.266 100.17 54.3201H100.03C99.8573 53.9894 99.7456 53.6304 99.7 53.2601L99.8 53.3801C99.8819 53.4426 99.982 53.4764 100.085 53.4764C100.188 53.4764 100.288 53.4426 100.37 53.3801C100.394 53.3285 100.407 53.2721 100.407 53.2151C100.407 53.1581 100.394 53.1018 100.37 53.0501C100.37 52.9801 100.3 52.9301 100.28 52.8601C100.42 52.8601 100.42 52.7401 100.78 53.1701L101.04 53.0301C101.13 53.0301 101.04 52.8901 101.04 52.8401V52.6301L101.21 52.7001C101.259 52.7165 101.301 52.7481 101.33 52.7901C101.479 52.9584 101.647 53.1093 101.83 53.2401C101.886 53.2862 101.93 53.3444 101.959 53.4103C101.989 53.4762 102.003 53.548 102 53.6201V53.7101H101.93C101.68 53.6301 101.68 53.6301 101.61 53.6301ZM89.8 52.0401C89.6071 51.9264 89.3828 51.8773 89.16 51.9001C89.067 51.9116 88.973 51.9116 88.88 51.9001C88.8218 51.8905 88.7666 51.8674 88.7188 51.8327C88.6711 51.7979 88.6321 51.7526 88.6049 51.7002C88.5777 51.6478 88.5631 51.5898 88.5623 51.5307C88.5614 51.4717 88.5744 51.4133 88.6 51.3601C88.69 51.3601 88.77 51.4801 88.86 51.5301C88.95 51.5801 88.98 51.5301 88.98 51.4601C88.9768 51.4018 88.9914 51.3438 89.0217 51.2938C89.052 51.2439 89.0968 51.2042 89.15 51.1801C89.2262 51.1534 89.3082 51.1476 89.3874 51.1635C89.4665 51.1793 89.54 51.2161 89.6 51.2701C89.802 51.4701 89.88 51.7661 89.8 52.0401Z" fill="white" fill-opacity="0.24"/>
<path d="M73.154 326C73.154 326.139 73.154 326.278 73.154 326.417C73.154 331.561 73.154 336.774 73.154 341.918C73.154 341.987 73.154 342.126 73.154 342.196C73.154 342.265 73.0835 342.335 73.013 342.335C72.5194 342.543 72.0963 342.752 71.6027 342.961C70.9681 343.239 70.263 343.517 69.6284 343.864C68.8527 344.212 68.0771 344.559 67.3014 344.907C66.6668 345.185 66.0322 345.463 65.3976 345.741C64.622 346.088 63.8463 346.436 63.0707 346.784C62.4361 347.062 61.8014 347.34 61.0963 347.687C60.6027 347.896 60.0386 348.174 59.545 348.382C59.4745 348.382 59.4745 348.452 59.404 348.382C59.404 348.382 59.404 348.382 59.3335 348.382C59.545 348.035 59.7566 347.757 59.9681 347.409C61.0963 345.532 62.295 343.656 63.4232 341.779C64.622 339.763 65.8912 337.747 67.0899 335.731C68.2181 333.855 69.3463 331.978 70.4745 330.171C71.3207 328.78 72.1668 327.46 72.9425 326.07C73.0835 326.07 73.0835 326 73.154 326C73.0835 326 73.154 326 73.154 326Z" fill="white" fill-opacity="0.24"/>
<path d="M86.8335 348.382C85.7758 349.077 84.6476 349.703 83.5899 350.329C80.1348 352.344 76.7502 354.291 73.295 356.306C73.2245 356.306 73.2245 356.376 73.154 356.376C73.0835 356.376 73.0835 356.306 73.0835 356.306C73.0835 356.237 73.0835 356.167 73.0835 356.098C73.0835 351.58 73.0835 347.062 73.0835 342.543C73.0835 342.474 73.0835 342.404 73.0835 342.335C73.0835 342.265 73.154 342.265 73.2245 342.265C73.5066 342.404 73.7886 342.543 74.1412 342.682C74.9873 343.1 75.904 343.447 76.7502 343.864C77.5258 344.212 78.2309 344.559 79.0066 344.837C79.7822 345.185 80.4873 345.532 81.263 345.88C81.8976 346.158 82.6027 346.436 83.2373 346.784C83.872 347.062 84.5771 347.34 85.2117 347.687C85.7053 347.896 86.1989 348.174 86.763 348.382C86.763 348.313 86.763 348.382 86.8335 348.382Z" fill="white" fill-opacity="0.24"/>
<path d="M73.1528 370C73.1528 370 73.0823 370 73.1528 370C73.0823 370 73.0823 370 73.0118 369.93C71.6016 367.984 70.2618 366.107 68.8516 364.161C67.4413 362.215 66.031 360.269 64.6208 358.322C63.281 356.445 61.8708 354.569 60.531 352.622C60.1785 352.136 59.8259 351.649 59.4733 351.163C59.4733 351.093 59.4028 351.093 59.4028 351.024C59.4733 351.024 59.4733 351.093 59.5439 351.093C61.4477 352.205 63.4221 353.318 65.3259 354.43C67.5118 355.75 69.7682 357.002 71.9541 358.322C72.3067 358.531 72.7298 358.739 73.0823 358.948C73.1528 358.948 73.1528 359.017 73.1528 359.087C73.1528 359.156 73.1528 359.226 73.1528 359.295C73.1528 362.771 73.1528 366.177 73.1528 369.652C73.1528 369.722 73.1528 369.861 73.1528 370Z" fill="white" fill-opacity="0.24"/>
<path d="M59.4746 348.452C59.4746 348.382 59.4746 348.382 59.4746 348.452C60.1797 348.104 60.8849 347.826 61.59 347.479C62.5067 347.062 63.4233 346.644 64.34 346.227C65.0451 345.88 65.7502 345.602 66.4554 345.254C67.4426 344.768 68.5002 344.351 69.4874 343.864C70.1926 343.586 70.8977 343.238 71.6028 342.96C72.0964 342.752 72.59 342.543 73.0836 342.265C73.1541 342.265 73.1541 342.196 73.2246 342.196C73.2246 342.196 73.2246 342.196 73.2246 342.265C73.2246 342.335 73.2246 342.335 73.2246 342.404C73.2246 346.992 73.2246 351.58 73.2246 356.167C73.2246 356.237 73.2246 356.306 73.2246 356.376C73.1541 356.445 73.1541 356.376 73.0836 356.376C72.872 356.237 72.6605 356.167 72.5195 356.028C68.2182 353.526 63.9169 351.024 59.6156 348.521C59.5451 348.452 59.4746 348.452 59.4746 348.452Z" fill="white" fill-opacity="0.24"/>
<path d="M86.7633 351.024C86.7633 351.093 86.7633 351.093 86.6928 351.163C82.603 356.863 78.5133 362.493 74.4235 368.193C74.0005 368.818 73.5774 369.374 73.1543 370C73.1543 370 73.1543 370 73.1543 369.93C73.1543 369.861 73.1543 369.861 73.1543 369.791C73.1543 366.246 73.1543 362.701 73.1543 359.156C73.1543 359.087 73.1543 359.017 73.1543 358.948C74.071 358.392 74.9876 357.836 75.9043 357.349C79.5004 355.264 83.0966 353.179 86.6928 351.093C86.6928 351.024 86.7633 351.024 86.7633 351.024Z" fill="white" fill-opacity="0.24"/>
<path d="M73.1543 342.265C73.1543 342.196 73.1543 342.126 73.1543 342.126C73.1543 336.843 73.1543 331.491 73.1543 326.208C73.1543 326.139 73.1543 326.069 73.1543 326.069C77.6671 333.437 82.1799 340.806 86.6927 348.174C86.7633 348.243 86.8338 348.313 86.8338 348.382C86.5517 348.243 86.2697 348.104 85.9171 347.965C85.5645 347.826 85.212 347.618 84.8594 347.479C84.6479 347.409 84.4363 347.27 84.1543 347.2C83.8017 347.061 83.3786 346.853 83.0261 346.714C82.8145 346.644 82.603 346.505 82.3915 346.436C81.8979 346.227 81.4043 346.019 80.9107 345.81C80.6287 345.671 80.4171 345.602 80.1351 345.463C79.7825 345.324 79.4299 345.115 79.0774 344.976C78.8658 344.907 78.6543 344.768 78.4428 344.698C77.9492 344.49 77.4556 344.281 76.962 344.072C76.6799 343.933 76.4684 343.864 76.1863 343.725C75.8338 343.586 75.4812 343.377 75.1287 343.238C74.9171 343.099 74.6351 343.03 74.4235 342.891C74.0005 342.682 73.5774 342.474 73.1543 342.265Z" fill="white" fill-opacity="0.24"/>
<path d="M9.174 149.606L15 143.78L20.829 149.609L24.219 146.219L15 137L5.784 146.216L9.174 149.606ZM0 152L3.39 148.61L6.78 152L3.39 155.39L0 152ZM9.174 154.394L15 160.22L20.829 154.391L24.219 157.78L15 167L5.784 157.784L5.7795 157.78L9.174 154.394ZM23.22 152L26.61 148.61L30 152L26.61 155.39L23.22 152ZM18.438 151.997H18.441V152L15 155.441L11.5635 152.006L11.5575 152L11.5635 151.995L12.165 151.392L12.4575 151.1L15 148.559L18.4395 151.998L18.438 151.997Z" fill="white" fill-opacity="0.24"/>
<path fill-rule="evenodd" clip-rule="evenodd" d="M926.279 39.6678C925.785 39.387 925.292 39.1063 924.803 38.8081C924.548 39.2177 924.288 39.6402 924.029 40.0639C923.992 40.1244 923.955 40.1851 923.918 40.2456C923.566 40.8202 923.215 41.3948 922.871 41.9422C922.695 42.1256 922.775 42.2691 922.998 42.3381C923.16 42.435 923.327 42.5333 923.497 42.6334C924.194 43.0438 924.944 43.4858 925.674 43.9983C926.582 44.6358 926.851 45.7891 926.372 46.5918C923.365 51.8439 920.279 56.9524 917.193 62.061C916.857 62.7892 916.06 63.018 915.231 62.524C914.482 62.1734 913.654 61.6793 912.937 61.2198C912.602 61.1162 912.491 61.0817 912.283 61.3741C911.692 62.1423 910.957 62.9849 910.222 63.8276C910.046 64.011 909.906 64.1758 909.766 64.3406C909.627 64.5054 909.487 64.6702 909.311 64.8536C911.796 66.3356 914.171 67.7836 916.544 69.2311C916.506 69.3587 916.442 69.4372 916.388 69.5021C916.35 69.5481 916.317 69.5873 916.304 69.6324C915.233 71.2033 914.242 72.9177 913.25 74.632C913.075 74.8154 913.042 74.9244 913.345 75.1369C914.397 75.7 915.448 76.2631 916.468 76.9352C916.734 77.1224 916.791 77.0601 916.921 76.9172C916.938 76.8979 916.957 76.8771 916.978 76.8553C917.234 76.3995 917.518 75.9523 917.802 75.505C918.085 75.0578 918.369 74.6106 918.625 74.1548C918.881 73.699 919.165 73.2518 919.448 72.8046C919.732 72.3574 920.016 71.9102 920.272 71.4543C921.212 71.9828 922.04 72.477 922.869 72.971C923.006 73.0993 922.97 73.1738 922.915 73.287C922.894 73.3309 922.87 73.3805 922.852 73.4414C921.781 75.0123 920.79 76.7267 919.798 78.441C919.622 78.6244 919.59 78.7334 919.893 78.9459C920.363 79.2102 920.853 79.5103 921.343 79.8105C921.833 80.1107 922.323 80.4108 922.793 80.6751C923.265 81.0488 923.315 80.9651 923.528 80.6055L923.558 80.5553C924.038 79.7526 924.526 78.9226 925.013 78.0926C925.501 77.2627 925.989 76.4328 926.468 75.6301C926.676 75.3378 926.931 75.2978 927.234 75.5103C929.369 76.5276 931.537 77.4358 933.976 77.8337C935.825 78.1681 937.612 77.8885 939.256 76.8516C940.613 75.9636 941.555 74.8286 942.451 73.4412C943.138 72.3461 943.634 71.073 943.764 69.8053C943.767 68.1418 943.227 66.667 942.177 65.2721C942.002 65.0397 941.819 64.8344 941.636 64.6292C941.452 64.4239 941.269 64.2187 941.094 63.9862C941.225 64.0266 941.329 64.0178 941.414 64.0106C941.475 64.0054 941.527 64.001 941.573 64.0153C942.562 63.9645 943.582 63.8048 944.444 63.3581C945.593 62.7625 946.36 61.8109 947.048 60.7158C948.007 59.1104 948.409 57.3324 947.886 55.3873C947.425 54.056 946.678 52.8737 945.754 51.8747L942.554 49.1012C942.251 48.8887 942.171 48.7452 942.379 48.4528C942.763 47.977 943.035 47.4667 943.307 46.9564C944.026 45.7524 944.746 44.5483 945.497 43.2353C945.441 43.218 945.422 43.1822 945.402 43.1463C945.382 43.1104 945.362 43.0746 945.306 43.0573C944.819 42.7529 944.346 42.4751 943.885 42.2038C943.275 41.8453 942.684 41.4981 942.104 41.1156C941.913 40.9376 941.769 41.012 941.705 41.23L940.986 42.434C940.122 43.7125 939.403 44.9166 938.651 46.2296C938.603 46.2544 938.552 46.2913 938.501 46.3282C938.398 46.4021 938.295 46.4759 938.22 46.4529C937.806 46.2059 937.364 45.95 936.921 45.6943C936.48 45.4387 936.038 45.1832 935.624 44.9362C935.799 44.7528 935.831 44.6439 935.863 44.5349C936.343 43.7322 936.831 42.9023 937.318 42.0723C937.806 41.2424 938.294 40.4124 938.774 39.6097C938.949 39.4263 938.981 39.3174 938.679 39.1048C937.627 38.5418 936.687 38.0132 935.668 37.3411C935.365 37.1286 935.221 37.2031 935.014 37.4954C934.518 38.3526 934.03 39.1826 933.542 40.0125C933.481 40.1162 933.42 40.2209 933.359 40.3247C932.932 41.051 932.505 41.7798 932.071 42.5296C931.863 42.8219 931.72 42.8964 931.417 42.6839C930.852 42.3306 930.278 42.0046 929.705 41.6785C929.131 41.3525 928.557 41.0264 927.992 40.6731C927.426 40.3198 926.853 39.9938 926.279 39.6678ZM922.336 67.3373C922.447 67.3718 922.527 67.5153 922.527 67.5153C922.786 67.67 923.048 67.8283 923.311 67.9879C924.731 68.8472 926.212 69.744 927.785 70.3307C929.091 70.8539 930.319 71.2336 931.674 71.1774C933.987 71.1794 935.681 68.7314 934.967 66.6082C934.665 65.5639 933.933 64.743 933.201 63.922C931.563 62.2613 929.428 61.119 927.381 60.0235L927.195 59.9242C926.92 59.7305 926.869 59.8039 926.704 60.0398C926.688 60.0627 926.671 60.0871 926.653 60.113C926.381 60.6233 926.089 61.0978 925.797 61.5722C925.506 62.0467 925.214 62.5211 924.942 63.0314C924.432 63.822 923.958 64.6238 923.473 65.4442C923.107 66.0636 922.735 66.6935 922.336 67.3373ZM936.27 59.2838C935.792 59.2547 935.202 59.1911 934.979 59.1221C933.684 58.7215 932.616 58.2034 931.513 57.6683C931.095 57.4657 930.672 57.2606 930.23 57.0586C930.023 56.935 929.844 56.8202 929.664 56.7053C929.485 56.5904 929.306 56.4755 929.099 56.352C928.908 56.174 928.828 56.0305 929.004 55.8471C930.347 53.7659 931.546 51.7592 932.777 49.6435C932.985 49.3511 933.129 49.2766 933.431 49.4891C933.738 49.6785 934.042 49.8621 934.342 50.0438C935.555 50.7773 936.714 51.4786 937.812 52.3899C938.688 53.1364 939.5 54.1008 939.769 55.2541C940.339 57.4517 938.518 59.5038 936.27 59.2838Z" fill="white" fill-opacity="0.24"/>
<path fill-rule="evenodd" clip-rule="evenodd" d="M1096.62 400.564V400.562C1096.51 400.57 1095.94 400.604 1094.68 400.604C1093.67 400.604 1092.96 400.574 1092.71 400.562V400.565C1088.82 400.394 1085.92 399.717 1085.92 398.907C1085.92 398.098 1088.82 397.421 1092.71 397.247V399.891C1092.96 399.909 1093.69 399.952 1094.7 399.952C1095.9 399.952 1096.51 399.902 1096.62 399.892V397.249C1100.5 397.422 1103.4 398.099 1103.4 398.907C1103.4 399.717 1100.5 400.392 1096.62 400.564ZM1096.62 396.974V394.608H1102.04V391H1087.3V394.608H1092.71V396.973C1088.31 397.175 1085 398.047 1085 399.091C1085 400.135 1088.31 401.006 1092.71 401.209V408.791H1096.62V401.207C1101.02 401.005 1104.32 400.134 1104.32 399.091C1104.32 398.048 1101.02 397.177 1096.62 396.974Z" fill="white" fill-opacity="0.24"/>
<path fill-rule="evenodd" clip-rule="evenodd" d="M1174.64 290.821L1172.5 291.652L1173.53 287.514L1175.7 286.644L1178.82 274H1186.51L1184.23 283.294L1186.35 282.438L1185.33 286.562L1183.19 287.419L1181.92 292.644H1193.5L1192.19 298H1172.88L1174.64 290.821Z" fill="white" fill-opacity="0.24"/>
<path fill-rule="evenodd" clip-rule="evenodd" d="M1036.75 246.174C1036.75 253.241 1031.01 257.932 1022.54 258.639V265H1016.74V258.576C1011.01 257.93 1005.57 255.729 1001 252.213L1005.27 246.366C1009.07 249.322 1012.67 251.25 1017.01 251.893V239.298C1007.27 236.856 1002.74 233.323 1002.74 226.063C1002.74 219.124 1008.4 214.37 1016.74 213.726V210H1022.54V213.855C1027.08 214.359 1031.4 216.043 1035.08 218.74L1031.35 224.778C1028.41 222.658 1025.41 221.308 1022.28 220.667V232.875C1032.42 235.316 1036.75 239.235 1036.75 246.174ZM1017 231.524V220.216C1012.81 220.538 1010.61 222.788 1010.61 225.615C1010.61 228.31 1011.87 230.048 1017.01 231.527L1017 231.524ZM1028.88 246.622C1028.88 243.734 1027.48 241.999 1022.28 240.519V252.152C1026.48 251.827 1028.88 249.707 1028.88 246.625V246.622Z" fill="white" fill-opacity="0.24"/>
<path fill-rule="evenodd" clip-rule="evenodd" d="M924.867 392C925.019 391.998 925.167 392.069 925.26 392.197L932.926 402.671C932.937 402.686 932.948 402.702 932.957 402.718C932.968 402.737 932.978 402.756 932.986 402.776C932.998 402.805 933.007 402.835 933.013 402.865L936.723 419.808C936.724 419.813 936.725 419.819 936.726 419.824C936.73 419.845 936.733 419.866 936.734 419.887C936.736 419.923 936.734 419.958 936.728 419.994C936.718 420.05 936.699 420.104 936.669 420.155C936.629 420.224 936.574 420.28 936.509 420.32L925.127 427.451C925.048 427.501 924.957 427.525 924.867 427.525C924.777 427.525 924.687 427.501 924.607 427.451L913.225 420.32C913.222 420.318 913.218 420.316 913.214 420.313C913.203 420.306 913.192 420.298 913.182 420.289C913.144 420.259 913.11 420.223 913.082 420.182C913.076 420.173 913.071 420.164 913.065 420.155C913.043 420.117 913.027 420.077 913.016 420.035C913 419.976 912.996 419.915 913.004 419.855C913.005 419.84 913.008 419.825 913.011 419.811M915.15 420.394L924.007 425.943L922.24 420.394H915.15ZM923.247 420.394L924.867 425.479L926.487 420.394H923.247ZM926.792 419.434H922.942L919.834 409.676L924.867 400.794L929.9 409.674L926.792 419.434ZM927.494 420.394L925.727 425.943L934.584 420.394H927.494ZM935.431 419.434H927.8L930.545 410.813L935.431 419.434ZM935.106 416.914L932.456 404.811L930.942 409.566L935.106 416.914ZM930.297 408.428L932.011 403.046L925.353 393.949V399.703L930.297 408.428ZM924.867 392C924.715 391.998 924.568 392.069 924.475 392.197L916.807 402.671C916.797 402.684 916.787 402.699 916.779 402.713C916.77 402.728 916.762 402.744 916.755 402.759C916.739 402.793 916.727 402.829 916.72 402.865L913.012 419.808M917.277 404.811L914.628 416.915L918.792 409.567L917.277 404.811ZM917.722 403.046L919.437 408.429L924.382 399.703V393.948L917.722 403.046ZM919.189 410.814L921.934 419.434H914.304L919.189 410.814Z" fill="white" fill-opacity="0.24"/>
<path fill-rule="evenodd" clip-rule="evenodd" d="M1114.13 120.472V116.974C1114.13 111.46 1117.46 108 1123.24 108C1127.64 108 1130.1 109.863 1132 112.26L1128.28 115.11C1126.85 113.362 1125.5 112.335 1123.28 112.335C1120.63 112.335 1119.04 114.161 1119.04 117.09V120.472H1128.91V124.428H1119.04V130.931H1131.92V135H1111V132.035L1114.13 131.121V124.428H1111V120.472H1114.13Z" fill="white" fill-opacity="0.24"/>
<path d="M894.745 205.266C893.946 204.699 893.091 204.094 892.255 203.494C892.236 203.48 892.218 203.466 892.195 203.452C892.097 203.372 891.986 203.309 891.867 203.265L891.857 203.26C889.62 202.711 887.384 202.16 885.148 201.606L879.164 200.129L879.007 200.087C878.827 200.036 878.619 199.979 878.397 200.007C878.336 200.017 878.278 200.039 878.227 200.073L878.171 200.12C878.101 200.192 878.047 200.279 878.014 200.373L878 200.411V200.626L878.01 200.659C879.27 204.244 880.564 207.881 881.812 211.4C882.773 214.11 883.772 216.916 884.746 219.672C884.806 219.859 884.977 219.982 885.19 220H885.236C885.329 220.003 885.421 219.98 885.502 219.935C885.584 219.889 885.651 219.823 885.698 219.742L889.358 214.329C890.249 213.012 891.141 211.691 892.033 210.374L893.128 208.752C893.728 207.862 894.348 206.943 894.963 206.048L894.995 206.002V205.945C895.009 205.781 895.013 205.444 894.745 205.265V205.266ZM890.457 207.239C889.597 207.693 888.72 208.162 887.837 208.626L889.381 206.948C890.023 206.245 890.693 205.518 891.349 204.806L891.363 204.792C891.418 204.717 891.488 204.647 891.562 204.572C891.612 204.521 891.668 204.469 891.719 204.408C892.061 204.648 892.407 204.891 892.74 205.13C892.98 205.303 893.225 205.477 893.475 205.65C892.465 206.173 891.459 206.703 890.457 207.239ZM888.249 207.014C887.588 207.74 886.904 208.485 886.225 209.221C884.907 207.6 883.586 205.982 882.26 204.366L880.481 202.196L880.477 202.191C880.343 202.037 880.213 201.868 880.084 201.709C880.001 201.601 879.913 201.498 879.825 201.39C880.361 201.53 880.902 201.662 881.433 201.788C881.9 201.901 882.385 202.018 882.861 202.14L890.906 204.122C890.014 205.088 889.117 206.067 888.249 207.014ZM885.924 216.148C885.975 215.656 886.031 215.15 886.077 214.653C886.119 214.254 886.16 213.847 886.202 213.458C886.266 212.834 886.336 212.188 886.392 211.555L886.405 211.443C886.451 211.039 886.497 210.623 886.525 210.205C886.579 210.175 886.635 210.148 886.692 210.125C886.761 210.093 886.83 210.065 886.899 210.023C887.966 209.455 889.035 208.889 890.106 208.326C891.174 207.764 892.269 207.182 893.355 206.606C892.37 208.054 891.388 209.504 890.411 210.956C889.584 212.178 888.734 213.439 887.888 214.681C887.556 215.178 887.209 215.684 886.881 216.171C886.511 216.715 886.132 217.272 885.763 217.831C885.809 217.268 885.864 216.701 885.924 216.148ZM879.484 202.496C879.424 202.327 879.358 202.154 879.303 201.99C880.551 203.518 881.807 205.055 883.032 206.545C883.665 207.318 884.298 208.087 884.931 208.865C885.056 209.01 885.181 209.165 885.301 209.315C885.458 209.507 885.615 209.709 885.786 209.901C885.73 210.383 885.684 210.871 885.633 211.339C885.601 211.667 885.569 211.996 885.532 212.329V212.333C885.518 212.543 885.49 212.755 885.467 212.961L885.361 213.894L885.356 213.926C885.273 214.873 885.171 215.829 885.074 216.757C885.033 217.141 884.996 217.535 884.954 217.929C884.931 217.859 884.904 217.788 884.88 217.722C884.81 217.531 884.742 217.339 884.677 217.146L884.182 215.754L879.483 202.496" fill="white" fill-opacity="0.24"/>
<g filter="url(#filter0_d)">
<path d="M141.587 192.09C142.306 191.719 143.183 192.576 142.802 193.282C142.579 193.858 141.737 194.011 141.308 193.572C140.854 193.152 141.002 192.318 141.587 192.088V192.09ZM133.855 192.909C134.291 192.732 134.845 193.125 134.8 193.594C134.845 194.101 134.215 194.476 133.769 194.235C133.18 194.01 133.247 193.068 133.855 192.909ZM149.692 194.248C149.009 194.167 148.901 193.111 149.557 192.898C150.067 192.655 150.535 193.113 150.61 193.588C150.502 193.993 150.157 194.365 149.692 194.248ZM135.614 196.146C136.345 195.691 137.386 196.368 137.273 197.203C137.236 198.045 136.099 198.534 135.457 197.964C134.836 197.517 134.93 196.491 135.614 196.146ZM146.759 196.629C147.085 195.804 148.405 195.777 148.775 196.581C149.143 197.206 148.691 197.982 148.039 198.195C147.173 198.354 146.353 197.433 146.759 196.629ZM140.656 198.148C140.648 197.437 141.305 196.909 141.991 196.86C142.447 196.95 142.942 197.14 143.137 197.592C143.501 198.216 143.177 199.072 142.522 199.359C142.222 199.524 141.865 199.462 141.538 199.443C141.038 199.203 140.617 198.727 140.656 198.148ZM129.157 199.183C129.824 198.778 130.724 199.513 130.471 200.227C130.333 200.844 129.49 201.094 129.008 200.701C128.494 200.332 128.575 199.446 129.158 199.182L129.157 199.183ZM153.85 199.18C154.415 198.748 155.35 199.245 155.281 199.947C155.32 200.587 154.511 201.072 153.95 200.742C153.332 200.467 153.268 199.531 153.85 199.182V199.18ZM143.89 200.457C144.823 200.127 145.933 200.521 146.464 201.342C147.166 202.342 146.794 203.866 145.703 204.441C144.575 205.12 142.927 204.546 142.508 203.304C142.036 202.194 142.726 200.805 143.888 200.457H143.89ZM138.41 200.566C139.445 200.086 140.839 200.488 141.338 201.529C141.926 202.543 141.472 203.955 140.42 204.478C139.367 205.068 137.881 204.621 137.372 203.533C136.801 202.48 137.308 201.051 138.41 200.566ZM132.925 202.41C133.004 201.754 133.633 201.327 134.267 201.282C134.598 201.317 134.907 201.463 135.145 201.696C135.382 201.93 135.532 202.237 135.572 202.567C135.527 203.242 134.998 203.899 134.272 203.896C133.472 203.964 132.772 203.181 132.925 202.41ZM149.128 201.426C149.948 200.956 151.087 201.639 151.051 202.566C151.106 203.548 149.846 204.24 149.03 203.664C148.181 203.184 148.247 201.834 149.128 201.426ZM136.183 204.886C137.14 204.627 138.238 205.071 138.707 205.938C139.222 206.811 139.012 208.023 138.212 208.665C137.185 209.604 135.293 209.226 134.747 207.945C134.119 206.77 134.882 205.195 136.181 204.885L136.183 204.886ZM146.573 204.882C147.505 204.619 148.6 204.972 149.101 205.807C149.764 206.763 149.447 208.189 148.462 208.804C147.427 209.52 145.828 209.145 145.258 208.026C144.568 206.869 145.262 205.234 146.573 204.882ZM130.013 205.971C130.841 205.663 131.759 206.562 131.423 207.37C131.219 208.105 130.165 208.378 129.62 207.835C128.983 207.325 129.218 206.193 130.013 205.971ZM152.467 207.144C152.451 206.814 152.567 206.491 152.788 206.245C153.009 206 153.319 205.851 153.649 205.833C154.216 205.923 154.768 206.373 154.723 206.98C154.775 207.783 153.793 208.327 153.097 207.951C152.771 207.787 152.605 207.459 152.467 207.144ZM125.941 206.37C126.439 206.155 127.055 206.58 126.941 207.124C126.914 207.741 125.989 207.979 125.65 207.463C125.35 207.105 125.53 206.554 125.941 206.368V206.37ZM157.364 206.356C157.715 206.112 158.279 206.287 158.417 206.691C158.653 207.132 158.221 207.735 157.717 207.661C157.009 207.724 156.781 206.664 157.364 206.356ZM138.889 209.316C140.2 208.981 141.61 210.057 141.619 211.386C141.703 212.728 140.314 213.918 138.973 213.609C137.935 213.444 137.12 212.46 137.155 211.429C137.152 210.442 137.908 209.524 138.889 209.316ZM144.082 209.314C145.412 208.948 146.864 210.043 146.843 211.402C146.914 212.719 145.568 213.87 144.254 213.607C143.017 213.451 142.105 212.115 142.45 210.933C142.624 210.147 143.293 209.508 144.082 209.313V209.314ZM134.068 210.132C134.989 209.977 135.853 210.987 135.479 211.848C135.206 212.766 133.85 213.013 133.25 212.265C132.548 211.545 133.073 210.231 134.068 210.132ZM149.299 210.172C150.121 209.833 151.129 210.532 151.066 211.41C151.099 212.374 149.854 213.04 149.051 212.476C148.141 211.971 148.307 210.481 149.299 210.172ZM153.556 214.372C153.235 213.783 153.818 213.001 154.486 213.111C154.816 213.105 155.048 213.361 155.26 213.577C155.303 213.927 155.377 214.344 155.081 214.612C154.681 215.112 153.773 214.969 153.556 214.372ZM129.154 213.274C129.776 212.868 130.672 213.475 130.531 214.189C130.456 214.824 129.646 215.185 129.113 214.825C128.54 214.5 128.561 213.571 129.154 213.274ZM141.443 214.599C142.258 214.246 143.296 214.944 143.218 215.826C143.278 216.801 141.995 217.476 141.199 216.891C140.314 216.388 140.462 214.909 141.443 214.599ZM135.752 215.905C136.445 215.547 137.375 216.166 137.312 216.931C137.333 217.558 136.712 218.092 136.082 217.999C135.562 217.989 135.223 217.528 135.055 217.092C135.064 216.616 135.263 216.087 135.752 215.907V215.905ZM147.281 215.917C147.995 215.482 149.009 216.106 148.942 216.922C148.96 217.777 147.814 218.323 147.149 217.762C146.507 217.323 146.585 216.267 147.281 215.917ZM149.287 220.792C148.969 220.321 149.342 219.753 149.857 219.645C150.272 219.727 150.712 220.035 150.623 220.506C150.563 221.146 149.612 221.341 149.287 220.794V220.792ZM133.37 220.383C133.496 220.008 133.802 219.637 134.251 219.735C134.903 219.78 135.097 220.749 134.525 221.047C134.012 221.388 133.415 220.921 133.37 220.383ZM141.05 220.813C141.175 220.258 141.902 219.99 142.382 220.284C142.7 220.419 142.793 220.767 142.874 221.064C142.832 221.218 142.792 221.373 142.754 221.529C142.558 221.757 142.304 221.986 141.977 221.979C141.37 222.049 140.821 221.373 141.049 220.813H141.05Z" fill="white" fill-opacity="0.24"/>
</g>
<path d="M141.587 192.09C142.306 191.719 143.183 192.576 142.802 193.282C142.579 193.858 141.737 194.011 141.308 193.572C140.854 193.152 141.002 192.318 141.587 192.088V192.09ZM133.855 192.909C134.291 192.732 134.845 193.125 134.8 193.594C134.845 194.101 134.215 194.476 133.769 194.235C133.18 194.01 133.247 193.068 133.855 192.909ZM149.692 194.248C149.009 194.167 148.901 193.111 149.557 192.898C150.067 192.655 150.535 193.113 150.61 193.588C150.502 193.993 150.157 194.365 149.692 194.248ZM135.614 196.146C136.345 195.691 137.386 196.368 137.273 197.203C137.236 198.045 136.099 198.534 135.457 197.964C134.836 197.517 134.93 196.491 135.614 196.146ZM146.759 196.629C147.085 195.804 148.405 195.777 148.775 196.581C149.143 197.206 148.691 197.982 148.039 198.195C147.173 198.354 146.353 197.433 146.759 196.629ZM140.656 198.148C140.648 197.437 141.305 196.909 141.991 196.86C142.447 196.95 142.942 197.14 143.137 197.592C143.501 198.216 143.177 199.072 142.522 199.359C142.222 199.524 141.865 199.462 141.538 199.443C141.038 199.203 140.617 198.727 140.656 198.148ZM129.157 199.183C129.824 198.778 130.724 199.513 130.471 200.227C130.333 200.844 129.49 201.094 129.008 200.701C128.494 200.332 128.575 199.446 129.158 199.182L129.157 199.183ZM153.85 199.18C154.415 198.748 155.35 199.245 155.281 199.947C155.32 200.587 154.511 201.072 153.95 200.742C153.332 200.467 153.268 199.531 153.85 199.182V199.18ZM143.89 200.457C144.823 200.127 145.933 200.521 146.464 201.342C147.166 202.342 146.794 203.866 145.703 204.441C144.575 205.12 142.927 204.546 142.508 203.304C142.036 202.194 142.726 200.805 143.888 200.457H143.89ZM138.41 200.566C139.445 200.086 140.839 200.488 141.338 201.529C141.926 202.543 141.472 203.955 140.42 204.478C139.367 205.068 137.881 204.621 137.372 203.533C136.801 202.48 137.308 201.051 138.41 200.566ZM132.925 202.41C133.004 201.754 133.633 201.327 134.267 201.282C134.598 201.317 134.907 201.463 135.145 201.696C135.382 201.93 135.532 202.237 135.572 202.567C135.527 203.242 134.998 203.899 134.272 203.896C133.472 203.964 132.772 203.181 132.925 202.41ZM149.128 201.426C149.948 200.956 151.087 201.639 151.051 202.566C151.106 203.548 149.846 204.24 149.03 203.664C148.181 203.184 148.247 201.834 149.128 201.426ZM136.183 204.886C137.14 204.627 138.238 205.071 138.707 205.938C139.222 206.811 139.012 208.023 138.212 208.665C137.185 209.604 135.293 209.226 134.747 207.945C134.119 206.77 134.882 205.195 136.181 204.885L136.183 204.886ZM146.573 204.882C147.505 204.619 148.6 204.972 149.101 205.807C149.764 206.763 149.447 208.189 148.462 208.804C147.427 209.52 145.828 209.145 145.258 208.026C144.568 206.869 145.262 205.234 146.573 204.882ZM130.013 205.971C130.841 205.663 131.759 206.562 131.423 207.37C131.219 208.105 130.165 208.378 129.62 207.835C128.983 207.325 129.218 206.193 130.013 205.971ZM152.467 207.144C152.451 206.814 152.567 206.491 152.788 206.245C153.009 206 153.319 205.851 153.649 205.833C154.216 205.923 154.768 206.373 154.723 206.98C154.775 207.783 153.793 208.327 153.097 207.951C152.771 207.787 152.605 207.459 152.467 207.144ZM125.941 206.37C126.439 206.155 127.055 206.58 126.941 207.124C126.914 207.741 125.989 207.979 125.65 207.463C125.35 207.105 125.53 206.554 125.941 206.368V206.37ZM157.364 206.356C157.715 206.112 158.279 206.287 158.417 206.691C158.653 207.132 158.221 207.735 157.717 207.661C157.009 207.724 156.781 206.664 157.364 206.356ZM138.889 209.316C140.2 208.981 141.61 210.057 141.619 211.386C141.703 212.728 140.314 213.918 138.973 213.609C137.935 213.444 137.12 212.46 137.155 211.429C137.152 210.442 137.908 209.524 138.889 209.316ZM144.082 209.314C145.412 208.948 146.864 210.043 146.843 211.402C146.914 212.719 145.568 213.87 144.254 213.607C143.017 213.451 142.105 212.115 142.45 210.933C142.624 210.147 143.293 209.508 144.082 209.313V209.314ZM134.068 210.132C134.989 209.977 135.853 210.987 135.479 211.848C135.206 212.766 133.85 213.013 133.25 212.265C132.548 211.545 133.073 210.231 134.068 210.132ZM149.299 210.172C150.121 209.833 151.129 210.532 151.066 211.41C151.099 212.374 149.854 213.04 149.051 212.476C148.141 211.971 148.307 210.481 149.299 210.172ZM153.556 214.372C153.235 213.783 153.818 213.001 154.486 213.111C154.816 213.105 155.048 213.361 155.26 213.577C155.303 213.927 155.377 214.344 155.081 214.612C154.681 215.112 153.773 214.969 153.556 214.372ZM129.154 213.274C129.776 212.868 130.672 213.475 130.531 214.189C130.456 214.824 129.646 215.185 129.113 214.825C128.54 214.5 128.561 213.571 129.154 213.274ZM141.443 214.599C142.258 214.246 143.296 214.944 143.218 215.826C143.278 216.801 141.995 217.476 141.199 216.891C140.314 216.388 140.462 214.909 141.443 214.599ZM135.752 215.905C136.445 215.547 137.375 216.166 137.312 216.931C137.333 217.558 136.712 218.092 136.082 217.999C135.562 217.989 135.223 217.528 135.055 217.092C135.064 216.616 135.263 216.087 135.752 215.907V215.905ZM147.281 215.917C147.995 215.482 149.009 216.106 148.942 216.922C148.96 217.777 147.814 218.323 147.149 217.762C146.507 217.323 146.585 216.267 147.281 215.917ZM149.287 220.792C148.969 220.321 149.342 219.753 149.857 219.645C150.272 219.727 150.712 220.035 150.623 220.506C150.563 221.146 149.612 221.341 149.287 220.794V220.792ZM133.37 220.383C133.496 220.008 133.802 219.637 134.251 219.735C134.903 219.78 135.097 220.749 134.525 221.047C134.012 221.388 133.415 220.921 133.37 220.383ZM141.05 220.813C141.175 220.258 141.902 219.99 142.382 220.284C142.7 220.419 142.793 220.767 142.874 221.064C142.832 221.218 142.792 221.373 142.754 221.529C142.558 221.757 142.304 221.986 141.977 221.979C141.37 222.049 140.821 221.373 141.049 220.813H141.05Z" fill="white" fill-opacity="0.24"/>
<path d="M1166 208.58L1159.01 205.322V198.102L1166 195.623V208.58ZM1155.82 212L1149 208.821V195.958L1155.82 199.138V212ZM1165.83 195.157L1165.72 195.197L1159.01 197.578L1158.84 197.638L1156 198.646L1149.27 195.51L1158.84 192.114L1158.93 192.084L1159.1 192.021L1159.17 192L1165.9 195.136L1165.83 195.157H1165.83Z" fill="white" fill-opacity="0.24"/>
<defs>
<filter id="filter0_d" x="124.5" y="191.5" width="34.9829" height="31.9835" filterUnits="userSpaceOnUse" color-interpolation-filters="sRGB">
<feFlood flood-opacity="0" result="BackgroundImageFix"/>
<feColorMatrix in="SourceAlpha" type="matrix" values="0 0 0 0 0 0 0 0 0 0 0 0 0 0 0 0 0 0 127 0"/>
<feOffset dy="0.5"/>
<feGaussianBlur stdDeviation="0.5"/>
<feColorMatrix type="matrix" values="0 0 0 0 0 0 0 0 0 0 0 0 0 0 0 0 0 0 0.204257 0"/>
<feBlend mode="normal" in2="BackgroundImageFix" result="effect1_dropShadow"/>
<feBlend mode="normal" in="SourceGraphic" in2="effect1_dropShadow" result="shape"/>
</filter>
</defs>
</svg>
