<svg width="34" height="34" viewBox="0 0 34 34" fill="none" xmlns="http://www.w3.org/2000/svg">
<path d="M28.2189 7.3191C28.839 6.699 29.8996 6.73772 30.4192 7.50308C34.7791 13.9253 34.112 22.7276 28.4189 28.4206C22.7252 34.1144 13.923 34.7803 7.50137 30.4208C6.73601 29.9013 6.6973 28.8407 7.31739 28.2206C7.84469 27.6933 8.65753 27.6565 9.24722 28.0486C14.5115 31.5486 21.7022 30.9786 26.3396 26.3413C30.9767 21.7041 31.5468 14.5133 28.0468 9.24894C27.6548 8.65925 27.6916 7.8464 28.2189 7.3191Z" fill="#0057FF" fill-opacity="0.2"/>
<path d="M6.56227 6.56226C1.75318 11.3713 1.16314 18.8266 4.79215 24.285C5.06293 24.6922 5.02877 25.2386 4.68294 25.5844C4.26757 25.9998 3.57984 25.9592 3.2499 25.4732C-0.97768 19.2458 -0.330385 10.7104 5.19 5.18999C10.7111 -0.331074 19.2465 -0.977173 25.4732 3.24991C25.9592 3.57984 25.9998 4.26757 25.5844 4.68294C25.2386 5.02876 24.6922 5.06292 24.285 4.79214C18.8266 1.1631 11.3715 1.75302 6.56227 6.56226Z" fill="#0057FF"/>
<path fill-rule="evenodd" clip-rule="evenodd" d="M5.0365 25.938C4.4164 26.5581 3.3558 26.5194 2.83622 25.754C-1.5237 19.3317 -0.856609 10.5295 4.83645 4.83644C10.5302 -0.857323 19.3324 -1.52317 25.754 2.83623C26.5194 3.35581 26.5581 4.4164 25.938 5.0365C25.4107 5.5638 24.5978 5.60058 24.0082 5.20852C18.7438 1.70849 11.5531 2.2785 6.91582 6.91582C2.27866 11.553 1.70854 18.7438 5.20853 24.0081C5.60059 24.5978 5.5638 25.4107 5.0365 25.938ZM3.66358 25.1923C3.80387 25.399 4.11874 25.4415 4.32939 25.2309C4.49374 25.0665 4.52527 24.7866 4.37578 24.5618C0.617748 18.9093 1.2277 11.1897 6.20871 6.20871C11.1899 1.22754 18.9094 0.617706 24.5618 4.37577C24.7867 4.52526 25.0665 4.49373 25.2309 4.32939C25.4415 4.11874 25.399 3.80388 25.1923 3.66359C19.1605 -0.431171 10.8919 0.195179 5.54355 5.54355C0.195839 10.8913 -0.431658 19.16 3.66358 25.1923Z" fill="#0057FF"/>
<path d="M16.5033 26.04C17.1393 26.04 17.655 25.5245 17.655 24.8885V23.2506H18.6019C20.7751 23.2506 22.5428 21.4825 22.5428 19.3094C22.5428 17.9105 21.8097 16.6805 20.7078 15.9808C21.1538 15.3422 21.4163 14.5668 21.4163 13.7306C21.4163 11.6177 19.7447 9.88851 17.655 9.79405V8.15146C17.655 7.51546 17.1393 7 16.5033 7C15.8673 7 15.3518 7.51546 15.3518 8.15146V9.78942H13.1515C12.5155 9.78942 12 10.3052 12 10.9412C12 11.5612 12 21.4788 12 22.0988C12 22.7348 12.5155 23.2506 13.1515 23.2506H15.3518V24.8885C15.3518 25.5245 15.8673 26.04 16.5033 26.04ZM14.3032 12.0926H17.4751C18.3782 12.0926 19.1131 12.8274 19.1131 13.7306C19.1131 14.6337 18.3782 15.3682 17.4751 15.3682H14.3032V12.0926ZM14.3032 17.6715C14.8758 17.6715 18.1415 17.6715 18.6019 17.6715C19.5051 17.6715 20.2396 18.4063 20.2396 19.3094C20.2396 20.2126 19.5051 20.9474 18.6019 20.9474H14.3032V17.6715Z" fill="#0057FF"/>
</svg>
