<svg width="32" height="32" viewBox="0 0 32 32" fill="none" xmlns="http://www.w3.org/2000/svg">
<path d="M15.9998 3.58667L23.5465 11.1333C25.039 12.6248 26.0556 14.5254 26.4677 16.5947C26.8799 18.6641 26.669 20.8091 25.8619 22.7586C25.0548 24.7081 23.6876 26.3744 21.9333 27.5468C20.1791 28.7192 18.1165 29.3449 16.0065 29.3449C13.8966 29.3449 11.834 28.7192 10.0797 27.5468C8.32543 26.3744 6.95826 24.7081 6.15113 22.7586C5.344 20.8091 5.13317 18.6641 5.54532 16.5947C5.95746 14.5254 6.97406 12.6248 8.46652 11.1333L15.9998 3.58667Z" stroke="#0057FF" stroke-width="3" stroke-linecap="round" stroke-linejoin="round"/>
<path d="M26.4677 16.5947C26.8799 18.664 26.669 20.8091 25.8619 22.7586C25.0548 24.7081 23.6876 26.3744 21.9333 27.5468C20.1791 28.7192 18.1165 29.3449 16.0065 29.3449C13.8966 29.3449 11.834 28.7192 10.0797 27.5468C8.32543 26.3744 6.95826 24.7081 6.15113 22.7586C5.344 20.8091 5.13317 18.664 5.54532 16.5947C5.54532 16.5947 8.46652 21.5 15.9998 21.5C23.5332 21.5 26.4677 16.5947 26.4677 16.5947Z" fill="#0057FF" fill-opacity="0.2"/>
</svg>
