<svg width="32" height="32" viewBox="0 0 32 32" fill="none" xmlns="http://www.w3.org/2000/svg">
<path d="M18.6666 2.66675H7.99992C7.29267 2.66675 6.6144 2.9477 6.1143 3.4478C5.6142 3.94789 5.33325 4.62617 5.33325 5.33341V26.6667C5.33325 27.374 5.6142 28.0523 6.1143 28.5524C6.6144 29.0525 7.29267 29.3334 7.99992 29.3334H23.9999C24.7072 29.3334 25.3854 29.0525 25.8855 28.5524C26.3856 28.0523 26.6666 27.374 26.6666 26.6667V10.6667L18.6666 2.66675Z" stroke="#0057FF" stroke-width="3" stroke-linecap="round" stroke-linejoin="round"/>
<path d="M18.6667 2.66675V10.6667H26.6667" stroke="#0057FF" stroke-width="3" stroke-linecap="round" stroke-linejoin="round"/>
<path d="M21.3334 17.3333H10.6667" stroke="#0057FF" stroke-opacity="0.2" stroke-width="3" stroke-linecap="round" stroke-linejoin="round"/>
<path d="M21.3334 22.6667H10.6667" stroke="#0057FF" stroke-opacity="0.2" stroke-width="3" stroke-linecap="round" stroke-linejoin="round"/>
<path d="M13.3334 12H12.0001H10.6667" stroke="#0057FF" stroke-opacity="0.2" stroke-width="3" stroke-linecap="round" stroke-linejoin="round"/>
</svg>
