<svg width="32" height="32" viewBox="0 0 32 32" fill="none" xmlns="http://www.w3.org/2000/svg">
<path d="M16 32C24.8366 32 32 24.8366 32 16C32 7.16344 24.8366 0 16 0C7.16344 0 0 7.16344 0 16C0 24.8366 7.16344 32 16 32Z" fill="white"/>
<path d="M24.745 12.2659C23.946 11.6989 23.091 11.0939 22.255 10.4939C22.236 10.4799 22.218 10.4659 22.195 10.4519C22.097 10.3715 21.9861 10.3082 21.867 10.2649L21.857 10.2599C19.6201 9.71098 17.3837 9.15965 15.148 8.6059L9.164 7.1289L9.007 7.0869C8.827 7.0359 8.619 6.9789 8.397 7.0069C8.33619 7.01622 8.27816 7.03875 8.227 7.0729L8.171 7.1199C8.10088 7.1918 8.0473 7.27815 8.014 7.3729L8 7.4109V7.6259L8.01 7.6589C9.27 11.2439 10.564 14.8809 11.812 18.3999C12.773 21.1099 13.772 23.9159 14.746 26.6719C14.806 26.8589 14.977 26.9819 15.19 26.9999H15.236C15.3291 27.0023 15.4211 26.9796 15.5024 26.9342C15.5836 26.8888 15.6512 26.8224 15.698 26.7419L19.358 21.3289C20.249 20.0119 21.141 18.6909 22.033 17.3739L23.128 15.7519C23.728 14.8619 24.348 13.9429 24.963 13.0479L24.995 13.0019V12.9449C25.009 12.7809 25.013 12.4439 24.745 12.2649V12.2659ZM20.457 14.2389C19.597 14.6929 18.72 15.1619 17.837 15.6259L19.381 13.9479C20.023 13.2449 20.693 12.5179 21.349 11.8059L21.363 11.7919C21.418 11.7169 21.488 11.6469 21.562 11.5719C21.612 11.5209 21.668 11.4689 21.719 11.4079C22.061 11.6479 22.407 11.8909 22.74 12.1299C22.98 12.3029 23.225 12.4769 23.475 12.6499C22.4655 13.1729 21.4595 13.7026 20.457 14.2389ZM18.249 14.0139C17.588 14.7399 16.904 15.4849 16.225 16.2209C14.9072 14.5994 13.5855 12.9811 12.26 11.3659L10.481 9.1959L10.477 9.1909C10.343 9.0369 10.213 8.8679 10.084 8.7089C10.001 8.6009 9.913 8.4979 9.825 8.3899C10.361 8.5299 10.902 8.6619 11.433 8.7879C11.9 8.9009 12.385 9.0179 12.861 9.1399L20.906 11.1219C20.014 12.0879 19.117 13.0669 18.249 14.0139ZM15.924 23.1479C15.975 22.6559 16.031 22.1499 16.077 21.6529C16.119 21.2539 16.16 20.8469 16.202 20.4579C16.266 19.8339 16.336 19.1879 16.392 18.5549L16.405 18.4429C16.451 18.0389 16.497 17.6229 16.525 17.2049C16.5788 17.1745 16.6346 17.1478 16.692 17.1249C16.761 17.0929 16.83 17.0649 16.899 17.0229C17.9663 16.4541 19.0353 15.8884 20.106 15.3259C21.174 14.7639 22.269 14.1819 23.355 13.6059C22.3696 15.0531 21.3883 16.5032 20.411 17.9559C19.584 19.1779 18.734 20.4389 17.888 21.6809C17.556 22.1779 17.209 22.6839 16.881 23.1709C16.511 23.7149 16.132 24.2719 15.763 24.8309C15.809 24.2679 15.864 23.7009 15.924 23.1479ZM9.484 9.4959C9.424 9.3269 9.358 9.1539 9.303 8.9899C10.551 10.5179 11.807 12.0549 13.032 13.5449C13.665 14.3179 14.298 15.0869 14.931 15.8649C15.056 16.0099 15.181 16.1649 15.301 16.3149C15.458 16.5069 15.615 16.7089 15.786 16.9009C15.73 17.3829 15.684 17.8709 15.633 18.3389C15.601 18.6669 15.569 18.9959 15.532 19.3289V19.3329C15.518 19.5429 15.49 19.7549 15.467 19.9609L15.361 20.8939L15.356 20.9259C15.273 21.8729 15.171 22.8289 15.074 23.7569C15.033 24.1409 14.996 24.5349 14.954 24.9289C14.931 24.8589 14.904 24.7879 14.88 24.7219C14.8096 24.5309 14.7419 24.3389 14.677 24.1459L14.182 22.7539L9.483 9.4959" fill="#101417"/>
</svg>
