<svg width="88" height="88" viewBox="0 0 88 88" fill="none" xmlns="http://www.w3.org/2000/svg">
<rect width="88" height="88" rx="44" fill="white"/>
<path d="M37.3718 22.5741L37.3961 22.589C37.2443 22.6413 37.276 22.6246 37.3718 22.5741Z" fill="#F89B2B"/>
<path fill-rule="evenodd" clip-rule="evenodd" d="M37.6084 22.7183C37.6623 22.6305 37.7161 22.5433 37.7697 22.4568C37.591 22.5205 37.471 22.5632 37.3961 22.589C37.4667 22.6325 37.5375 22.6756 37.6084 22.7183ZM37.6084 22.7183C37.3192 23.1888 37.0252 23.6757 36.7313 24.1625C36.3825 24.7402 36.0337 25.318 35.6928 25.8683C35.5181 26.0531 35.5982 26.1962 35.8214 26.2637C35.9842 26.3595 36.1513 26.4567 36.3215 26.5557C37.0193 26.9614 37.7711 27.3986 38.5025 27.9063C39.4124 28.538 39.6866 29.6903 39.211 30.4969C36.2316 35.7742 33.1721 40.9083 30.1126 46.0425C29.7802 46.7737 28.9844 47.0083 28.1546 46.5196C27.4048 46.174 26.575 45.6854 25.8568 45.2306C25.522 45.1293 25.4104 45.0955 25.2042 45.3896C24.617 46.1625 23.8867 47.011 23.1564 47.8594C22.9817 48.0442 22.8428 48.2101 22.7039 48.376C22.565 48.5419 22.4261 48.7079 22.2514 48.8926C24.7408 50.3585 27.1186 51.7906 29.4964 53.2227C29.4594 53.3507 29.395 53.4297 29.3416 53.4951C29.3039 53.5413 29.2717 53.5808 29.2586 53.6261C28.1959 55.2057 27.2133 56.9283 26.2306 58.651C26.0559 58.8358 26.0244 58.945 26.3277 59.1556C27.3807 59.7117 28.4338 60.2679 29.4552 60.9333C29.7224 61.1188 29.7787 61.056 29.9078 60.9121C29.9252 60.8927 29.944 60.8718 29.9647 60.8498C30.2183 60.3918 30.4997 59.9422 30.7812 59.4927C31.0626 59.0432 31.3441 58.5936 31.5976 58.1356C31.8512 57.6777 32.1326 57.2281 32.4141 56.7786C32.6955 56.329 32.9769 55.8795 33.2305 55.4215C34.1717 55.9438 35.0013 56.4323 35.831 56.9208C35.9691 57.0482 35.9339 57.1234 35.8795 57.237C35.8584 57.2811 35.8346 57.331 35.8169 57.392C34.7542 58.9716 33.7716 60.6943 32.789 62.4169C32.6143 62.6017 32.5827 62.711 32.886 62.9215C33.3567 63.1827 33.8474 63.4797 34.3382 63.7766C34.8289 64.0735 35.3196 64.3705 35.7903 64.6317C36.264 65.0024 36.3133 64.9183 36.525 64.5569L36.5546 64.5064C37.0302 63.6997 37.5136 62.8657 37.997 62.0317C38.4805 61.1977 38.9639 60.3637 39.4394 59.557C39.6457 59.263 39.9004 59.2212 40.2037 59.4318C42.3413 60.4348 44.5104 61.3285 46.9489 61.7096C48.7977 62.0312 50.581 61.7389 52.2188 60.6896C53.5702 59.7914 54.5068 58.6489 55.3948 57.2541C56.0766 56.1533 56.5667 54.8758 56.6904 53.6063C56.6855 51.9414 56.1396 50.4693 55.0841 49.0807C54.9082 48.8492 54.7244 48.6451 54.5406 48.441C54.3568 48.2369 54.173 48.0328 53.9971 47.8014C54.1279 47.8409 54.2312 47.8314 54.3167 47.8235C54.3772 47.8179 54.4289 47.8131 54.4751 47.8271C55.4626 47.7694 56.4816 47.6023 57.3406 47.1492C58.4858 46.5451 59.2476 45.5874 59.9294 44.4866C60.8805 42.8733 61.2735 41.0911 60.7421 39.1481C60.2763 37.8191 59.5241 36.641 58.5972 35.6478L55.3872 32.8946C55.0839 32.6841 55.0039 32.541 55.2101 32.247C55.591 31.7681 55.8603 31.2555 56.1296 30.7429C56.8429 29.5329 57.5563 28.3228 58.3011 27.0035C58.2453 26.9866 58.2253 26.9509 58.2053 26.9151C58.1853 26.8793 58.1653 26.8436 58.1095 26.8267C57.6213 26.5255 57.148 26.2508 56.6857 25.9825C56.0749 25.6281 55.4833 25.2847 54.9019 24.906C54.7102 24.7292 54.567 24.8047 54.504 25.0233L53.7906 26.2333C52.9342 27.5188 52.2208 28.7289 51.476 30.0482C51.4283 30.0733 51.377 30.1107 51.3258 30.148C51.2234 30.2226 51.1209 30.2972 51.0465 30.2747C50.6316 30.0304 50.1888 29.7777 49.746 29.5249C49.3032 29.2722 48.8604 29.0194 48.4455 28.7751C48.6202 28.5903 48.6518 28.481 48.6833 28.3718C49.1588 27.5651 49.6423 26.7311 50.1257 25.8971C50.6091 25.0631 51.0926 24.229 51.5681 23.4224C51.7428 23.2376 51.7743 23.1283 51.4711 22.9177C50.418 22.3616 49.4766 21.8392 48.4551 21.1738C48.1518 20.9633 48.0087 21.0388 47.8025 21.3328C47.3111 22.1942 46.8277 23.0282 46.3443 23.8622C45.8609 24.6962 45.3774 25.5302 44.8861 26.3915C44.6799 26.6856 44.5367 26.7611 44.2334 26.5505C43.6669 26.201 43.0925 25.8787 42.518 25.5564C41.9436 25.2342 41.3692 24.9119 40.8026 24.5623C40.2361 24.2127 39.6616 23.8905 39.0872 23.5682C38.5926 23.2907 38.098 23.0132 37.6084 22.7183ZM49.1564 43.1292C48.6784 43.1034 48.0888 43.0439 47.8656 42.9764C46.5703 42.5846 45.5009 42.0736 44.3964 41.5458C43.9782 41.346 43.5549 41.1437 43.1124 40.9446C42.905 40.8225 42.7254 40.7087 42.5459 40.595C42.3663 40.4813 42.1868 40.3676 41.9793 40.2454C41.7876 40.0686 41.7076 39.9256 41.8823 39.7408C43.2143 37.6486 44.4031 35.6319 45.6235 33.5059C45.8298 33.2118 45.9729 33.1363 46.2762 33.3468C46.5836 33.5342 46.8877 33.7158 47.1887 33.8956C48.4034 34.6211 49.5648 35.3148 50.6654 36.219C51.5438 36.96 52.359 37.9195 52.6332 39.0717C53.2131 41.267 51.4031 43.3335 49.1564 43.1292ZM35.465 51.4636C35.465 51.4636 35.3849 51.3205 35.2733 51.2868C35.6688 50.6398 36.038 50.0066 36.4008 49.3842C36.8815 48.5598 37.3513 47.7541 37.8572 46.9593C38.1266 46.4467 38.4159 45.9698 38.7052 45.4929C38.9945 45.0161 39.2839 44.5392 39.5532 44.0266C39.5715 44.0006 39.5884 43.976 39.6042 43.9529C39.7671 43.7157 39.8178 43.6419 40.0943 43.8338L40.2801 43.9319C42.3301 45.0139 44.4677 46.1421 46.1115 47.7925C46.8467 48.609 47.5819 49.4254 47.8876 50.4684C48.6107 52.5882 46.9293 55.05 44.6194 55.0642C43.2656 55.13 42.0379 54.7586 40.7301 54.2443C39.1564 53.6681 37.6725 52.781 36.2507 51.931C35.9867 51.7732 35.7249 51.6166 35.465 51.4636Z" fill="#F89B2B"/>
</svg>
