<svg width="88" height="88" viewBox="0 0 88 88" fill="none" xmlns="http://www.w3.org/2000/svg">
<path d="M44 88C68.3005 88 88 68.3005 88 44C88 19.6995 68.3005 0 44 0C19.6995 0 0 19.6995 0 44C0 68.3005 19.6995 88 44 88Z" fill="white"/>
<path fill-rule="evenodd" clip-rule="evenodd" d="M61.875 52.6735C61.875 59.741 56.1385 64.4325 47.6685 65.1393V71.5H41.866V65.076C36.1369 64.43 30.6935 62.2294 26.125 58.7125L30.393 52.866C34.1962 55.8223 37.796 57.75 42.1327 58.3935V45.7985C32.395 43.3565 27.8602 39.8228 27.8602 32.5627C27.8602 25.6245 33.528 20.8698 41.866 20.2263V16.5H47.6685V20.3555C52.2036 20.8592 56.5273 22.5432 60.2085 25.2395L56.4712 31.2785C53.537 29.1582 50.5367 27.808 47.4017 27.1672V39.3745C57.541 41.8165 61.875 45.7352 61.875 52.6735ZM42.13 38.0243V26.7163C37.9307 27.038 35.7308 29.2875 35.7308 32.1145C35.7308 34.8095 36.9958 36.5475 42.1327 38.027L42.13 38.0243ZM54.0045 53.1217C54.0045 50.2342 52.602 48.499 47.4017 47.0195V58.652C51.6037 58.3275 54.0045 56.2073 54.0045 53.1245V53.1217Z" fill="#F8BF1A"/>
</svg>
