<svg width="48" height="48" viewBox="0 0 48 48" fill="none" xmlns="http://www.w3.org/2000/svg">
<path d="M24 48C37.2548 48 48 37.2548 48 24C48 10.7452 37.2548 0 24 0C10.7452 0 0 10.7452 0 24C0 37.2548 10.7452 48 24 48Z" fill="white"/>
<path fill-rule="evenodd" clip-rule="evenodd" d="M16.6305 22.2225V18.7245C16.6305 13.2105 19.959 9.75 25.743 9.75C30.141 9.75 32.598 11.613 34.5 14.01L30.7755 16.86C29.349 15.1125 28.0005 14.085 25.7835 14.085C23.1285 14.085 21.543 15.9105 21.543 18.84V22.2225H31.41V26.178H21.543V32.6805H34.4205V36.75H13.5V33.7845L16.6305 32.871V26.178H13.5V22.2225H16.6305Z" fill="#BC3FE0"/>
</svg>
