<svg width="48" height="48" viewBox="0 0 48 48" fill="none" xmlns="http://www.w3.org/2000/svg">
<path d="M24 48C37.2548 48 48 37.2548 48 24C48 10.7452 37.2548 0 24 0C10.7452 0 0 10.7452 0 24C0 37.2548 10.7452 48 24 48Z" fill="white"/>
<path fill-rule="evenodd" clip-rule="evenodd" d="M24.0054 6.45584C24.1574 6.45419 24.3048 6.52502 24.398 6.65235L32.064 17.1265C32.0754 17.1418 32.086 17.1577 32.0955 17.1742C32.1063 17.1928 32.1158 17.2122 32.1241 17.2321C32.1359 17.2608 32.1449 17.2906 32.1511 17.3212L35.8609 34.2637C35.8621 34.269 35.8632 34.2744 35.8643 34.2797C35.8682 34.3007 35.8708 34.3218 35.872 34.3431C35.8739 34.3785 35.8719 34.4142 35.866 34.4493C35.8565 34.5055 35.837 34.5603 35.8074 34.611C35.7676 34.6793 35.7123 34.7355 35.6475 34.7761L24.2655 41.9071C24.1857 41.9571 24.0953 41.9813 24.0054 41.9803C23.9155 41.9813 23.8251 41.9571 23.7453 41.9071L12.3633 34.7761C12.3598 34.7739 12.3562 34.7716 12.3527 34.7692C12.3414 34.7617 12.3304 34.7537 12.3197 34.7453C12.2817 34.7151 12.2481 34.6791 12.2204 34.638C12.2145 34.6292 12.2088 34.6202 12.2035 34.611C12.1813 34.573 12.1648 34.5326 12.1539 34.4911C12.1384 34.4321 12.1344 34.3707 12.1418 34.3104C12.1436 34.2958 12.1461 34.2812 12.1493 34.2667M14.2884 34.8493L23.1455 40.3984L21.3781 34.8493H14.2884ZM22.3857 34.8493L24.0054 39.935L25.6248 34.8493H22.3857ZM25.9305 33.8893H22.0799L18.9721 24.1314L24.0054 15.2501L29.0381 24.1302L25.9305 33.8893ZM26.6323 34.8493L24.8653 40.3985L33.7225 34.8493H26.6323ZM34.5689 33.8893H26.938L29.6831 25.2684L34.5689 33.8893ZM34.2445 31.3699L31.5943 19.2666L30.0801 24.0218L34.2445 31.3699ZM29.435 22.8836L31.1488 17.5016L24.4907 8.4044V14.1593L29.435 22.8836ZM24.0054 6.45584C23.8534 6.45419 23.7061 6.525 23.6129 6.65232L15.9455 17.1264C15.9351 17.1402 15.9255 17.1545 15.9168 17.1693C15.9079 17.1841 15.8999 17.1994 15.8927 17.2151C15.8772 17.2489 15.8656 17.2845 15.8583 17.3212L12.1499 34.2638M16.4152 19.2667L13.7659 31.3707L17.9301 24.023L16.4152 19.2667ZM16.8606 17.5016L18.5751 22.8849L23.5202 14.1593V8.40417L16.8606 17.5016ZM18.3271 25.2695L21.0724 33.8893H13.4419L18.3271 25.2695Z" fill="#101417"/>
</svg>
