<svg width="32" height="32" viewBox="0 0 32 32" fill="none" xmlns="http://www.w3.org/2000/svg">
<path d="M16 32C24.8366 32 32 24.8366 32 16C32 7.16344 24.8366 0 16 0C7.16344 0 0 7.16344 0 16C0 24.8366 7.16344 32 16 32Z" fill="white"/>
<path d="M22.15 14.5701L22.22 14.4301C22.22 14.3601 22.22 14.2901 22.36 14.3401C22.3708 14.2773 22.3708 14.213 22.36 14.1501C22.3938 14.0598 22.3938 13.9604 22.36 13.8701C22.2182 13.5242 22.1936 13.1413 22.29 12.7801C22.3011 12.7341 22.3011 12.6861 22.29 12.6401L22.36 12.5701C22.3884 12.5958 22.4121 12.6263 22.43 12.6601C22.4411 12.7061 22.4411 12.7541 22.43 12.8001V12.8701C22.43 12.9401 22.55 12.8001 22.6 12.7501C22.6618 12.7025 22.7289 12.6622 22.8 12.6301C22.8133 12.4473 22.7895 12.2636 22.73 12.0901C22.6186 11.7137 22.6434 11.3101 22.8 10.9501C22.8 11.0201 22.89 11.0701 22.89 11.1401C22.907 11.4001 23.017 11.6451 23.2 11.8301C23.403 12.0631 23.556 12.3351 23.65 12.6301C23.65 12.6301 23.65 12.7201 23.72 12.7201C24.008 12.8031 24.27 12.9571 24.48 13.1701C24.722 13.3881 24.952 13.6181 25.17 13.8601C25.2078 13.9013 25.2382 13.9487 25.26 14.0001H25.33C25.3417 13.7803 25.3417 13.56 25.33 13.3401C25.33 13.1501 25.42 12.9601 25.61 12.9901H25.7C25.7043 12.9057 25.7358 12.825 25.7899 12.76C25.844 12.6951 25.9178 12.6495 26 12.6301C26.0351 12.6909 26.0536 12.7599 26.0536 12.8301C26.0536 12.9003 26.0351 12.9693 26 13.0301C26.14 13.2001 26.17 13.2901 26 13.4801C25.83 13.6701 25.91 13.6901 26 13.8801C26.0195 13.77 26.0602 13.6647 26.12 13.5701C26.17 13.4701 26.19 13.3101 26.31 13.2601C26.3488 13.2464 26.3912 13.2464 26.43 13.2601C26.5456 13.283 26.6645 13.283 26.78 13.2601C26.853 13.2541 26.926 13.2712 26.9888 13.3088C27.0516 13.3465 27.101 13.4029 27.13 13.4701L26.8 13.6301C26.87 13.7701 26.8 13.8201 26.66 13.9101C26.5903 13.9741 26.5267 14.0444 26.47 14.1201C26.5983 14.0974 26.7252 14.0673 26.85 14.0301C26.935 14.0085 27.0248 14.0178 27.1035 14.0563C27.1823 14.0947 27.2448 14.1599 27.28 14.2401C27.3068 14.2967 27.3482 14.345 27.4 14.3801C27.4969 14.4642 27.5578 14.5824 27.57 14.7101C27.5776 14.7396 27.5776 14.7706 27.57 14.8001L27.38 14.6601C27.3558 14.6369 27.3236 14.6239 27.29 14.6239C27.2565 14.6239 27.2242 14.6369 27.2 14.6601C27.1665 14.6925 27.1217 14.7106 27.075 14.7106C27.0284 14.7106 26.9836 14.6925 26.95 14.6601C26.882 14.6196 26.8042 14.5983 26.725 14.5983C26.6458 14.5983 26.5681 14.6196 26.5 14.6601C26.3939 14.7299 26.2837 14.7934 26.17 14.8501C26.3013 14.8678 26.4266 14.9158 26.536 14.9905C26.6453 15.0652 26.7358 15.1643 26.8 15.2801C26.87 15.4201 26.97 15.5601 27.04 15.7101C27.0674 15.7699 27.0702 15.838 27.0477 15.8997C27.0252 15.9615 26.9794 16.0119 26.92 16.0401H26.87V15.9901C26.87 15.8701 26.8 15.8501 26.68 15.8701C26.6472 15.881 26.6126 15.8852 26.5781 15.8825C26.5436 15.8798 26.5101 15.8702 26.4793 15.8544C26.4486 15.8386 26.4213 15.8168 26.3991 15.7903C26.3769 15.7638 26.3602 15.7332 26.35 15.7001C26.234 15.4672 26.0391 15.2829 25.8 15.1801L25.59 15.0901C25.5743 15.1811 25.5439 15.2689 25.5 15.3501C25.4671 15.4024 25.4267 15.4496 25.38 15.4901C25.24 15.6101 25.24 15.6301 25.38 15.8001C25.52 15.9701 25.45 15.8901 25.5 15.9701C25.4248 15.9745 25.3495 15.9614 25.2801 15.9319C25.2108 15.9024 25.1491 15.8573 25.1 15.8001C24.9758 15.6603 24.8746 15.5017 24.8 15.3301C24.7711 15.2501 24.7691 15.1628 24.7944 15.0816C24.8196 15.0003 24.8708 14.9296 24.94 14.8801C25.0102 14.8106 25.0677 14.7294 25.11 14.6401L24.4 14.4501C24.4114 14.5598 24.4114 14.6704 24.4 14.7801C24.424 15.1831 24.424 15.5871 24.4 15.9901C24.3759 16.589 24.2819 17.183 24.12 17.7601C24.0029 18.2045 23.8352 18.634 23.62 19.0401C23.4396 19.4061 23.2358 19.7602 23.01 20.1001C22.8171 20.3825 22.6032 20.6499 22.37 20.9001C22.134 21.177 21.8729 21.4314 21.59 21.6601C21.28 21.9201 20.95 22.1301 20.59 22.3501C20.1053 22.6578 19.5803 22.8967 19.03 23.0601C18.6588 23.169 18.2815 23.2558 17.9 23.3201C17.6885 23.3617 17.4748 23.3918 17.26 23.4101C17.1943 23.431 17.1346 23.4673 17.0859 23.516C17.0371 23.5647 17.0008 23.6244 16.98 23.6901C16.9507 23.8486 16.8894 23.9994 16.8001 24.1335C16.7107 24.2676 16.595 24.3821 16.46 24.4701C16.34 24.5601 16.2 24.6401 16.06 24.7301L16.13 24.5201C16.1421 24.4745 16.142 24.4264 16.1297 24.3808C16.1175 24.3352 16.0934 24.2936 16.06 24.2601C15.99 24.1901 15.89 24.2601 15.8 24.2601C15.71 24.2601 15.63 24.3801 15.61 24.5201C15.5908 24.6484 15.5394 24.7698 15.4608 24.8729C15.3821 24.9761 15.2787 25.0577 15.16 25.1101H15.04C15.0714 25.0258 15.0948 24.9388 15.11 24.8501C15.11 24.7801 15.04 24.7101 14.99 24.6401C14.94 24.5701 14.9 24.6401 14.85 24.6401L14.42 24.8501L14.28 24.9201L14.66 25.0901C14.8657 25.1886 15.0315 25.3545 15.13 25.5601C15.1706 25.6152 15.1925 25.6817 15.1925 25.7501C15.1925 25.8185 15.1706 25.8851 15.13 25.9401C15.1184 25.958 15.1122 25.9788 15.1122 26.0001C15.1122 26.0214 15.1184 26.0423 15.13 26.0601C15.1626 26.1786 15.1715 26.3023 15.156 26.4241C15.1406 26.546 15.1012 26.6636 15.04 26.7701C15.04 26.8401 14.92 26.9101 14.87 26.9801L14.8 26.5001C14.8 26.4763 14.7905 26.4534 14.7737 26.4365C14.7568 26.4196 14.7339 26.4101 14.71 26.4101C14.5688 26.4163 14.4288 26.3819 14.3065 26.311C14.1842 26.2402 14.0848 26.1357 14.02 26.0101L13.95 25.9201C13.8262 26.0974 13.6408 26.2221 13.43 26.2701C13.2871 26.3349 13.1602 26.4302 13.0582 26.5495C12.9563 26.6687 12.8818 26.8089 12.84 26.9601C12.8057 27.1336 12.7485 27.3017 12.67 27.4601C12.6274 27.569 12.5441 27.6571 12.4377 27.7056C12.3313 27.7541 12.2102 27.7594 12.1 27.7201V28.1001C12.0459 28.0862 11.995 28.0616 11.9505 28.0278C11.906 27.994 11.8686 27.9516 11.8407 27.9032C11.8127 27.8548 11.7947 27.8013 11.7878 27.7458C11.7808 27.6903 11.7849 27.634 11.8 27.5801C11.8122 27.5241 11.8122 27.4661 11.8 27.4101C11.7304 27.2743 11.7134 27.1176 11.7521 26.97C11.7909 26.8224 11.8827 26.6943 12.01 26.6101C12.2058 26.4674 12.3751 26.2914 12.51 26.0901C12.517 26.0673 12.517 26.0429 12.51 26.0201L11.8 25.9301C11.7131 25.9062 11.6222 25.9001 11.5329 25.9121C11.4435 25.9241 11.3575 25.9541 11.28 26.0001L11.14 26.1801C10.93 26.4201 10.83 26.4401 10.55 26.3001C10.4397 26.4941 10.3975 26.7194 10.43 26.9401C10.3241 26.8369 10.251 26.7047 10.22 26.5601C10.2078 26.4806 10.2078 26.3997 10.22 26.3201V26.1801C10.1971 26.112 10.1971 26.0383 10.22 25.9701C10.3038 25.7776 10.4574 25.6239 10.65 25.5401C10.8624 25.4009 11.1068 25.3183 11.36 25.3001C11.55 25.2881 11.74 25.2881 11.93 25.3001H12.07C12.0276 25.1964 11.9638 25.1027 11.8828 25.0252C11.8019 24.9477 11.7055 24.888 11.6 24.8501L11.06 24.6401C11.0004 24.6488 10.9398 24.6337 10.8912 24.5982C10.8426 24.5627 10.8099 24.5095 10.8 24.4501C10.8 24.4263 10.7905 24.4034 10.7737 24.3865C10.7568 24.3696 10.7339 24.3601 10.71 24.3601C10.543 24.3596 10.3795 24.4083 10.24 24.5001C10.31 24.2901 10.41 24.0701 10.64 24.0301C10.743 24.0181 10.847 24.0181 10.95 24.0301H11.04C11.18 23.8201 11.39 23.8601 11.58 23.9601C11.857 24.0921 12.087 24.3041 12.24 24.5701C12.2749 24.6391 12.3242 24.6999 12.3846 24.7482C12.445 24.7965 12.515 24.8312 12.59 24.8501C12.6033 24.6673 12.5795 24.4836 12.52 24.3101C12.5165 24.2296 12.4874 24.1524 12.4371 24.0895C12.3868 24.0265 12.3178 23.9813 12.24 23.9601C12 23.8901 11.93 23.7201 12.05 23.4601C11.971 23.3899 11.8748 23.3418 11.7712 23.3208C11.6675 23.2997 11.5602 23.3064 11.46 23.3401C11.53 23.1501 11.81 23.0801 12 23.1001C12.1717 23.2028 12.3703 23.2515 12.57 23.2401C12.637 23.2527 12.7001 23.281 12.754 23.3227C12.8079 23.3645 12.8511 23.4184 12.88 23.4801L13.02 23.7601C13.14 23.9701 13.23 24.2101 13.33 24.4201C13.47 24.0201 13.64 23.5901 13.8 23.1401L13.56 23.0501L12.87 22.7701C12.3436 22.5424 11.8439 22.2574 11.38 21.9201C11.2988 21.8762 11.211 21.8458 11.12 21.8301C11.05 21.8301 10.95 21.9201 11 22.0001C11.05 22.0801 11.12 22.0901 11.17 22.1701C11.22 22.2501 11.17 22.2401 11.26 22.2901H11.14C10.9775 22.2938 10.8178 22.248 10.682 22.1587C10.5463 22.0694 10.4409 21.9408 10.38 21.7901C10.2327 21.4933 10.1444 21.1706 10.12 20.8401C10.1247 20.8291 10.1271 20.8172 10.1271 20.8051C10.1271 20.7931 10.1247 20.7812 10.12 20.7701L9.48002 20.0601C9.43208 20.1823 9.43208 20.318 9.48002 20.4401L9.55002 20.5801V20.7501H9.36002C9.252 20.632 9.16417 20.4968 9.10002 20.3501C9.01002 20.0001 8.96002 19.6401 8.89002 19.2901C8.87281 19.1148 8.84273 18.941 8.80002 18.7701C8.7482 18.5699 8.68476 18.3729 8.61002 18.1801V18.7301C8.61002 18.7801 8.49002 18.7301 8.47002 18.6401C8.36149 18.4537 8.29653 18.2452 8.28002 18.0301C8.2683 17.5253 8.33924 17.022 8.49002 16.5401C8.53587 16.3634 8.59264 16.1898 8.66002 16.0201C8.63707 16.0771 8.60681 16.1309 8.57002 16.1801L8.48002 16.2701V16.1501C8.47711 15.9253 8.53591 15.7039 8.65002 15.5101C8.82002 15.1301 9.03002 14.7501 9.22002 14.3801C9.29851 14.2481 9.38535 14.1211 9.48002 14.0001L9.31002 14.1801L9.19002 14.2501V14.1801C9.25437 14.0731 9.32447 13.9696 9.40002 13.8701C9.62497 13.5976 9.88761 13.3585 10.18 13.1601C10.248 13.1365 10.322 13.1365 10.39 13.1601L11.39 13.3701L11.74 13.4601C11.6448 13.5582 11.5639 13.6693 11.5 13.7901C11.4693 13.8505 11.4533 13.9174 11.4533 13.9851C11.4533 14.0529 11.4693 14.1197 11.5 14.1801C11.5172 14.2051 11.5264 14.2348 11.5264 14.2651C11.5264 14.2955 11.5172 14.3251 11.5 14.3501C11.2724 14.5463 11.0797 14.7796 10.93 15.0401V15.1301C10.93 15.1301 11.26 15.4601 11.43 15.6501C11.44 15.6801 11.44 15.7101 11.43 15.7401C11.3544 15.869 11.3146 16.0157 11.3146 16.1651C11.3146 16.3145 11.3544 16.4613 11.43 16.5901C11.4415 16.6347 11.4619 16.6765 11.49 16.713C11.5181 16.7495 11.5534 16.7798 11.5936 16.8023C11.6338 16.8247 11.6781 16.8388 11.7239 16.8436C11.7697 16.8483 11.816 16.8438 11.86 16.8301C11.8516 17.0245 11.9118 17.2156 12.03 17.3701C12.1 17.4401 12.2 17.4901 12.27 17.5601C12.3121 17.5895 12.3436 17.6315 12.36 17.6801C12.4157 17.8584 12.5201 18.0175 12.6615 18.1394C12.8028 18.2613 12.9755 18.3413 13.16 18.3701C13.448 18.4101 13.74 18.3501 13.99 18.2001C14.08 18.2001 14.11 18.1301 14.13 18.2001C14.186 18.5491 14.298 18.8861 14.46 19.2001C14.667 19.5661 14.923 19.9021 15.22 20.2001C15.487 20.4551 15.814 20.6401 16.17 20.7401C16.61 20.8391 17.07 20.7151 17.4 20.4101C17.6073 20.2003 17.7825 19.9611 17.92 19.7001L18.35 19.0101C18.5393 18.7494 18.7811 18.5314 19.06 18.3701C19.1063 18.3345 19.1599 18.3097 19.2171 18.2976C19.2742 18.2855 19.3333 18.2864 19.39 18.3001L19.32 18.4401C19.2669 18.5257 19.2387 18.6244 19.2387 18.7251C19.2387 18.8259 19.2669 18.9246 19.32 19.0101C19.39 19.1001 19.44 19.1001 19.49 19.0101C19.54 18.9201 19.63 18.7501 19.82 18.7701C20.01 18.7901 20.01 18.6501 20.03 18.5301C20.0498 18.0094 20.2049 17.5027 20.48 17.0601C20.5314 17.0073 20.5884 16.9604 20.65 16.9201V17.3001C20.669 17.4061 20.7 17.5101 20.74 17.6101L20.8 17.4801C20.8171 17.4442 20.844 17.4138 20.8776 17.3926C20.9113 17.3713 20.9502 17.3601 20.99 17.3601C21.0371 17.3519 21.0797 17.3271 21.11 17.2901C21.176 17.2127 21.2215 17.1199 21.2424 17.0204C21.2634 16.9208 21.2591 16.8176 21.23 16.7201C21.2063 16.5711 21.2063 16.4192 21.23 16.2701C21.2295 16.0811 21.2777 15.8951 21.37 15.7301C21.3918 15.6787 21.4223 15.6313 21.46 15.5901H21.53V15.9201C21.5224 15.9496 21.5224 15.9806 21.53 16.0101H21.62L21.8 15.8901C21.8681 15.7683 21.8994 15.6294 21.89 15.4901C21.8762 15.4107 21.8762 15.3295 21.89 15.2501V14.4301C21.89 14.3201 21.89 14.3101 21.96 14.2401L22.07 14.1801V14.6201C22.0774 14.6052 22.0888 14.5926 22.1029 14.5838C22.1171 14.575 22.1334 14.5702 22.15 14.5701ZM9.86002 10.0101L10.45 9.42013C10.4841 9.38301 10.5248 9.3525 10.57 9.33013C10.64 9.26013 10.57 9.19013 10.57 9.12013C10.57 9.05013 10.48 9.12013 10.4 9.12013H10.31V9.00013C10.3349 8.91821 10.3773 8.84268 10.4343 8.77878C10.4913 8.71489 10.5615 8.66417 10.64 8.63013C10.8985 8.53698 11.1815 8.53698 11.44 8.63013C11.4618 8.64074 11.4858 8.64625 11.51 8.64625C11.5343 8.64625 11.5582 8.64074 11.58 8.63013L12.15 8.32013C12.24 8.32013 12.22 8.23013 12.15 8.18013C12.08 8.13013 11.98 8.06013 11.89 8.18013C11.8605 8.18775 11.8295 8.18775 11.8 8.18013C11.8 8.01013 11.97 7.87013 12.13 7.80013C12.4 7.71713 12.69 7.71713 12.96 7.80013H13C13.07 7.80013 13.28 7.89013 13.45 7.80013L13.8 7.68013C13.89 7.68013 13.89 7.61013 13.8 7.56013C13.71 7.51013 13.68 7.42013 13.59 7.49013C13.5 7.56013 13.59 7.49013 13.5 7.49013C13.481 7.46977 13.4705 7.44297 13.4705 7.41513C13.4705 7.38729 13.481 7.36049 13.5 7.34013C13.6744 7.20862 13.8936 7.15113 14.11 7.18013C14.3068 7.19531 14.4947 7.26837 14.65 7.39013H14.72C14.7537 7.42962 14.7978 7.45896 14.8472 7.47485C14.8967 7.49075 14.9496 7.49257 15 7.48013C15.0574 7.44577 15.1231 7.42762 15.19 7.42762C15.2569 7.42762 15.3226 7.44577 15.38 7.48013H15.45V7.39013C15.4341 7.32852 15.3978 7.27416 15.3469 7.23599C15.296 7.19782 15.2336 7.17812 15.17 7.18013H15.1C15.2188 7.08743 15.3598 7.02755 15.509 7.00649C15.6581 6.98543 15.8102 7.00393 15.95 7.06013C16.156 7.14413 16.336 7.28213 16.47 7.46013C16.5225 7.49251 16.5799 7.51615 16.64 7.53013C16.7767 7.52586 16.9129 7.54968 17.04 7.60013C17.16 7.67013 17.11 7.60013 17.13 7.69013C17.1452 7.65797 17.1539 7.62313 17.1556 7.5876C17.1573 7.55207 17.1519 7.51657 17.1398 7.48311C17.1277 7.44966 17.1092 7.41893 17.0852 7.39267C17.0612 7.36642 17.0322 7.34516 17 7.33013H16.8V7.18013C16.909 7.15883 17.021 7.15883 17.13 7.18013C17.446 7.21713 17.73 7.38813 17.91 7.65013C17.98 7.77013 18.038 7.89713 18.08 8.03013C18.1651 8.01967 18.2514 8.03172 18.3304 8.06506C18.4093 8.0984 18.4782 8.15187 18.53 8.22013H18.6C18.6415 8.21173 18.6818 8.1983 18.72 8.18013C18.7178 8.10216 18.6917 8.02675 18.6452 7.96413C18.5987 7.90152 18.534 7.85473 18.46 7.83013H18.39C18.48 7.83013 18.56 7.76013 18.65 7.83013C18.8 7.84413 18.945 7.88513 19.08 7.95013C19.436 8.09513 19.702 8.39913 19.8 8.77013C19.97 8.86013 20.08 8.96013 20.2 9.03013H20.34V8.82013C20.3252 8.74873 20.2941 8.68174 20.2489 8.62446C20.2038 8.56719 20.146 8.5212 20.08 8.49013L19.99 8.42013C20.0994 8.39559 20.2134 8.40022 20.3204 8.43357C20.4275 8.46691 20.5239 8.5278 20.6 8.61013C20.785 8.76613 20.923 8.97013 21 9.20013C21.0081 9.23758 21.025 9.27256 21.0494 9.30214C21.0737 9.33171 21.1048 9.35503 21.14 9.37013C21.216 9.42713 21.286 9.49013 21.35 9.56013C21.44 9.30013 21.23 9.16013 21.16 8.97013C21.2363 8.97173 21.3114 8.98949 21.3804 9.02224C21.4493 9.05499 21.5106 9.10199 21.56 9.16013C21.7 9.30613 21.826 9.46313 21.94 9.63013C22.012 9.75213 22.092 9.86913 22.18 9.98013C22.252 10.1141 22.299 10.2601 22.32 10.4101C22.3341 10.7492 22.2867 11.088 22.18 11.4101C22.1679 11.63 22.1679 11.8503 22.18 12.0701C22.19 12.1001 22.19 12.1301 22.18 12.1601C22.0917 12.2329 22.0188 12.3226 21.9655 12.4239C21.9123 12.5252 21.8798 12.6361 21.87 12.7501C21.8225 13.0483 21.8225 13.352 21.87 13.6501V13.7201C21.7325 13.8107 21.6194 13.9339 21.5409 14.0787C21.4624 14.2235 21.4209 14.3854 21.42 14.5501V15.0701C21.276 15.0993 21.1424 15.1667 21.0333 15.2652C20.9243 15.3638 20.8437 15.4898 20.8 15.6301C20.73 15.7701 20.71 15.9401 20.63 16.0801C20.55 16.2201 20.54 16.1701 20.49 16.2201V16.0301C20.5497 15.7172 20.5732 15.3984 20.56 15.0801C20.5698 14.6103 20.4812 14.1437 20.3 13.7101V13.5401C20.4567 13.3803 20.5553 13.1726 20.58 12.9501C20.6051 12.6173 20.6051 12.283 20.58 11.9501C20.5842 11.7141 20.4984 11.4853 20.34 11.3101C20.2587 11.2267 20.1542 11.1697 20.0401 11.1465C19.9259 11.1233 19.8074 11.135 19.7 11.1801C19.5605 11.2391 19.4415 11.338 19.358 11.4643C19.2744 11.5905 19.2299 11.7387 19.23 11.8901V12.2401C18.8765 11.8857 18.4499 11.6127 17.98 11.4401C17.7103 11.3451 17.4325 11.2748 17.15 11.2301H16.54C16.1457 11.2316 15.7542 11.2957 15.38 11.4201C15.17 11.4901 14.98 11.5901 14.77 11.6601C14.7484 11.6715 14.7244 11.6775 14.7 11.6775C14.6756 11.6775 14.6516 11.6715 14.63 11.6601C14.1814 11.3895 13.6965 11.1841 13.19 11.0501C12.9514 10.9855 12.7068 10.9453 12.46 10.9301C11.96 10.8301 11.46 10.7601 11.04 10.6301C10.664 10.5404 10.3057 10.3883 9.98002 10.1801C9.95762 10.1129 9.91588 10.0537 9.86002 10.0101ZM19.31 14.7101C19.31 14.8801 19 14.9201 18.67 14.8301V15.1801C18.675 15.22 18.675 15.2603 18.67 15.3001H18.53C18.4309 15.2199 18.3374 15.133 18.25 15.0401C18.1913 15.0655 18.1392 15.1039 18.0976 15.1524C18.0561 15.2009 18.0261 15.2583 18.01 15.3201C17.94 15.5101 17.84 15.5301 17.7 15.3201C17.6484 15.2677 17.5914 15.2208 17.53 15.1801C17.4659 15.2714 17.3957 15.3582 17.32 15.4401C17.3026 15.4606 17.2812 15.4774 17.2571 15.4894C17.2331 15.5014 17.2069 15.5085 17.18 15.5101C17.1442 15.4749 17.1138 15.4344 17.09 15.3901C17.0798 15.3205 17.0798 15.2498 17.09 15.1801C16.97 15.4901 16.83 15.7501 16.48 15.8201C16.4672 15.6894 16.4915 15.5577 16.55 15.4401C16.62 15.3201 16.55 15.4401 16.55 15.3701C16.3939 15.5201 16.3009 15.724 16.29 15.9401C16.306 16.3731 16.418 16.7971 16.62 17.1801C16.76 17.5301 16.93 17.8701 17.07 18.1801C17.198 18.4971 17.256 18.8381 17.24 19.1801C17.2561 19.354 17.2213 19.5288 17.1397 19.6832C17.0582 19.8376 16.9336 19.965 16.7809 20.0498C16.6283 20.1346 16.4543 20.1731 16.2801 20.1608C16.106 20.1484 15.9391 20.0856 15.8 19.9801C15.5714 19.8384 15.3714 19.6553 15.21 19.4401C15.07 19.2501 14.93 19.0601 14.81 18.8701C14.7429 18.7311 14.6861 18.5874 14.64 18.4401V18.3001C14.6959 18.2967 14.7514 18.3114 14.7982 18.342C14.845 18.3727 14.8807 18.4176 14.9 18.4701C14.95 18.5501 15.16 18.8701 15.3 19.0601C15.415 19.2901 15.588 19.4861 15.8 19.6301C15.8703 19.6597 15.9457 19.6752 16.0219 19.6756C16.0981 19.6761 16.1737 19.6615 16.2443 19.6327C16.3149 19.6039 16.3791 19.5615 16.4333 19.5078C16.4874 19.4542 16.5305 19.3904 16.56 19.3201V19.2501C16.6021 19.1256 16.6177 18.9936 16.6056 18.8627C16.5936 18.7318 16.5542 18.6049 16.49 18.4901C16.32 18.1101 16.11 17.7301 15.92 17.3601C15.7001 16.9613 15.5481 16.5288 15.47 16.0801C15.4582 15.9704 15.4582 15.8598 15.47 15.7501C15.32 15.7621 15.17 15.7621 15.02 15.7501L14.57 15.6301L14.36 15.7701C14.3694 15.7239 14.3694 15.6763 14.36 15.6301C14.3621 15.5385 14.3389 15.4481 14.2931 15.3687C14.2472 15.2893 14.1804 15.2241 14.1 15.1801C14.0496 15.1801 14.0013 15.2001 13.9657 15.2358C13.93 15.2714 13.91 15.3197 13.91 15.3701C13.9027 15.4722 13.923 15.5743 13.9687 15.6658C14.0145 15.7573 14.084 15.8348 14.17 15.8901L14.57 16.1701C14.71 16.2601 14.69 16.2601 14.76 16.1701C14.7697 16.124 14.7697 16.0763 14.76 16.0301C14.95 16.0301 15.02 16.1501 15.04 16.3401C15.086 16.5801 15.15 16.8181 15.23 17.0501C15.2344 17.1004 15.2287 17.1511 15.2132 17.1992C15.1978 17.2473 15.1729 17.2918 15.14 17.3301C15.0165 17.4858 14.8545 17.6064 14.67 17.6801C14.5188 17.7388 14.3512 17.7388 14.2 17.6801C14.2873 17.5933 14.3809 17.5131 14.48 17.4401C14.522 17.3974 14.5523 17.3447 14.5681 17.2869C14.5838 17.2291 14.5845 17.1682 14.57 17.1101C14.5628 17.0914 14.5507 17.0749 14.5348 17.0626C14.5189 17.0502 14.5 17.0425 14.48 17.0401C14.387 17.0286 14.293 17.0286 14.2 17.0401C14.1277 17.0453 14.0599 17.0774 14.01 17.1301C13.8461 17.2602 13.6722 17.3772 13.49 17.4801C13.3416 17.5572 13.1725 17.5851 13.0072 17.56C12.8419 17.5348 12.6888 17.4578 12.57 17.3401C12.4846 17.2444 12.4199 17.1321 12.38 17.0101L12.31 16.8701C12.2748 16.906 12.2343 16.9363 12.19 16.9601C12.14 16.9601 12.12 16.8401 12.19 16.8201C12.219 16.6901 12.26 16.5631 12.31 16.4401C12.3214 16.4186 12.3274 16.3945 12.3274 16.3701C12.3274 16.3457 12.3214 16.3217 12.31 16.3001C12.23 16.1889 12.1234 16.0995 12 16.0401C11.91 15.9701 11.83 16.0401 11.76 16.0401H11.64C11.6424 16.0002 11.6424 15.9601 11.64 15.9201C11.6569 15.8148 11.7035 15.7165 11.7744 15.6368C11.8453 15.5571 11.9374 15.4993 12.04 15.4701H12.16C11.8733 15.3607 11.614 15.1901 11.4 14.9701C11.33 14.9001 11.31 14.8501 11.4 14.7801C11.49 14.7101 11.66 14.5501 11.8 14.4501C12.0685 14.3548 12.3616 14.3548 12.63 14.4501C12.877 14.5321 13.103 14.6681 13.29 14.8501L13.36 14.9201C13.3036 14.7489 13.2083 14.593 13.0817 14.4646C12.9551 14.3362 12.8005 14.2389 12.63 14.1801C12.3254 14.0668 12.0048 14.0026 11.68 13.9901C11.6961 13.9296 11.7291 13.8748 11.7751 13.8323C11.8212 13.7898 11.8784 13.7613 11.94 13.7501L12.48 13.6501C12.672 13.6074 12.8506 13.5181 13 13.3901C12.9035 13.3106 12.7997 13.2403 12.69 13.1801C12.41 13.0601 12.12 12.9201 11.84 12.8301C11.5856 12.7179 11.316 12.6438 11.04 12.6101C10.6546 12.5563 10.2759 12.4625 9.91002 12.3301C9.46845 12.2096 9.04721 12.0242 8.66002 11.7801C8.26002 11.5201 7.92002 11.1801 7.66002 10.7801C7.5994 10.6766 7.55235 10.5657 7.52002 10.4501V10.3301H7.64002L7.80002 10.4201C8.06002 10.6301 8.30002 10.8901 8.56002 11.0801C8.87896 11.3116 9.23851 11.4812 9.62002 11.5801C9.93002 11.6501 10.23 11.7201 10.54 11.7701C10.85 11.8201 11.06 11.7701 11.32 11.8401L11.89 11.9101C12.107 11.9251 12.322 11.9651 12.53 12.0301C12.86 12.1501 13.17 12.2901 13.48 12.4101C13.4979 12.4217 13.5187 12.4279 13.54 12.4279C13.5613 12.4279 13.5822 12.4217 13.6 12.4101C13.73 12.3811 13.857 12.3401 13.98 12.2901V12.1801C13.7494 12.0515 13.5125 11.9347 13.27 11.8301C12.8153 11.6513 12.3369 11.5402 11.85 11.5001L11.19 11.4301C10.8283 11.3703 10.4708 11.2868 10.12 11.1801C9.75687 11.048 9.41875 10.8553 9.12002 10.6101C8.86856 10.416 8.68058 10.1515 8.58002 9.85013V9.64013C8.60694 9.62885 8.63583 9.62305 8.66502 9.62305C8.6942 9.62305 8.7231 9.62885 8.75002 9.64013L9.01002 9.92013C9.15002 10.0601 9.29002 10.2001 9.46002 10.3501C9.85602 10.6601 10.312 10.8851 10.8 11.0101C11.08 11.0801 11.37 11.1301 11.65 11.1801C12.1 11.2501 12.57 11.3201 13.02 11.4201C13.5535 11.5158 14.0512 11.7543 14.46 12.1101C14.63 12.2501 14.77 12.1801 14.93 12.1101C15.0148 12.0941 15.1024 12.1059 15.1799 12.1437C15.2574 12.1816 15.3206 12.2435 15.36 12.3201C15.48 12.6431 15.48 12.9971 15.36 13.3201C15.3492 13.3799 15.3568 13.4415 15.3818 13.4969C15.4068 13.5522 15.448 13.5987 15.5 13.6301H15.62C15.7596 13.5729 15.9119 13.5539 16.0613 13.5749C16.2107 13.596 16.3517 13.6565 16.47 13.7501C16.5071 13.7793 16.5529 13.7952 16.6 13.7952C16.6472 13.7952 16.693 13.7793 16.73 13.7501C16.9261 13.6585 17.1165 13.5549 17.3 13.4401C17.49 13.3201 17.39 13.2701 17.44 13.1801C17.5082 13.0417 17.6184 12.9284 17.755 12.8565C17.8915 12.7847 18.0473 12.7579 18.2 12.7801C18.415 12.7801 18.63 12.8031 18.84 12.8501C19.0103 12.896 19.1897 12.896 19.36 12.8501C19.4673 12.8372 19.5678 12.7906 19.6469 12.7169C19.726 12.6432 19.7796 12.5463 19.8 12.4401V11.8001C19.8 11.7301 19.8 11.6601 19.92 11.6601C20.04 11.6601 20.01 11.7501 20.01 11.8301C20.082 12.1601 20.082 12.5001 20.01 12.8301C19.9901 12.9727 19.915 13.1018 19.801 13.1897C19.6869 13.2776 19.543 13.3172 19.4 13.3001H18.55C18.4349 13.2928 18.3211 13.3272 18.2292 13.397C18.1374 13.4668 18.0738 13.5673 18.05 13.6801C18.039 13.7261 18.039 13.7741 18.05 13.8201C18.12 13.9601 18.17 14.0801 18.38 14.0601C18.492 14.0701 18.58 14.1581 18.59 14.2701C18.6118 14.3899 18.6727 14.499 18.7632 14.5805C18.8537 14.6619 18.9686 14.711 19.09 14.7201L19.31 14.7101ZM13.74 14.0201C13.86 14.1431 13.987 14.2601 14.12 14.3701C14.1877 14.4212 14.2702 14.4489 14.355 14.4489C14.4398 14.4489 14.5223 14.4212 14.59 14.3701C14.7221 14.2916 14.849 14.2048 14.97 14.1101V14.0401C14.9587 13.9948 14.9376 13.9526 14.9083 13.9163C14.8789 13.88 14.842 13.8506 14.8 13.8301C14.7148 13.8077 14.6252 13.8077 14.54 13.8301L14.37 13.9001C14.1997 13.946 14.0203 13.946 13.85 13.9001L13.74 14.0201ZM17 14.3501C17.0408 14.3837 17.0887 14.4077 17.14 14.4201C17.315 14.4536 17.4736 14.5452 17.59 14.6801C17.706 14.6911 17.824 14.6911 17.94 14.6801C18.01 14.6801 18.06 14.6101 18.13 14.5901C18.0728 14.521 18.0092 14.4574 17.94 14.4001C17.642 14.2746 17.3096 14.257 17 14.3501ZM4.54002 17.4301C4.66508 17.5639 4.82448 17.6607 5.00082 17.7101C5.17716 17.7595 5.36367 17.7595 5.54002 17.7101C5.59886 17.6927 5.65291 17.6621 5.698 17.6204C5.74308 17.5788 5.77799 17.5274 5.80002 17.4701C5.42513 17.5568 5.03165 17.5071 4.69002 17.3301C4.52842 17.2379 4.38797 17.1129 4.27773 16.963C4.16749 16.8132 4.08991 16.6418 4.05002 16.4601C3.97513 16.1939 3.98712 15.9107 4.08424 15.6517C4.18135 15.3927 4.35853 15.1715 4.59002 15.0201C4.48674 15.3517 4.51931 15.7106 4.68057 16.0181C4.84183 16.3257 5.11858 16.5566 5.45002 16.6601H5.59002C5.88815 16.7221 6.19846 16.6831 6.47191 16.5491C6.74535 16.415 6.96636 16.1938 7.10002 15.9201C6.99523 16.0011 6.89507 16.0879 6.80002 16.1801C6.36302 16.4801 5.78702 16.4801 5.35002 16.1801C5.23149 16.1019 5.13341 15.9964 5.06397 15.8725C4.99453 15.7487 4.95574 15.61 4.95084 15.468C4.94595 15.3261 4.97509 15.1851 5.03584 15.0567C5.09658 14.9283 5.18716 14.8163 5.30002 14.7301C5.31346 14.8136 5.34563 14.893 5.39413 14.9623C5.44262 15.0315 5.50617 15.0889 5.58002 15.1301C5.72681 15.2111 5.88541 15.2684 6.05002 15.3001C6.22931 15.3289 6.41283 15.3159 6.58628 15.2621C6.75973 15.2083 6.91842 15.1153 7.05002 14.9901C7.1948 14.8415 7.30717 14.6644 7.38002 14.4701C7.57002 14.0201 7.71002 13.5501 7.92002 13.1001C8.05598 12.8258 8.20619 12.5588 8.37002 12.3001C8.37002 12.2301 8.46002 12.3001 8.51002 12.3001L9.03002 12.5801L9.36002 12.7201L9.22002 12.8401C8.90668 13.1742 8.63779 13.5472 8.42002 13.9501C8.25002 14.2601 8.09002 14.5401 7.95002 14.8501C7.81002 15.1601 7.67002 15.5601 7.55002 15.9101L7.27002 16.7101C7.20002 16.9201 7.10002 17.1101 7.01002 17.3201C6.87596 17.6242 6.64348 17.8743 6.35002 18.0301C6.17761 18.1139 5.99109 18.1648 5.80002 18.1801C5.61076 18.204 5.41927 18.204 5.23002 18.1801C5.07685 18.1684 4.93083 18.1105 4.81123 18.0141C4.69162 17.9177 4.60403 17.7873 4.56002 17.6401C4.57387 17.5697 4.56692 17.4967 4.54002 17.4301ZM18.61 16.6301C18.622 16.7401 18.622 16.8501 18.61 16.9601C18.61 17.1001 18.52 17.1001 18.4 17.0301L18.12 16.8901H18C18.0405 16.9708 18.0616 17.0599 18.0616 17.1501C18.0616 17.2404 18.0405 17.3294 18 17.4101C17.9836 17.4587 17.9521 17.5008 17.91 17.5301H17.8L17.73 17.3201C17.7058 17.2647 17.6608 17.221 17.6046 17.1986C17.5485 17.1761 17.4858 17.1767 17.43 17.2001C17.3373 17.2255 17.2495 17.266 17.17 17.3201H17.03C16.8573 16.9894 16.7456 16.6304 16.7 16.2601L16.8 16.3801C16.8819 16.4426 16.982 16.4764 17.085 16.4764C17.188 16.4764 17.2881 16.4426 17.37 16.3801C17.3941 16.3285 17.4066 16.2721 17.4066 16.2151C17.4066 16.1581 17.3941 16.1018 17.37 16.0501C17.37 15.9801 17.3 15.9301 17.28 15.8601C17.42 15.8601 17.42 15.7401 17.78 16.1701L18.04 16.0301C18.13 16.0301 18.04 15.8901 18.04 15.8401V15.6301L18.21 15.7001C18.2586 15.7165 18.3007 15.7481 18.33 15.7901C18.4793 15.9584 18.647 16.1093 18.83 16.2401C18.8856 16.2862 18.9299 16.3444 18.9594 16.4103C18.9889 16.4762 19.0028 16.548 19 16.6201V16.7101H18.93C18.68 16.6301 18.68 16.6301 18.61 16.6301ZM6.80002 15.0401C6.60707 14.9264 6.38282 14.8773 6.16002 14.9001C6.06704 14.9116 5.97299 14.9116 5.88002 14.9001C5.82178 14.8905 5.7666 14.8674 5.71885 14.8327C5.6711 14.7979 5.63209 14.7526 5.60491 14.7002C5.57774 14.6478 5.56315 14.5898 5.5623 14.5307C5.56145 14.4717 5.57436 14.4133 5.60002 14.3601C5.69002 14.3601 5.77002 14.4801 5.86002 14.5301C5.95002 14.5801 5.98002 14.5301 5.98002 14.4601C5.97683 14.4018 5.99136 14.3438 6.0217 14.2938C6.05203 14.2439 6.09676 14.2042 6.15002 14.1801C6.2262 14.1534 6.30818 14.1476 6.38735 14.1635C6.46653 14.1793 6.53998 14.2161 6.60002 14.2701C6.80202 14.4701 6.88002 14.7661 6.80002 15.0401Z" fill="#EAB304"/>
</svg>
