<svg width="48" height="48" viewBox="0 0 48 48" fill="none" xmlns="http://www.w3.org/2000/svg">
<path d="M24 48C37.2548 48 48 37.2548 48 24C48 10.7452 37.2548 0 24 0C10.7452 0 0 10.7452 0 24C0 37.2548 10.7452 48 24 48Z" fill="white"/>
<path d="M18.174 21.606L24 15.78L29.829 21.609L33.219 18.219L24 9L14.784 18.216L18.174 21.606ZM9 24L12.39 20.61L15.78 24L12.39 27.39L9 24ZM18.174 26.394L24 32.22L29.829 26.391L33.219 29.7795L24 39L14.784 29.784L14.7795 29.7795L18.174 26.394ZM32.22 24L35.61 20.61L39 24L35.61 27.39L32.22 24ZM27.438 23.997H27.441V24L24 27.441L20.5635 24.006L20.5575 24L20.5635 23.9955L21.165 23.3925L21.4575 23.1L24 20.559L27.4395 23.9985L27.438 23.997Z" fill="#F3BA2F"/>
</svg>
