<svg width="48" height="48" viewBox="0 0 48 48" fill="none" xmlns="http://www.w3.org/2000/svg">
<path d="M24 48C37.2548 48 48 37.2548 48 24C48 10.7452 37.2548 0 24 0C10.7452 0 0 10.7452 0 24C0 37.2548 10.7452 48 24 48Z" fill="white"/>
<g filter="url(#filter0_d)">
<path d="M23.5873 9.09011C24.3058 8.71961 25.1833 9.57611 24.8023 10.2826C24.5788 10.8586 23.7373 11.0116 23.3083 10.5721C22.8538 10.1521 23.0023 9.31811 23.5873 9.08861V9.09011ZM15.8548 9.90911C16.2913 9.73211 16.8448 10.1251 16.7998 10.5946C16.8448 11.1016 16.2148 11.4766 15.7693 11.2351C15.1798 11.0101 15.2473 10.0681 15.8548 9.90911ZM31.6918 11.2486C31.0093 11.1676 30.9013 10.1116 31.5568 9.89861C32.0668 9.65561 32.5348 10.1131 32.6098 10.5886C32.5018 10.9936 32.1568 11.3656 31.6918 11.2486ZM17.6143 13.1461C18.3448 12.6916 19.3858 13.3681 19.2733 14.2036C19.2358 15.0451 18.0988 15.5341 17.4568 14.9641C16.8358 14.5171 16.9303 13.4911 17.6143 13.1461ZM28.7593 13.6291C29.0848 12.8041 30.4048 12.7771 30.7753 13.5811C31.1428 14.2066 30.6913 14.9821 30.0388 15.1951C29.1733 15.3541 28.3528 14.4331 28.7593 13.6291ZM22.6558 15.1486C22.6483 14.4376 23.3053 13.9096 23.9908 13.8601C24.4468 13.9501 24.9418 14.1406 25.1368 14.5921C25.5013 15.2161 25.1773 16.0726 24.5218 16.3591C24.2218 16.5241 23.8648 16.4626 23.5378 16.4431C23.0383 16.2031 22.6168 15.7276 22.6558 15.1486ZM11.1568 16.1836C11.8243 15.7786 12.7243 16.5136 12.4708 17.2276C12.3328 17.8441 11.4898 18.0946 11.0083 17.7016C10.4938 17.3326 10.5748 16.4461 11.1583 16.1821L11.1568 16.1836ZM35.8498 16.1806C36.4153 15.7486 37.3498 16.2451 37.2808 16.9471C37.3198 17.5876 36.5113 18.0721 35.9503 17.7421C35.3323 17.4676 35.2678 16.5316 35.8498 16.1821V16.1806ZM25.8898 17.4571C26.8228 17.1271 27.9328 17.5216 28.4638 18.3421C29.1658 19.3426 28.7938 20.8666 27.7033 21.4411C26.5753 22.1206 24.9268 21.5461 24.5083 20.3041C24.0358 19.1941 24.7258 17.8051 25.8883 17.4571H25.8898ZM20.4103 17.5666C21.4453 17.0866 22.8388 17.4886 23.3383 18.5296C23.9263 19.5436 23.4718 20.9551 22.4203 21.4786C21.3673 22.0681 19.8808 21.6211 19.3723 20.5336C18.8008 19.4806 19.3078 18.0511 20.4103 17.5666ZM14.9248 19.4101C15.0043 18.7546 15.6328 18.3271 16.2673 18.2821C16.5982 18.3171 16.9075 18.4632 17.1445 18.6967C17.3816 18.9302 17.5324 19.2373 17.5723 19.5676C17.5273 20.2426 16.9978 20.8996 16.2718 20.8966C15.4723 20.9641 14.7718 20.1811 14.9248 19.4101ZM31.1278 18.4261C31.9483 17.9566 33.0868 18.6391 33.0508 19.5661C33.1063 20.5486 31.8463 21.2401 31.0303 20.6641C30.1813 20.1841 30.2473 18.8341 31.1278 18.4261ZM18.1828 21.8866C19.1398 21.6271 20.2378 22.0711 20.7073 22.9381C21.2218 23.8111 21.0118 25.0231 20.2123 25.6651C19.1848 26.6041 17.2933 26.2261 16.7473 24.9451C16.1188 23.7706 16.8823 22.1956 18.1813 21.8851L18.1828 21.8866ZM28.5733 21.8821C29.5048 21.6196 30.5998 21.9721 31.1008 22.8076C31.7638 23.7631 31.4473 25.1896 30.4618 25.8046C29.4268 26.5201 27.8278 26.1451 27.2578 25.0261C26.5678 23.8696 27.2623 22.2346 28.5733 21.8821ZM12.0133 22.9711C12.8413 22.6636 13.7593 23.5621 13.4233 24.3706C13.2193 25.1056 12.1648 25.3786 11.6203 24.8356C10.9828 24.3256 11.2183 23.1931 12.0133 22.9711ZM34.4668 24.1441C34.4513 23.8139 34.5667 23.4909 34.7881 23.2454C35.0094 22.9999 35.3188 22.8517 35.6488 22.8331C36.2158 22.9231 36.7678 23.3731 36.7228 23.9806C36.7753 24.7831 35.7928 25.3276 35.0968 24.9511C34.7713 24.7876 34.6048 24.4591 34.4668 24.1441ZM7.94082 23.3701C8.43882 23.1556 9.05532 23.5801 8.94132 24.1246C8.91432 24.7411 7.98882 24.9796 7.64982 24.4636C7.34982 24.1051 7.52982 23.5546 7.94082 23.3686V23.3701ZM39.3643 23.3566C39.7153 23.1121 40.2793 23.2876 40.4173 23.6911C40.6528 24.1321 40.2208 24.7351 39.7168 24.6616C39.0088 24.7246 38.7808 23.6641 39.3643 23.3566ZM20.8888 26.3161C22.1998 25.9816 23.6098 27.0571 23.6188 28.3861C23.7028 29.7286 22.3138 30.9181 20.9728 30.6091C19.9348 30.4441 19.1203 29.4601 19.1548 28.4296C19.1518 27.4426 19.9078 26.5246 20.8888 26.3161ZM26.0818 26.3146C27.4123 25.9486 28.8643 27.0436 28.8433 28.4026C28.9138 29.7196 27.5683 30.8701 26.2543 30.6076C25.0168 30.4516 24.1048 29.1151 24.4498 27.9331C24.6238 27.1471 25.2928 26.5081 26.0818 26.3131V26.3146ZM16.0678 27.1321C16.9888 26.9776 17.8528 27.9871 17.4793 28.8481C17.2063 29.7661 15.8503 30.0136 15.2503 29.2651C14.5483 28.5451 15.0733 27.2311 16.0678 27.1321ZM31.2988 27.1726C32.1208 26.8336 33.1288 27.5326 33.0658 28.4101C33.0988 29.3746 31.8538 30.0406 31.0513 29.4766C30.1408 28.9711 30.3073 27.4816 31.2988 27.1726ZM35.5558 31.3726C35.2348 30.7831 35.8183 30.0016 36.4858 30.1111C36.8158 30.1051 37.0483 30.3616 37.2598 30.5776C37.3033 30.9271 37.3768 31.3441 37.0813 31.6126C36.6808 32.1121 35.7733 31.9696 35.5558 31.3726ZM11.1538 30.2746C11.7763 29.8681 12.6718 30.4756 12.5308 31.1896C12.4558 31.8241 11.6458 32.1856 11.1133 31.8256C10.5403 31.5001 10.5613 30.5716 11.1538 30.2746ZM23.4433 31.5991C24.2578 31.2466 25.2958 31.9441 25.2178 32.8261C25.2778 33.8011 23.9953 34.4761 23.1988 33.8911C22.3138 33.3886 22.4623 31.9096 23.4433 31.5991ZM17.7523 32.9056C18.4453 32.5471 19.3753 33.1666 19.3123 33.9316C19.3333 34.5586 18.7123 35.0926 18.0823 34.9996C17.5618 34.9891 17.2228 34.5286 17.0548 34.0921C17.0638 33.6166 17.2633 33.0871 17.7523 32.9071V32.9056ZM29.2813 32.9176C29.9953 32.4826 31.0093 33.1066 30.9418 33.9226C30.9598 34.7776 29.8138 35.3236 29.1493 34.7626C28.5073 34.3231 28.5853 33.2671 29.2813 32.9176ZM31.2868 37.7926C30.9688 37.3216 31.3423 36.7531 31.8568 36.6451C32.2723 36.7276 32.7118 37.0351 32.6233 37.5061C32.5633 38.1466 31.6123 38.3416 31.2868 37.7941V37.7926ZM15.3703 37.3831C15.4963 37.0081 15.8023 36.6376 16.2508 36.7351C16.9033 36.7801 17.0968 37.7491 16.5253 38.0476C16.0123 38.3881 15.4153 37.9216 15.3703 37.3831ZM23.0503 37.8136C23.1748 37.2586 23.9023 36.9901 24.3823 37.2841C24.7003 37.4191 24.7933 37.7671 24.8743 38.0641C24.8315 38.2184 24.7915 38.3734 24.7543 38.5291C24.5578 38.7571 24.3043 38.9866 23.9773 38.9791C23.3698 39.0496 22.8208 38.3731 23.0488 37.8136H23.0503Z" fill="#101417"/>
</g>
<path d="M23.5873 9.09011C24.3058 8.71961 25.1833 9.57611 24.8023 10.2826C24.5788 10.8586 23.7373 11.0116 23.3083 10.5721C22.8538 10.1521 23.0023 9.31811 23.5873 9.08861V9.09011ZM15.8548 9.90911C16.2913 9.73211 16.8448 10.1251 16.7998 10.5946C16.8448 11.1016 16.2148 11.4766 15.7693 11.2351C15.1798 11.0101 15.2473 10.0681 15.8548 9.90911ZM31.6918 11.2486C31.0093 11.1676 30.9013 10.1116 31.5568 9.89861C32.0668 9.65561 32.5348 10.1131 32.6098 10.5886C32.5018 10.9936 32.1568 11.3656 31.6918 11.2486ZM17.6143 13.1461C18.3448 12.6916 19.3858 13.3681 19.2733 14.2036C19.2358 15.0451 18.0988 15.5341 17.4568 14.9641C16.8358 14.5171 16.9303 13.4911 17.6143 13.1461ZM28.7593 13.6291C29.0848 12.8041 30.4048 12.7771 30.7753 13.5811C31.1428 14.2066 30.6913 14.9821 30.0388 15.1951C29.1733 15.3541 28.3528 14.4331 28.7593 13.6291ZM22.6558 15.1486C22.6483 14.4376 23.3053 13.9096 23.9908 13.8601C24.4468 13.9501 24.9418 14.1406 25.1368 14.5921C25.5013 15.2161 25.1773 16.0726 24.5218 16.3591C24.2218 16.5241 23.8648 16.4626 23.5378 16.4431C23.0383 16.2031 22.6168 15.7276 22.6558 15.1486ZM11.1568 16.1836C11.8243 15.7786 12.7243 16.5136 12.4708 17.2276C12.3328 17.8441 11.4898 18.0946 11.0083 17.7016C10.4938 17.3326 10.5748 16.4461 11.1583 16.1821L11.1568 16.1836ZM35.8498 16.1806C36.4153 15.7486 37.3498 16.2451 37.2808 16.9471C37.3198 17.5876 36.5113 18.0721 35.9503 17.7421C35.3323 17.4676 35.2678 16.5316 35.8498 16.1821V16.1806ZM25.8898 17.4571C26.8228 17.1271 27.9328 17.5216 28.4638 18.3421C29.1658 19.3426 28.7938 20.8666 27.7033 21.4411C26.5753 22.1206 24.9268 21.5461 24.5083 20.3041C24.0358 19.1941 24.7258 17.8051 25.8883 17.4571H25.8898ZM20.4103 17.5666C21.4453 17.0866 22.8388 17.4886 23.3383 18.5296C23.9263 19.5436 23.4718 20.9551 22.4203 21.4786C21.3673 22.0681 19.8808 21.6211 19.3723 20.5336C18.8008 19.4806 19.3078 18.0511 20.4103 17.5666ZM14.9248 19.4101C15.0043 18.7546 15.6328 18.3271 16.2673 18.2821C16.5982 18.3171 16.9075 18.4632 17.1445 18.6967C17.3816 18.9302 17.5324 19.2373 17.5723 19.5676C17.5273 20.2426 16.9978 20.8996 16.2718 20.8966C15.4723 20.9641 14.7718 20.1811 14.9248 19.4101ZM31.1278 18.4261C31.9483 17.9566 33.0868 18.6391 33.0508 19.5661C33.1063 20.5486 31.8463 21.2401 31.0303 20.6641C30.1813 20.1841 30.2473 18.8341 31.1278 18.4261ZM18.1828 21.8866C19.1398 21.6271 20.2378 22.0711 20.7073 22.9381C21.2218 23.8111 21.0118 25.0231 20.2123 25.6651C19.1848 26.6041 17.2933 26.2261 16.7473 24.9451C16.1188 23.7706 16.8823 22.1956 18.1813 21.8851L18.1828 21.8866ZM28.5733 21.8821C29.5048 21.6196 30.5998 21.9721 31.1008 22.8076C31.7638 23.7631 31.4473 25.1896 30.4618 25.8046C29.4268 26.5201 27.8278 26.1451 27.2578 25.0261C26.5678 23.8696 27.2623 22.2346 28.5733 21.8821ZM12.0133 22.9711C12.8413 22.6636 13.7593 23.5621 13.4233 24.3706C13.2193 25.1056 12.1648 25.3786 11.6203 24.8356C10.9828 24.3256 11.2183 23.1931 12.0133 22.9711ZM34.4668 24.1441C34.4513 23.8139 34.5667 23.4909 34.7881 23.2454C35.0094 22.9999 35.3188 22.8517 35.6488 22.8331C36.2158 22.9231 36.7678 23.3731 36.7228 23.9806C36.7753 24.7831 35.7928 25.3276 35.0968 24.9511C34.7713 24.7876 34.6048 24.4591 34.4668 24.1441ZM7.94082 23.3701C8.43882 23.1556 9.05532 23.5801 8.94132 24.1246C8.91432 24.7411 7.98882 24.9796 7.64982 24.4636C7.34982 24.1051 7.52982 23.5546 7.94082 23.3686V23.3701ZM39.3643 23.3566C39.7153 23.1121 40.2793 23.2876 40.4173 23.6911C40.6528 24.1321 40.2208 24.7351 39.7168 24.6616C39.0088 24.7246 38.7808 23.6641 39.3643 23.3566ZM20.8888 26.3161C22.1998 25.9816 23.6098 27.0571 23.6188 28.3861C23.7028 29.7286 22.3138 30.9181 20.9728 30.6091C19.9348 30.4441 19.1203 29.4601 19.1548 28.4296C19.1518 27.4426 19.9078 26.5246 20.8888 26.3161ZM26.0818 26.3146C27.4123 25.9486 28.8643 27.0436 28.8433 28.4026C28.9138 29.7196 27.5683 30.8701 26.2543 30.6076C25.0168 30.4516 24.1048 29.1151 24.4498 27.9331C24.6238 27.1471 25.2928 26.5081 26.0818 26.3131V26.3146ZM16.0678 27.1321C16.9888 26.9776 17.8528 27.9871 17.4793 28.8481C17.2063 29.7661 15.8503 30.0136 15.2503 29.2651C14.5483 28.5451 15.0733 27.2311 16.0678 27.1321ZM31.2988 27.1726C32.1208 26.8336 33.1288 27.5326 33.0658 28.4101C33.0988 29.3746 31.8538 30.0406 31.0513 29.4766C30.1408 28.9711 30.3073 27.4816 31.2988 27.1726ZM35.5558 31.3726C35.2348 30.7831 35.8183 30.0016 36.4858 30.1111C36.8158 30.1051 37.0483 30.3616 37.2598 30.5776C37.3033 30.9271 37.3768 31.3441 37.0813 31.6126C36.6808 32.1121 35.7733 31.9696 35.5558 31.3726ZM11.1538 30.2746C11.7763 29.8681 12.6718 30.4756 12.5308 31.1896C12.4558 31.8241 11.6458 32.1856 11.1133 31.8256C10.5403 31.5001 10.5613 30.5716 11.1538 30.2746ZM23.4433 31.5991C24.2578 31.2466 25.2958 31.9441 25.2178 32.8261C25.2778 33.8011 23.9953 34.4761 23.1988 33.8911C22.3138 33.3886 22.4623 31.9096 23.4433 31.5991ZM17.7523 32.9056C18.4453 32.5471 19.3753 33.1666 19.3123 33.9316C19.3333 34.5586 18.7123 35.0926 18.0823 34.9996C17.5618 34.9891 17.2228 34.5286 17.0548 34.0921C17.0638 33.6166 17.2633 33.0871 17.7523 32.9071V32.9056ZM29.2813 32.9176C29.9953 32.4826 31.0093 33.1066 30.9418 33.9226C30.9598 34.7776 29.8138 35.3236 29.1493 34.7626C28.5073 34.3231 28.5853 33.2671 29.2813 32.9176ZM31.2868 37.7926C30.9688 37.3216 31.3423 36.7531 31.8568 36.6451C32.2723 36.7276 32.7118 37.0351 32.6233 37.5061C32.5633 38.1466 31.6123 38.3416 31.2868 37.7941V37.7926ZM15.3703 37.3831C15.4963 37.0081 15.8023 36.6376 16.2508 36.7351C16.9033 36.7801 17.0968 37.7491 16.5253 38.0476C16.0123 38.3881 15.4153 37.9216 15.3703 37.3831ZM23.0503 37.8136C23.1748 37.2586 23.9023 36.9901 24.3823 37.2841C24.7003 37.4191 24.7933 37.7671 24.8743 38.0641C24.8315 38.2184 24.7915 38.3734 24.7543 38.5291C24.5578 38.7571 24.3043 38.9866 23.9773 38.9791C23.3698 39.0496 22.8208 38.3731 23.0488 37.8136H23.0503Z" fill="#0D1E30"/>
<defs>
<filter id="filter0_d" x="6.50049" y="8.50073" width="34.9829" height="31.9835" filterUnits="userSpaceOnUse" color-interpolation-filters="sRGB">
<feFlood flood-opacity="0" result="BackgroundImageFix"/>
<feColorMatrix in="SourceAlpha" type="matrix" values="0 0 0 0 0 0 0 0 0 0 0 0 0 0 0 0 0 0 127 0"/>
<feOffset dy="0.5"/>
<feGaussianBlur stdDeviation="0.5"/>
<feColorMatrix type="matrix" values="0 0 0 0 0 0 0 0 0 0 0 0 0 0 0 0 0 0 0.204257 0"/>
<feBlend mode="normal" in2="BackgroundImageFix" result="effect1_dropShadow"/>
<feBlend mode="normal" in="SourceGraphic" in2="effect1_dropShadow" result="shape"/>
</filter>
</defs>
</svg>
