<svg width="48" height="48" viewBox="0 0 48 48" fill="none" xmlns="http://www.w3.org/2000/svg">
<path d="M24 48C37.2548 48 48 37.2548 48 24C48 10.7452 37.2548 0 24 0C10.7452 0 0 10.7452 0 24C0 37.2548 10.7452 48 24 48Z" fill="white"/>
<path fill-rule="evenodd" clip-rule="evenodd" d="M14 29.2514V33.9441C14.1698 33.9441 14.2831 33.9441 14.4529 34H25.606C25.6528 33.9954 25.7 33.9908 25.7476 33.9861C26.2748 33.9345 26.8417 33.879 27.361 33.7765C30.6446 33.0503 32.5695 30.9832 33.4754 27.9106C34.1547 25.5642 34.1547 23.162 33.5886 20.8156C33.2489 19.419 32.6261 18.1899 31.7203 17.1285C30.7012 15.8994 29.3991 15.0615 27.9271 14.5028C27.1912 14.2235 26.3986 14 25.606 14H14V18.5251H16.7741V29.2514H14ZM23.0581 29.2638C22.8506 29.2576 22.643 29.2514 22.4354 29.2514V18.5251C22.6599 18.5251 22.889 18.5162 23.12 18.5071C23.7045 18.4842 24.3017 18.4609 24.8698 18.581C25.3793 18.6369 25.8323 19.0838 26.1719 19.4748C26.7381 20.1452 27.191 20.9832 27.3608 21.8771C27.7005 23.3855 27.8704 24.8938 27.4175 26.4022C27.191 27.0726 26.7947 27.6871 26.3418 28.2458C25.8323 28.9162 25.0963 29.1955 24.3037 29.2514C23.8885 29.2886 23.4733 29.2762 23.0581 29.2638Z" fill="#F8BF1A"/>
</svg>
