<svg width="88" height="88" viewBox="0 0 88 88" fill="none" xmlns="http://www.w3.org/2000/svg">
<circle cx="44" cy="44" r="44" fill="white"/>
<path d="M43.154 22C43.154 22.139 43.154 22.278 43.154 22.4171C43.154 27.5608 43.154 32.7741 43.154 37.9179C43.154 37.9874 43.154 38.1264 43.154 38.1959C43.154 38.2654 43.0835 38.3349 43.013 38.3349C42.5194 38.5434 42.0963 38.752 41.6027 38.9605C40.9681 39.2385 40.263 39.5166 39.6284 39.8641C38.8527 40.2117 38.0771 40.5592 37.3014 40.9068C36.6668 41.1848 36.0322 41.4629 35.3976 41.7409C34.622 42.0885 33.8463 42.436 33.0707 42.7836C32.4361 43.0616 31.8014 43.3397 31.0963 43.6872C30.6027 43.8957 30.0386 44.1738 29.545 44.3823C29.4745 44.3823 29.4745 44.4518 29.404 44.3823C29.404 44.3823 29.404 44.3823 29.3335 44.3823C29.545 44.0348 29.7566 43.7567 29.9681 43.4092C31.0963 41.5324 32.295 39.6556 33.4232 37.7788C34.622 35.763 35.8912 33.7472 37.0899 31.7314C38.2181 29.8547 39.3463 27.9779 40.4745 26.1706C41.3207 24.7804 42.1668 23.4597 42.9425 22.0695C43.0835 22.0695 43.0835 22 43.154 22C43.154 22 43.0835 22 43.154 22Z" fill="#8A92B2"/>
<path d="M56.8335 44.3823C55.7758 45.0774 54.6476 45.703 53.5899 46.3286C50.1348 48.3444 46.7502 50.2907 43.295 52.3065C43.2245 52.3065 43.2245 52.376 43.154 52.376C43.0835 52.376 43.0835 52.3065 43.0835 52.3065C43.0835 52.2369 43.0835 52.1674 43.0835 52.0979C43.0835 47.5798 43.0835 43.0616 43.0835 38.5434C43.0835 38.4739 43.0835 38.4044 43.0835 38.3349C43.0835 38.2654 43.154 38.2654 43.2245 38.2654C43.5066 38.4044 43.7886 38.5434 44.1412 38.6824C44.9873 39.0995 45.904 39.4471 46.7502 39.8641C47.5258 40.2117 48.2309 40.5592 49.0066 40.8373C49.7822 41.1848 50.4873 41.5324 51.263 41.8799C51.8976 42.158 52.6027 42.436 53.2373 42.7835C53.872 43.0616 54.5771 43.3396 55.2117 43.6872C55.7053 43.8957 56.1989 44.1738 56.763 44.3823C56.763 44.3128 56.763 44.3823 56.8335 44.3823Z" fill="#454A75"/>
<path d="M43.1528 66C43.1528 66 43.0823 66 43.1528 66C43.0823 66 43.0823 66 43.0118 65.9305C41.6016 63.9842 40.2618 62.1074 38.8516 60.1611C37.4413 58.2148 36.031 56.2685 34.6208 54.3223C33.281 52.4455 31.8708 50.5687 30.531 48.6224C30.1785 48.1358 29.8259 47.6493 29.4733 47.1627C29.4733 47.0932 29.4028 47.0932 29.4028 47.0237C29.4733 47.0237 29.4733 47.0932 29.5439 47.0932C31.4477 48.2054 33.4221 49.3175 35.3259 50.4297C37.5118 51.7504 39.7682 53.0016 41.9541 54.3223C42.3067 54.5308 42.7298 54.7393 43.0823 54.9479C43.1528 54.9479 43.1528 55.0174 43.1528 55.0869C43.1528 55.1564 43.1528 55.2259 43.1528 55.2954C43.1528 58.7709 43.1528 62.1769 43.1528 65.6524C43.1528 65.7219 43.1528 65.861 43.1528 66Z" fill="#8A92B2"/>
<path d="M29.4746 44.4517C29.4746 44.3822 29.4746 44.3822 29.4746 44.4517C30.1797 44.1042 30.8849 43.8261 31.59 43.4786C32.5067 43.0615 33.4233 42.6445 34.34 42.2274C35.0451 41.8798 35.7502 41.6018 36.4554 41.2543C37.4426 40.7677 38.5002 40.3506 39.4874 39.864C40.1926 39.586 40.8977 39.2385 41.6028 38.9604C42.0964 38.7519 42.59 38.5434 43.0836 38.2653C43.1541 38.2653 43.1541 38.1958 43.2246 38.1958C43.2246 38.1958 43.2246 38.1958 43.2246 38.2653C43.2246 38.3348 43.2246 38.3348 43.2246 38.4043C43.2246 42.992 43.2246 47.5797 43.2246 52.1674C43.2246 52.2369 43.2246 52.3064 43.2246 52.3759C43.1541 52.4454 43.1541 52.3759 43.0836 52.3759C42.872 52.2369 42.6605 52.1674 42.5195 52.0283C38.2182 49.526 33.9169 47.0236 29.6156 44.5212C29.5451 44.4517 29.4746 44.4517 29.4746 44.4517Z" fill="#62688F"/>
<path d="M56.7633 47.0237C56.7633 47.0932 56.7633 47.0932 56.6928 47.1627C52.603 52.8625 48.5133 58.4929 44.4235 64.1927C44.0005 64.8183 43.5774 65.3744 43.1543 66C43.1543 66 43.1543 66 43.1543 65.9305C43.1543 65.861 43.1543 65.861 43.1543 65.7915C43.1543 62.2464 43.1543 58.7014 43.1543 55.1564C43.1543 55.0869 43.1543 55.0174 43.1543 54.9479C44.071 54.3918 44.9876 53.8357 45.9043 53.3491C49.5004 51.2638 53.0966 49.1785 56.6928 47.0932C56.6928 47.0237 56.7633 47.0237 56.7633 47.0237Z" fill="#62688F"/>
<path d="M43.1543 38.2652C43.1543 38.1957 43.1543 38.1262 43.1543 38.1262C43.1543 32.8434 43.1543 27.4911 43.1543 22.2084C43.1543 22.1388 43.1543 22.0693 43.1543 22.0693C47.6671 29.4374 52.1799 36.8055 56.6927 44.1736C56.7633 44.2431 56.8338 44.3126 56.8338 44.3821C56.5517 44.2431 56.2697 44.1041 55.9171 43.9651C55.5645 43.8261 55.212 43.6175 54.8594 43.4785C54.6479 43.409 54.4363 43.27 54.1543 43.2005C53.8017 43.0614 53.3786 42.8529 53.0261 42.7139C52.8145 42.6444 52.603 42.5054 52.3915 42.4358C51.8979 42.2273 51.4043 42.0188 50.9107 41.8103C50.6287 41.6712 50.4171 41.6017 50.1351 41.4627C49.7825 41.3237 49.4299 41.1152 49.0774 40.9761C48.8658 40.9066 48.6543 40.7676 48.4428 40.6981C47.9492 40.4896 47.4556 40.281 46.962 40.0725C46.6799 39.9335 46.4684 39.864 46.1863 39.7249C45.8338 39.5859 45.4812 39.3774 45.1287 39.2384C44.9171 39.0994 44.6351 39.0298 44.4235 38.8908C44.0005 38.6823 43.5774 38.4738 43.1543 38.2652Z" fill="#62688F"/>
</svg>
