<svg width="48" height="48" viewBox="0 0 48 48" fill="none" xmlns="http://www.w3.org/2000/svg">
<circle cx="24" cy="24" r="24" fill="white"/>
<path d="M25 30.5C22.49 30.5 20.32 29.08 19.24 27H25V25H18.58C18.53 24.67 18.5 24.34 18.5 24C18.5 23.66 18.53 23.33 18.58 23H25V21H19.24C20.32 18.92 22.5 17.5 25 17.5C26.61 17.5 28.09 18.09 29.23 19.07L31 17.3C29.41 15.87 27.3 15 25 15C21.08 15 17.76 17.51 16.52 21H13V23H16.06C16.02 23.33 16 23.66 16 24C16 24.34 16.02 24.67 16.06 25H13V27H16.52C17.76 30.49 21.08 33 25 33C27.31 33 29.41 32.13 31 30.7L29.22 28.93C28.09 29.91 26.62 30.5 25 30.5Z" fill="#627EEA"/>
</svg>
