<svg width="121" height="121" viewBox="0 0 121 121" fill="none" xmlns="http://www.w3.org/2000/svg">
<path d="M60.1051 104.098C84.4016 104.098 104.098 84.4016 104.098 60.1051C104.098 35.8086 84.4016 16.1125 60.1051 16.1125C35.8086 16.1125 16.1125 35.8086 16.1125 60.1051C16.1125 84.4016 35.8086 104.098 60.1051 104.098Z" fill="white"/>
<path fill-rule="evenodd" clip-rule="evenodd" d="M39.9936 54.0662C39.5035 54.3535 39.0135 54.6408 38.5109 54.915C38.738 55.3408 38.9743 55.7764 39.2116 56.2129C39.2455 56.2753 39.2794 56.3377 39.3133 56.4001C39.6351 56.9919 39.9569 57.5838 40.2592 58.155C40.3302 58.3989 40.4942 58.4018 40.6655 58.2431C40.8307 58.1508 40.9992 58.0555 41.1709 57.9583C41.8746 57.5601 42.6327 57.1312 43.4415 56.7554C44.4475 56.2878 45.5809 56.6313 46.0362 57.4481C49.0814 62.6778 51.9626 67.9046 54.8438 73.1314C55.3064 73.7865 55.1057 74.5917 54.2636 75.0622C53.5855 75.5355 52.7434 76.0059 51.987 76.3969C51.73 76.635 51.6443 76.7144 51.7936 77.0405C52.1633 77.9367 52.5256 78.9944 52.8878 80.0522C52.9588 80.2961 53.0317 80.4996 53.1045 80.7031C53.1773 80.9065 53.2501 81.11 53.3211 81.3538C55.847 79.9428 58.2882 78.6105 60.7285 77.2788C60.8203 77.3752 60.8558 77.4706 60.8852 77.5496C60.906 77.6055 60.9237 77.6532 60.9562 77.6872C61.7811 79.4001 62.7701 81.116 63.759 82.8318C63.83 83.0756 63.9083 83.1579 64.2437 83.0021C65.2571 82.3729 66.2706 81.7438 67.3623 81.1969C67.6578 81.0596 67.6321 80.9794 67.5733 80.7955C67.5654 80.7707 67.5568 80.7439 67.5484 80.7149C67.2815 80.2654 67.0361 79.796 66.7907 79.3267C66.5453 78.8573 66.2999 78.388 66.0331 77.9384C65.7663 77.4889 65.5209 77.0196 65.2755 76.5502C65.0301 76.0808 64.7847 75.6115 64.5179 75.162C65.4455 74.6123 66.2878 74.1417 67.1298 73.6714C67.3098 73.6162 67.3562 73.6848 67.4268 73.789C67.4541 73.8294 67.4851 73.8751 67.5288 73.921C68.3537 75.6339 69.3427 77.3498 70.3316 79.0656C70.4026 79.3094 70.481 79.3917 70.8163 79.2359C71.2802 78.961 71.7851 78.6868 72.29 78.4126C72.7949 78.1385 73.2997 77.8643 73.7636 77.5894C74.3235 77.3671 74.2759 77.2822 74.0712 76.9174L74.0427 76.8664C73.5874 76.0496 73.1124 75.2123 72.6375 74.3749C72.1627 73.5376 71.6878 72.7003 71.2325 71.8835C71.0832 71.5574 71.1762 71.3164 71.5116 71.1606C73.4601 69.82 75.3303 68.3972 76.8945 66.4838C78.1087 65.0494 78.7599 63.3625 78.684 61.4201C78.5934 59.801 78.0818 58.4171 77.3278 56.9481C76.7232 55.8052 75.8689 54.7387 74.8359 53.9927C73.3965 53.1585 71.8494 52.8887 70.1163 53.1007C69.8275 53.1361 69.5582 53.192 69.2889 53.2479C69.0197 53.3038 68.7504 53.3597 68.4615 53.3951C68.5619 53.3021 68.606 53.2081 68.6425 53.1303C68.6684 53.0752 68.6904 53.0282 68.7259 52.9954C69.1763 52.1137 69.5484 51.1497 69.5925 50.18C69.6512 48.887 69.2106 47.747 68.606 46.6041C67.6954 44.9705 66.3564 43.7338 64.4103 43.2143C63.0272 42.9473 61.6295 43.0035 60.3027 43.3036L56.3004 44.6889C55.965 44.8447 55.801 44.8418 55.6517 44.5157C55.4314 43.9457 55.1254 43.455 54.8194 42.9644C54.1364 41.7392 53.4535 40.5141 52.6922 39.2066C52.6493 39.2463 52.6083 39.2456 52.5673 39.2449C52.5263 39.2442 52.4853 39.2434 52.4425 39.2831C51.9352 39.5529 51.4583 39.8233 50.9926 40.0873C50.3772 40.4362 49.7812 40.7741 49.1598 41.0854C48.9101 41.1619 48.9028 41.3235 49.0595 41.488L49.7424 42.7132C50.418 44.1 51.101 45.3251 51.8623 46.6326C51.8598 46.6864 51.8661 46.7494 51.8724 46.8125C51.8849 46.9385 51.8974 47.0645 51.8403 47.1174C51.4192 47.3526 50.9763 47.6079 50.5338 47.863C50.0915 48.118 49.6492 48.3729 49.2283 48.608C49.1573 48.3642 49.079 48.2819 49.0007 48.1996C48.5454 47.3829 48.0705 46.5455 47.5956 45.7082C47.1207 44.8708 46.6458 44.0335 46.1905 43.2167C46.1195 42.9728 46.0412 42.8906 45.7058 43.0464C44.6924 43.6756 43.7646 44.2254 42.6728 44.7722C42.3375 44.9281 42.3301 45.0897 42.4795 45.4158C42.9739 46.2737 43.4489 47.1111 43.9237 47.9484C43.9831 48.0531 44.043 48.1587 44.1024 48.2634C44.518 48.996 44.9355 49.7307 45.368 50.481C45.5173 50.8072 45.51 50.9688 45.1746 51.1246C44.5859 51.4377 44.0167 51.7714 43.4476 52.1051C42.8785 52.4388 42.3093 52.7725 41.7206 53.0856C41.1319 53.3988 40.5627 53.7325 39.9936 54.0662ZM61.9843 71.3162C62.07 71.2368 62.234 71.2397 62.234 71.2397C62.4977 71.0924 62.7655 70.9451 63.0355 70.7966C64.4893 69.997 66.0067 69.1625 67.3012 68.094C68.4076 67.2238 69.3501 66.3508 69.9792 65.1488C71.1371 63.1473 69.8642 60.456 67.6684 60.0129C66.6133 59.7517 65.5363 59.9753 64.4592 60.199C62.202 60.7872 60.1454 62.0647 58.1731 63.2899L57.9942 63.4009C57.6886 63.543 57.7266 63.6239 57.8488 63.8841C57.8606 63.9093 57.8733 63.9363 57.8865 63.9652C58.1925 64.4558 58.4575 64.9457 58.7225 65.4357C58.9875 65.9256 59.2525 66.4155 59.5584 66.9062C59.9881 67.7432 60.4455 68.5545 60.9135 69.3846C61.2669 70.0114 61.6263 70.6488 61.9843 71.3162ZM61.977 55.2218C61.7126 55.6216 61.3626 56.1006 61.1912 56.2594C60.1969 57.1804 59.2142 57.8464 58.1991 58.5343C57.8148 58.7948 57.4258 59.0584 57.0298 59.3402C56.8193 59.4578 56.6301 59.5556 56.441 59.6533C56.2519 59.7511 56.0628 59.8488 55.8523 59.9664C55.6026 60.0429 55.4386 60.04 55.3677 59.7962C54.2367 57.5926 53.0985 55.5506 51.8819 53.4264C51.7325 53.1003 51.7399 52.9387 52.0752 52.7828C52.3926 52.6118 52.7035 52.4407 53.0111 52.2714C54.2526 51.5879 55.4397 50.9344 56.7777 50.4394C57.8621 50.0542 59.1032 49.8334 60.2366 50.1769C62.425 50.7816 63.2916 53.3849 61.977 55.2218Z" fill="#8DC351"/>
</svg>
