<svg width="163" height="48" viewBox="0 0 163 48" fill="none" xmlns="http://www.w3.org/2000/svg">
<path d="M24.0342 8.00021H29.6486V0C29.6486 0 23.7535 0 23.6113 0.00622875C10.5372 0.24915 -0.00292969 10.8953 -0.00292969 24.0006C-0.00292969 37.2479 10.768 47.9888 24.0342 48H29.6486V39.9998H24.0342C21.6001 39.9903 19.2 39.428 17.0157 38.3553C14.8315 37.2826 12.9203 35.7277 11.427 33.8084C9.93365 31.889 8.8973 29.6555 8.39642 27.2771C7.89554 24.8986 7.94326 22.4376 8.53596 20.0802C9.43935 23.4964 11.4495 26.5182 14.2529 28.6742C17.0564 30.8303 20.4956 31.9995 24.0342 31.9996H29.6486V24.0006H24.0342C19.64 24.0006 16.0655 20.3879 16.0655 16.0004C16.0655 11.6129 19.64 8.00021 24.0342 8.00021Z" fill="#0057FF"/>
<path d="M45.6641 17.0167V12.6217C45.6641 9.50733 47.553 7.72217 51.0389 7.72217C52.5199 7.72217 53.7463 8.13077 54.7008 8.92805C55.6552 9.72533 56.1443 10.9113 56.1443 12.5245V12.7189H53.1088V12.5245C53.1088 11.1243 52.1107 10.4828 50.8493 10.4828C49.4087 10.4828 48.6884 11.1247 48.6884 12.4087V17.231C48.6884 18.5141 49.4087 19.1557 50.8493 19.1557C52.1543 19.1557 53.1088 18.5727 53.1088 17.1139V16.9195H56.1443V17.1139C56.1443 18.7334 55.6577 19.933 54.7033 20.7266C53.7488 21.5201 52.5224 21.9138 51.0414 21.9138C47.558 21.9175 45.6641 20.1274 45.6641 17.0167Z" fill="#101417"/>
<path d="M58.5146 21.625V8.01392H64.4347C67.2482 8.01392 68.7453 9.56986 68.7453 12.2918C68.7453 14.1393 68.0255 15.461 66.5645 16.2197L69.1359 20.6334V21.63H66.1902L63.3468 16.5685H61.5352V21.6237L58.5146 21.625ZM61.5327 14.0608H63.9282C65.0972 14.0608 65.6811 13.5749 65.6811 12.3304C65.6811 11.1059 65.0972 10.6387 63.9282 10.6387H61.5327V14.0608Z" fill="#101417"/>
<path d="M75.1689 21.6248V16.2395L70.7871 9.00539V8.00879H73.7665L76.7072 13.4141L79.8039 8.00879H82.5949V9.00539L78.2131 16.1224V21.6248H75.1689Z" fill="#101417"/>
<path d="M84.3413 21.625V8.01392H90.4548C92.889 8.01392 94.35 9.66703 94.35 12.2918C94.35 14.9166 92.8902 16.5498 90.4548 16.5498H87.3594V21.625H84.3413ZM87.3594 13.925H89.8909C90.6507 13.925 91.2932 13.3806 91.2932 12.2918C91.2932 11.203 90.6507 10.6387 89.8909 10.6387H87.3594V13.925Z" fill="#101417"/>
<path d="M99.1801 21.625V10.6387H95.4209V8.01392H105.937V10.6387H102.194V21.625H99.1801Z" fill="#101417"/>
<path d="M118.432 16.9968C118.432 18.534 117.944 19.7374 116.951 20.6095C115.958 21.4815 114.634 21.9125 112.958 21.9125C111.283 21.9125 109.964 21.484 108.966 20.6095C107.968 19.7349 107.485 18.529 107.485 16.9968V12.6616C107.485 9.54719 109.588 7.72217 112.958 7.72217C116.328 7.72217 118.43 9.54968 118.43 12.6616L118.432 16.9968ZM115.412 12.5121C115.412 11.4034 114.575 10.489 112.96 10.489C111.344 10.489 110.505 11.4034 110.505 12.5121V17.14C110.505 18.2475 111.343 19.1619 112.96 19.1619C114.576 19.1619 115.407 18.2413 115.407 17.1338L115.412 12.5121Z" fill="#101417"/>
<path d="M46.3843 39.9888V26.3752H52.4978C54.9319 26.3752 56.3929 28.0284 56.3929 30.6532C56.3929 33.2779 54.9319 34.9111 52.4978 34.9111H49.4073V39.9888H46.3843ZM49.4073 32.2863H51.9401C52.6986 32.2863 53.3424 31.7419 53.3424 30.6532C53.3424 29.5644 52.6986 29 51.9401 29H49.4073V32.2863Z" fill="#101417"/>
<path d="M58.5146 39.9888V26.3752H64.4347C67.2482 26.3752 68.7453 27.9299 68.7453 30.6532C68.7453 32.5006 68.0255 33.8223 66.5645 34.581L69.1309 38.9922V39.9888H66.1902L63.3468 34.9311H61.5352V39.9888H58.5146ZM61.5327 32.4246H63.9282C65.0972 32.4246 65.6811 31.9388 65.6811 30.6943C65.6811 29.4697 65.0972 29.0025 63.9282 29.0025H61.5327V32.4246Z" fill="#101417"/>
<path d="M81.9258 35.3579C81.9258 36.8939 81.4392 38.0986 80.4461 38.9706C79.453 39.8426 78.128 40.2724 76.4536 40.2724C74.7793 40.2724 73.4593 39.8451 72.4612 38.9706C71.463 38.0961 70.9814 36.889 70.9814 35.3579V31.019C70.9814 27.9046 73.0837 26.0808 76.4536 26.0808C79.8235 26.0808 81.9258 27.9083 81.9258 31.019V35.3579ZM78.9077 30.8657C78.9077 29.7583 78.0693 28.8439 76.4536 28.8439C74.8379 28.8439 73.9995 29.7583 73.9995 30.8657V35.495C73.9995 36.6024 74.8367 37.5168 76.4536 37.5168C78.0706 37.5168 78.9077 36.6024 78.9077 35.495V30.8657Z" fill="#101417"/>
<path d="M84.147 35.3795V30.9833C84.147 27.8689 86.0359 26.0837 89.5218 26.0837C91.0015 26.0837 92.2279 26.4911 93.1824 27.2884C94.1368 28.0857 94.6234 29.2729 94.6234 30.8861V31.0804H91.5854V30.8861C91.5854 29.4859 90.5873 28.8443 89.3272 28.8443C87.8857 28.8443 87.165 29.4859 87.165 30.769V35.5925C87.165 36.8757 87.8857 37.5172 89.3272 37.5172C90.631 37.5172 91.5854 36.9342 91.5854 35.4754V35.2811H94.6234V35.4754C94.6234 37.0949 94.1368 38.2946 93.1824 39.0881C92.2279 39.8817 91.0015 40.2741 89.5218 40.2741C86.0359 40.2778 84.147 38.4939 84.147 35.3795Z" fill="#101417"/>
<path d="M97.019 39.9888V26.3752H106.002V29H100.038V31.9163H105.101V34.4253H100.038V37.3615H106.036V39.9888H97.019Z" fill="#101417"/>
<path d="M109.123 39.0533C108.091 38.2361 107.584 37.0701 107.584 35.5727H110.604C110.59 36.0175 110.751 36.45 111.052 36.7786C111.676 37.3815 112.414 37.5173 113.291 37.5173C114.596 37.5173 115.277 37.0115 115.277 36.2142C115.281 36.0339 115.231 35.8566 115.134 35.7045C115.037 35.5523 114.897 35.4319 114.732 35.3584C114.358 35.1454 113.68 34.8726 112.667 34.5424L111.577 34.1687C110.565 33.8386 109.921 33.5459 109.123 32.9442C108.344 32.3412 107.916 31.4268 107.916 30.2608C107.916 28.9964 108.364 27.9848 109.279 27.2274C110.193 26.47 111.441 26.0801 113.022 26.0801C114.56 26.0801 115.806 26.4688 116.765 27.266C117.723 28.0633 118.187 29.2106 118.187 30.7267H115.141C115.141 29.481 114.187 28.8407 112.941 28.8407C111.694 28.8407 110.973 29.3078 110.973 30.1051C110.973 30.5324 111.168 30.7467 111.461 30.9771C111.616 31.1129 112.006 31.2499 112.219 31.3272L113.218 31.6772L114.231 32.0273C116.859 32.9417 118.34 33.952 118.34 36.0523C118.34 38.5999 116.469 40.2716 113.023 40.2716C111.461 40.2779 110.156 39.8705 109.123 39.0533Z" fill="#101417"/>
<path d="M121.422 39.0533C120.39 38.2361 119.883 37.0701 119.883 35.5727H122.901C122.888 36.0175 123.049 36.45 123.349 36.7786C123.973 37.3815 124.713 37.5173 125.595 37.5173C126.9 37.5173 127.581 37.0115 127.581 36.2143C127.584 36.0339 127.535 35.8566 127.438 35.7045C127.341 35.5523 127.201 35.432 127.036 35.3584C126.662 35.1454 125.984 34.8726 124.972 34.5425L123.882 34.1687C122.869 33.8386 122.226 33.5459 121.428 32.9442C120.649 32.3412 120.22 31.4268 120.22 30.2608C120.22 28.9964 120.668 27.9848 121.584 27.2274C122.5 26.47 123.745 26.0801 125.327 26.0801C126.865 26.0801 128.112 26.4688 129.07 27.266C130.028 28.0633 130.491 29.2106 130.491 30.7267H127.453C127.453 29.481 126.498 28.8407 125.252 28.8407C124.006 28.8407 123.268 29.3116 123.268 30.1088C123.268 30.5361 123.463 30.7504 123.755 30.9809C123.911 31.1166 124.3 31.2537 124.515 31.3309L125.513 31.681L126.526 32.031C129.155 32.9454 130.634 33.9557 130.634 36.056C130.634 38.6036 128.763 40.2754 125.318 40.2754C123.758 40.2779 122.453 39.8705 121.422 39.0533Z" fill="#101417"/>
<path d="M133.067 39.9888V26.3752H136.087V39.9888H133.067Z" fill="#101417"/>
<path d="M139.086 39.9888V26.3752H141.851L146.7 34.3667V26.3752H149.718V39.9888H146.954L142.108 31.9948V39.9888H139.086Z" fill="#101417"/>
<path d="M153.672 38.9561C152.776 38.0616 152.328 36.8757 152.328 35.3783V30.9833C152.328 27.8913 154.333 26.0837 157.78 26.0837C159.319 26.0837 160.565 26.4911 161.54 27.3295C162.514 28.1679 163 29.3314 163 30.8288H159.962C159.962 29.6042 159.027 28.8456 157.606 28.8456C156.108 28.8456 155.346 29.6042 155.346 30.8487V35.3795C155.346 36.6253 156.165 37.5185 157.567 37.5185C158.055 37.5284 158.538 37.4182 158.973 37.1977C159.408 36.9772 159.782 36.6531 160.062 36.254V35.0482H157.725V32.5392H163.003V39.9888H161.381L160.757 38.7829C160.075 39.6973 158.77 40.2778 157.369 40.2778C155.814 40.2778 154.584 39.8306 153.672 38.9561Z" fill="#101417"/>
</svg>
