<svg width="246" height="72" viewBox="0 0 246 72" fill="none" xmlns="http://www.w3.org/2000/svg">
<path d="M98.1294 53.8121C97.8533 53.8121 97.6294 53.5882 97.6294 53.3121V40.6001C97.6294 40.3239 97.8533 40.1001 98.1294 40.1001H104.021C105.12 40.1001 106.082 40.3009 106.906 40.7026C107.731 41.1044 108.372 41.669 108.83 42.3966C109.288 43.1241 109.517 43.9744 109.517 44.9475C109.517 45.9295 109.28 46.7798 108.808 47.4984C108.34 48.217 107.682 48.7705 106.834 49.1588C105.99 49.5472 105.005 49.7413 103.877 49.7413H102.15C101.873 49.7413 101.65 49.9652 101.65 50.2413V53.3121C101.65 53.5882 101.426 53.8121 101.15 53.8121H98.1294ZM101.65 46.349C101.65 46.6251 101.873 46.849 102.15 46.849H103.067C103.771 46.849 104.323 46.6793 104.723 46.3401C105.123 45.9964 105.323 45.5322 105.323 44.9475C105.323 44.3583 105.123 43.8985 104.723 43.5682C104.323 43.2379 103.771 43.0728 103.067 43.0728H102.15C101.873 43.0728 101.65 43.2966 101.65 43.5728V46.349Z" fill="white"/>
<path d="M113.188 53.8121C112.912 53.8121 112.688 53.5882 112.688 53.3121V40.6001C112.688 40.3239 112.912 40.1001 113.188 40.1001H119.08C120.179 40.1001 121.141 40.2853 121.965 40.6558C122.79 41.0263 123.431 41.5596 123.889 42.256C124.347 42.9523 124.576 43.787 124.576 44.76C124.576 45.7107 124.351 46.5164 123.903 47.177C123.558 47.6917 123.108 48.113 122.555 48.4407C122.299 48.5925 122.191 48.9212 122.342 49.178L124.624 53.0586C124.82 53.392 124.58 53.8121 124.193 53.8121H120.989C120.81 53.8121 120.645 53.7165 120.556 53.5614L118.241 49.5368C118.152 49.3817 117.987 49.286 117.808 49.286H117.209C116.932 49.286 116.709 49.5099 116.709 49.786V53.3121C116.709 53.5882 116.485 53.8121 116.209 53.8121H113.188ZM116.709 45.8937C116.709 46.1698 116.932 46.3937 117.209 46.3937H118.126C118.83 46.3937 119.382 46.2687 119.782 46.0187C120.182 45.7643 120.382 45.3447 120.382 44.76C120.382 44.1708 120.182 43.7423 119.782 43.4745C119.382 43.2067 118.83 43.0728 118.126 43.0728H117.209C116.932 43.0728 116.709 43.2966 116.709 43.5728V45.8937Z" fill="white"/>
<path d="M142.332 46.9561C142.332 48.4826 142.011 49.7703 141.37 50.8193C140.729 51.8637 139.863 52.656 138.774 53.1961C137.685 53.7317 136.47 53.9996 135.13 53.9996C133.78 53.9996 132.561 53.7295 131.471 53.1894C130.387 52.6449 129.524 51.8504 128.883 50.8059C128.246 49.757 127.928 48.4737 127.928 46.9561C127.928 45.4295 128.246 44.144 128.883 43.0996C129.524 42.0506 130.387 41.2584 131.471 40.7227C132.561 40.1826 133.78 39.9126 135.13 39.9126C136.47 39.9126 137.685 40.1826 138.774 40.7227C139.863 41.2584 140.729 42.0506 141.37 43.0996C142.011 44.144 142.332 45.4295 142.332 46.9561ZM138.196 46.9561C138.196 45.7241 137.933 44.7823 137.407 44.1307C136.887 43.479 136.128 43.1531 135.13 43.1531C134.132 43.1531 133.37 43.479 132.845 44.1307C132.324 44.7823 132.064 45.7241 132.064 46.9561C132.064 48.188 132.324 49.1298 132.845 49.7815C133.37 50.4332 134.132 50.759 135.13 50.759C136.128 50.759 136.887 50.4332 137.407 49.7815C137.933 49.1298 138.196 48.188 138.196 46.9561Z" fill="white"/>
<path d="M159.641 44.6979C159.692 44.9881 159.459 45.2421 159.164 45.2421H156.091C155.833 45.2421 155.623 45.0431 155.556 44.7937C155.442 44.3712 155.223 44.0163 154.898 43.7289C154.469 43.3451 153.866 43.1531 153.09 43.1531C152.078 43.1531 151.304 43.4901 150.769 44.1641C150.234 44.8337 149.966 45.7643 149.966 46.9561C149.966 48.2148 150.236 49.1633 150.776 49.8016C151.321 50.4399 152.083 50.759 153.061 50.759C153.799 50.759 154.387 50.5894 154.825 50.2502C155.156 49.9911 155.391 49.6635 155.53 49.2674C155.611 49.0367 155.815 48.8587 156.059 48.8603L159.174 48.8808C159.465 48.8827 159.695 49.133 159.634 49.4177C159.546 49.8259 159.397 50.2396 159.186 50.6586C158.882 51.2567 158.45 51.8102 157.891 52.319C157.337 52.8234 156.65 53.2296 155.831 53.5376C155.011 53.8456 154.059 53.9996 152.974 53.9996C151.615 53.9996 150.395 53.7295 149.316 53.1894C148.241 52.6493 147.39 51.8548 146.763 50.8059C146.141 49.757 145.831 48.4737 145.831 46.9561C145.831 45.4295 146.149 44.144 146.785 43.0996C147.421 42.0506 148.279 41.2584 149.359 40.7227C150.439 40.1826 151.644 39.9126 152.974 39.9126C154.218 39.9126 155.327 40.1202 156.301 40.5353C157.279 40.9504 158.065 41.5552 158.658 42.3497C159.157 43.0139 159.485 43.7966 159.641 44.6979Z" fill="white"/>
<path d="M163.734 53.8121C163.458 53.8121 163.234 53.5882 163.234 53.3121V40.6001C163.234 40.3239 163.458 40.1001 163.734 40.1001H173.406C173.683 40.1001 173.906 40.3239 173.906 40.6001V42.5996C173.906 42.8757 173.683 43.0996 173.406 43.0996H167.754C167.478 43.0996 167.254 43.3234 167.254 43.5996V44.9563C167.254 45.2325 167.478 45.4563 167.754 45.4563H172.857C173.133 45.4563 173.357 45.6802 173.357 45.9563V47.9558C173.357 48.232 173.133 48.4558 172.857 48.4558H167.754C167.478 48.4558 167.254 48.6797 167.254 48.9558V50.3126C167.254 50.5887 167.478 50.8126 167.754 50.8126H173.378C173.654 50.8126 173.878 51.0364 173.878 51.3126V53.3121C173.878 53.5882 173.654 53.8121 173.378 53.8121H163.734Z" fill="white"/>
<path d="M186.038 44.3851C185.779 44.3851 185.573 44.1812 185.482 43.9384C185.391 43.6992 185.243 43.5 185.037 43.3406C184.719 43.0906 184.235 42.9657 183.584 42.9657C182.962 42.9657 182.509 43.0639 182.225 43.2603C181.94 43.4567 181.796 43.7066 181.791 44.0101C181.772 44.336 181.923 44.6016 182.246 44.8069C182.574 45.0122 183.088 45.184 183.787 45.3224L185.001 45.5634C186.635 45.8893 187.814 46.4115 188.537 47.1302C189.26 47.8443 189.624 48.7236 189.629 49.7681C189.624 51.1206 189.089 52.1606 188.024 52.8881C186.958 53.6112 185.488 53.9728 183.613 53.9728C182.326 53.9728 181.203 53.7965 180.244 53.4438C179.289 53.0912 178.547 52.5489 178.016 51.8169C177.57 51.1907 177.311 50.4161 177.241 49.4932C177.22 49.217 177.446 48.9915 177.723 48.9915H180.565C180.831 48.9915 181.042 49.2021 181.108 49.4597C181.21 49.8643 181.421 50.188 181.74 50.4309C182.179 50.7568 182.784 50.9197 183.555 50.9197C184.201 50.9197 184.688 50.8126 185.016 50.5983C185.348 50.3841 185.517 50.1073 185.522 49.7681C185.517 49.4557 185.351 49.1968 185.023 48.9915C184.695 48.7817 184.119 48.5942 183.295 48.429L181.82 48.1345C180.509 47.8711 179.475 47.4314 178.718 46.8155C177.966 46.195 177.592 45.3492 177.597 44.2779C177.592 43.4076 177.843 42.6465 178.349 41.9948C178.86 41.3387 179.566 40.8276 180.468 40.4616C181.374 40.0956 182.413 39.9126 183.584 39.9126C184.78 39.9126 185.814 40.0978 186.686 40.4683C187.559 40.8388 188.231 41.361 188.703 42.035C189.089 42.5767 189.321 43.1928 189.398 43.8834C189.428 44.1589 189.201 44.3851 188.924 44.3851H186.038Z" fill="white"/>
<path d="M201.296 44.3851C201.037 44.3851 200.831 44.1812 200.74 43.9384C200.649 43.6992 200.501 43.5 200.295 43.3406C199.977 43.0906 199.493 42.9657 198.842 42.9657C198.22 42.9657 197.767 43.0639 197.483 43.2603C197.198 43.4567 197.054 43.7066 197.049 44.0101C197.029 44.336 197.181 44.6016 197.504 44.8069C197.832 45.0122 198.345 45.184 199.044 45.3224L200.259 45.5634C201.893 45.8893 203.072 46.4115 203.795 47.1302C204.518 47.8443 204.882 48.7236 204.887 49.7681C204.882 51.1206 204.347 52.1606 203.282 52.8881C202.216 53.6112 200.746 53.9728 198.871 53.9728C197.584 53.9728 196.461 53.7965 195.501 53.4438C194.547 53.0912 193.805 52.5489 193.274 51.8169C192.828 51.1907 192.569 50.4161 192.499 49.4932C192.478 49.217 192.704 48.9915 192.981 48.9915H195.823C196.089 48.9915 196.3 49.2021 196.366 49.4597C196.468 49.8643 196.679 50.188 196.998 50.4309C197.437 50.7568 198.042 50.9197 198.813 50.9197C199.459 50.9197 199.946 50.8126 200.274 50.5983C200.606 50.3841 200.775 50.1073 200.78 49.7681C200.775 49.4557 200.609 49.1968 200.281 48.9915C199.953 48.7817 199.377 48.5942 198.553 48.429L197.078 48.1345C195.766 47.8711 194.732 47.4314 193.976 46.8155C193.224 46.195 192.85 45.3492 192.855 44.2779C192.85 43.4076 193.101 42.6465 193.607 41.9948C194.118 41.3387 194.824 40.8276 195.726 40.4616C196.632 40.0956 197.671 39.9126 198.842 39.9126C200.037 39.9126 201.071 40.0978 201.944 40.4683C202.816 40.8388 203.489 41.361 203.961 42.035C204.347 42.5767 204.579 43.1928 204.656 43.8834C204.686 44.1589 204.459 44.3851 204.182 44.3851H201.296Z" fill="white"/>
<path d="M211.633 40.1001C211.909 40.1001 212.133 40.3239 212.133 40.6001V53.3121C212.133 53.5882 211.909 53.8121 211.633 53.8121H208.613C208.337 53.8121 208.113 53.5882 208.113 53.3121V40.6001C208.113 40.3239 208.337 40.1001 208.613 40.1001H211.633Z" fill="white"/>
<path d="M228.048 40.1001C228.324 40.1001 228.548 40.3239 228.548 40.6001V53.3121C228.548 53.5882 228.324 53.8121 228.048 53.8121H225.444C225.286 53.8121 225.137 53.7372 225.043 53.6102L219.859 46.6312C219.848 46.6166 219.831 46.6079 219.813 46.6079C219.781 46.6079 219.755 46.6338 219.755 46.6657V53.3121C219.755 53.5882 219.531 53.8121 219.255 53.8121H216.235C215.959 53.8121 215.735 53.5882 215.735 53.3121V40.6001C215.735 40.3239 215.959 40.1001 216.235 40.1001H218.895C219.054 40.1001 219.204 40.1759 219.298 40.3044L224.389 47.2461C224.403 47.2658 224.426 47.2775 224.451 47.2775C224.493 47.2775 224.527 47.2431 224.527 47.2007V40.6001C224.527 40.3239 224.751 40.1001 225.027 40.1001H228.048Z" fill="white"/>
<path d="M242.151 44.6261C241.922 44.6261 241.73 44.4675 241.63 44.2626C241.485 43.966 241.264 43.7257 240.968 43.5415C240.558 43.2826 240.037 43.1531 239.406 43.1531C238.393 43.1531 237.61 43.4857 237.056 44.1507C236.501 44.8158 236.224 45.742 236.224 46.9293C236.224 48.1345 236.489 49.074 237.02 49.748C237.55 50.422 238.336 50.759 239.377 50.759C240.278 50.759 240.955 50.5827 241.409 50.2301C241.728 49.9842 241.941 49.6785 242.047 49.3132C242.125 49.0419 241.891 48.804 241.608 48.804H239.935C239.659 48.804 239.435 48.5801 239.435 48.304V46.6526C239.435 46.3765 239.659 46.1526 239.935 46.1526H245.5C245.776 46.1526 246 46.3765 246 46.6526V48.0541C246 49.3039 245.713 50.3729 245.14 51.2612C244.571 52.1449 243.785 52.8234 242.782 53.2965C241.785 53.7652 240.64 53.9996 239.348 53.9996C237.907 53.9996 236.641 53.7161 235.552 53.1492C234.462 52.5824 233.612 51.7745 232.999 50.7255C232.392 49.6766 232.088 48.429 232.088 46.9829C232.088 45.4742 232.414 44.1931 233.064 43.1397C233.715 42.0863 234.588 41.2851 235.682 40.7361C236.776 40.1871 237.989 39.9126 239.319 39.9126C240.485 39.9126 241.541 40.1157 242.486 40.5219C243.431 40.9236 244.197 41.4793 244.785 42.189C245.257 42.7502 245.573 43.3792 245.734 44.0761C245.801 44.3663 245.566 44.6261 245.268 44.6261H242.151Z" fill="white"/>
<path d="M116.589 22.7848C116.639 23.075 116.406 23.329 116.112 23.329H113.036C112.777 23.329 112.568 23.13 112.5 22.8807C112.386 22.4582 112.167 22.1032 111.842 21.8158C111.412 21.432 110.809 21.24 110.033 21.24C109.02 21.24 108.246 21.577 107.71 22.251C107.175 22.9206 106.907 23.8512 106.907 25.043C106.907 26.3017 107.177 27.2502 107.717 27.8885C108.262 28.5268 109.025 28.8459 110.004 28.8459C110.742 28.8459 111.33 28.6763 111.769 28.3371C112.1 28.078 112.335 27.7504 112.474 27.3543C112.555 27.1236 112.759 26.9456 113.003 26.9472L116.121 26.9677C116.412 26.9696 116.642 27.22 116.581 27.5047C116.493 27.9129 116.344 28.3265 116.132 28.7455C115.829 29.3436 115.397 29.8971 114.837 30.4059C114.283 30.9103 113.595 31.3165 112.775 31.6245C111.955 31.9325 111.002 32.0865 109.917 32.0865C108.557 32.0865 107.336 31.8164 106.256 31.2763C105.18 30.7362 104.329 29.9417 103.701 28.8928C103.079 27.8439 102.768 26.5606 102.768 25.043C102.768 23.5165 103.086 22.231 103.723 21.1865C104.36 20.1376 105.219 19.3453 106.299 18.8096C107.38 18.2696 108.586 17.9995 109.917 17.9995C111.162 17.9995 112.271 18.2071 113.245 18.6222C114.225 19.0373 115.011 19.6421 115.604 20.4366C116.104 21.1008 116.432 21.8835 116.589 22.7848Z" fill="white"/>
<path d="M120.684 31.899C120.408 31.899 120.184 31.6751 120.184 31.399V18.687C120.184 18.4108 120.408 18.187 120.684 18.187H126.58C127.68 18.187 128.642 18.3722 129.467 18.7427C130.292 19.1132 130.934 19.6466 131.392 20.3429C131.85 21.0392 132.079 21.8739 132.079 22.8469C132.079 23.7977 131.855 24.6033 131.406 25.2639C131.061 25.7786 130.611 26.1999 130.057 26.5276C129.801 26.6794 129.693 27.0083 129.845 27.2651L132.128 31.1454C132.324 31.4787 132.084 31.899 131.697 31.899H128.49C128.311 31.899 128.146 31.8034 128.057 31.6484L125.74 27.6236C125.651 27.4685 125.486 27.373 125.307 27.373H124.707C124.431 27.373 124.207 27.5968 124.207 27.873V31.399C124.207 31.6751 123.983 31.899 123.707 31.899H120.684ZM124.207 23.9806C124.207 24.2567 124.431 24.4806 124.707 24.4806H125.625C126.329 24.4806 126.882 24.3556 127.282 24.1056C127.682 23.8512 127.883 23.4316 127.883 22.8469C127.883 22.2577 127.682 21.8292 127.282 21.5614C126.882 21.2936 126.329 21.1597 125.625 21.1597H124.707C124.431 21.1597 124.207 21.3836 124.207 21.6597V23.9806Z" fill="white"/>
<path d="M135.319 18.9375C135.126 18.6041 135.366 18.187 135.752 18.187H139.067C139.253 18.187 139.425 18.2909 139.511 18.4565L142.238 23.7061C142.255 23.7377 142.287 23.7575 142.323 23.7575C142.358 23.7575 142.391 23.7377 142.407 23.7061L145.135 18.4565C145.221 18.2909 145.392 18.187 145.579 18.187H148.894C149.279 18.187 149.52 18.6041 149.327 18.9375L144.387 27.471C144.343 27.5471 144.32 27.6335 144.32 27.7215V31.399C144.32 31.6751 144.096 31.899 143.82 31.899H140.826C140.55 31.899 140.326 31.6751 140.326 31.399V27.7215C140.326 27.6335 140.302 27.5471 140.258 27.471L135.319 18.9375Z" fill="white"/>
<path d="M153.271 31.899C152.994 31.899 152.771 31.6751 152.771 31.399V18.687C152.771 18.4108 152.994 18.187 153.271 18.187H159.167C160.267 18.187 161.229 18.3878 162.054 18.7896C162.879 19.1913 163.52 19.7559 163.979 20.4835C164.437 21.211 164.666 22.0613 164.666 23.0344C164.666 24.0164 164.43 24.8667 163.957 25.5853C163.489 26.3039 162.831 26.8574 161.982 27.2458C161.137 27.6341 160.151 27.8282 159.022 27.8282H157.294C157.017 27.8282 156.794 28.0521 156.794 28.3282V31.399C156.794 31.6751 156.57 31.899 156.294 31.899H153.271ZM156.794 24.4359C156.794 24.712 157.017 24.9359 157.294 24.9359H158.212C158.916 24.9359 159.468 24.7662 159.869 24.427C160.269 24.0833 160.469 23.6191 160.469 23.0344C160.469 22.4452 160.269 21.9855 159.869 21.6552C159.468 21.3249 158.916 21.1597 158.212 21.1597H157.294C157.017 21.1597 156.794 21.3836 156.794 21.6597V24.4359Z" fill="white"/>
<path d="M167.935 21.1865C167.659 21.1865 167.435 20.9626 167.435 20.6865V18.687C167.435 18.4108 167.659 18.187 167.935 18.187H179.814C180.091 18.187 180.314 18.4108 180.314 18.687V20.6865C180.314 20.9626 180.091 21.1865 179.814 21.1865H176.357C176.081 21.1865 175.857 21.4103 175.857 21.6865V31.399C175.857 31.6751 175.633 31.899 175.357 31.899H172.392C172.116 31.899 171.892 31.6751 171.892 31.399V21.6865C171.892 21.4103 171.668 21.1865 171.392 21.1865H167.935Z" fill="white"/>
<path d="M197.186 25.043C197.186 26.5695 196.865 27.8573 196.223 28.9062C195.582 29.9507 194.716 30.7429 193.626 31.283C192.536 31.8187 191.32 32.0865 189.979 32.0865C188.628 32.0865 187.408 31.8164 186.318 31.2763C185.232 30.7318 184.369 29.9373 183.727 28.8928C183.091 27.8439 182.772 26.5606 182.772 25.043C182.772 23.5165 183.091 22.231 183.727 21.1865C184.369 20.1376 185.232 19.3453 186.318 18.8096C187.408 18.2696 188.628 17.9995 189.979 17.9995C191.32 17.9995 192.536 18.2696 193.626 18.8096C194.716 19.3453 195.582 20.1376 196.223 21.1865C196.865 22.231 197.186 23.5165 197.186 25.043ZM193.047 25.043C193.047 23.8111 192.784 22.8692 192.258 22.2176C191.737 21.5659 190.978 21.24 189.979 21.24C188.98 21.24 188.218 21.5659 187.693 22.2176C187.172 22.8692 186.911 23.8111 186.911 25.043C186.911 26.2749 187.172 27.2167 187.693 27.8684C188.218 28.5201 188.98 28.8459 189.979 28.8459C190.978 28.8459 191.737 28.5201 192.258 27.8684C192.784 27.2167 193.047 26.2749 193.047 25.043Z" fill="white"/>
<path d="M135.319 18.9375C135.126 18.6041 135.366 18.187 135.752 18.187H139.067C139.253 18.187 139.425 18.2909 139.511 18.4565L142.238 23.7061C142.255 23.7377 142.287 23.7575 142.323 23.7575C142.358 23.7575 142.391 23.7377 142.407 23.7061L145.135 18.4565C145.221 18.2909 145.392 18.187 145.579 18.187H148.894C149.279 18.187 149.52 18.6041 149.327 18.9375L144.387 27.471C144.343 27.5471 144.32 27.6335 144.32 27.7215V31.399C144.32 31.6751 144.096 31.899 143.82 31.899H140.826C140.55 31.899 140.326 31.6751 140.326 31.399V27.7215C140.326 27.6335 140.302 27.5471 140.258 27.471L135.319 18.9375Z" fill="white"/>
<path fill-rule="evenodd" clip-rule="evenodd" d="M0 33.1115C0 42.8213 7.94605 50.6927 17.748 50.6927H20.1315H20.1374H20.1428C21.3294 50.6961 22.2904 51.7759 22.2904 52.9533C22.2904 53.0753 22.2802 53.1948 22.2603 53.3112L22.2549 53.3444L22.2533 53.3501L22.2531 53.3506C22.2331 53.4563 22.2052 53.5593 22.1699 53.659L20.3153 60.534V60.5396C20.2817 60.6845 20.2639 60.8355 20.2639 60.9904C20.2639 62.1002 21.1712 62.9998 22.2904 62.9998H31.4092H31.4151C32.5871 62.9971 33.5722 62.2052 33.8583 61.1318L33.8612 61.1268L37.7721 46.2839C37.7986 46.1157 37.8419 45.953 37.9002 45.7977C38.259 44.8428 39.1867 44.1625 40.2747 44.1625H54.2062C62.5137 44.1625 69.4868 38.4976 71.4108 30.8509C71.7548 29.4841 71.9373 28.0538 71.9373 26.5812C71.9373 25.1101 71.7551 23.681 71.4117 22.3154C69.4893 14.6667 62.5151 8.99976 54.2062 8.99976H53.6989H37.2764C35.4542 8.99976 33.8554 10.2035 33.3678 11.9428L32.6959 14.2667C32.3242 15.0151 31.5474 15.53 30.6494 15.53H19.884L17.748 15.53C7.94605 15.53 0 23.4014 0 33.1115ZM18.0015 28.8416H25.6677C27.5022 28.8416 29.1083 27.6221 29.585 25.8673L29.9272 24.6077L30.16 23.751C30.5309 22.9735 31.2927 22.415 32.1943 22.3244C32.2326 22.3205 32.2712 22.3175 32.3102 22.3154C32.3576 22.3127 32.4054 22.3115 32.4534 22.3115C32.5015 22.3115 32.5493 22.3127 32.5967 22.3154H37.0008H47.8009H53.7661C53.8281 22.3127 53.8903 22.3115 53.953 22.3115C54.0156 22.3115 54.0177 22.3088 54.0797 22.3115C56.3711 22.4083 58.259 24.2851 58.259 26.5812C58.259 28.9393 56.3312 30.8509 53.953 30.8509H41.1821H37.0017H31.3965C29.5553 30.8509 27.945 32.0792 27.4745 33.8428L27.1016 35.2407C27.0737 35.4271 27.0252 35.6067 26.9584 35.7772C26.591 36.7158 25.6709 37.3812 24.5936 37.3812H19.0099H18.0015C15.6211 37.3812 13.6913 35.4695 13.6913 33.1115C13.6913 30.7532 15.6211 28.8416 18.0015 28.8416Z" fill="white"/>
<mask id="mask0" mask-type="alpha" maskUnits="userSpaceOnUse" x="0" y="8" width="72" height="55">
<path fill-rule="evenodd" clip-rule="evenodd" d="M0 33.1115C0 42.8213 7.94605 50.6927 17.748 50.6927H20.1315H20.1374H20.1428C21.3294 50.6961 22.2904 51.7759 22.2904 52.9533C22.2904 53.0753 22.2802 53.1949 22.2603 53.3112L22.2549 53.3444L22.2533 53.3501L22.2531 53.3506C22.2331 53.4563 22.2052 53.5593 22.1699 53.659L20.3153 60.534V60.5396C20.2817 60.6845 20.2639 60.8355 20.2639 60.9904C20.2639 62.1002 21.1712 62.9998 22.2904 62.9998H31.4092H31.4151C32.5871 62.9971 33.5722 62.2052 33.8583 61.1318L33.8612 61.1268L37.7721 46.2839C37.7986 46.1157 37.8419 45.953 37.9002 45.7977C38.259 44.8428 39.1867 44.1625 40.2747 44.1625H54.2062C62.5137 44.1625 69.4868 38.4976 71.4108 30.8509C71.7548 29.4841 71.9373 28.0538 71.9373 26.5812C71.9373 25.1101 71.7551 23.681 71.4117 22.3154C69.4893 14.6667 62.5151 8.99976 54.2062 8.99976H53.6989H37.2764C35.4542 8.99976 33.8554 10.2035 33.3678 11.9428L32.6959 14.2667C32.3242 15.0151 31.5474 15.53 30.6494 15.53H19.884L17.748 15.53C7.94605 15.53 0 23.4014 0 33.1115ZM18.0015 28.8416H25.6677C27.5022 28.8416 29.1083 27.6221 29.585 25.8673L29.9272 24.6077L30.16 23.751C30.5309 22.9735 31.2927 22.415 32.1943 22.3244C32.2326 22.3205 32.2712 22.3175 32.3102 22.3154C32.3576 22.3127 32.4054 22.3115 32.4534 22.3115C32.5015 22.3115 32.5493 22.3127 32.5967 22.3154H37.0008H47.8009H53.7661C53.8281 22.3127 53.8903 22.3115 53.953 22.3115C54.0156 22.3115 54.0177 22.3088 54.0797 22.3115C56.3711 22.4083 58.259 24.2851 58.259 26.5812C58.259 28.9393 56.3312 30.8509 53.953 30.8509H41.1821H37.0017H31.3965C29.5553 30.8509 27.945 32.0792 27.4745 33.8428L27.1016 35.2407C27.0737 35.4271 27.0252 35.6067 26.9584 35.7772C26.591 36.7158 25.6709 37.3812 24.5936 37.3812H19.0099H18.0015C15.6211 37.3812 13.6913 35.4695 13.6913 33.1115C13.6913 30.7532 15.6211 28.8416 18.0015 28.8416Z" fill="#303030"/>
</mask>
<g mask="url(#mask0)">
<path d="M35.4623 3.80786L19.6311 63.4471H8.48584L24.5704 3.80786H35.4623Z" fill="url(#paint0_linear)" fill-opacity="0.2"/>
</g>
<defs>
<linearGradient id="paint0_linear" x1="27.6101" y1="33.5643" x2="17.9848" y2="30.9041" gradientUnits="userSpaceOnUse">
<stop/>
<stop offset="1" stop-opacity="0"/>
</linearGradient>
</defs>
</svg>
