<svg width="217" height="64" viewBox="0 0 217 64" fill="none" xmlns="http://www.w3.org/2000/svg">
<g clip-path="url(#clip0)">
<path d="M31.9965 10.6669H39.4709V0C39.4709 0 31.6228 0 31.4334 0.008305C14.028 0.3322 -0.00390625 14.5271 -0.00390625 32.0008C-0.00390625 49.6639 14.3353 63.9851 31.9965 64H39.4709V53.3331H31.9965C28.7559 53.3205 25.5607 52.5706 22.6528 51.1404C19.745 49.7101 17.2007 47.6369 15.2126 45.0778C13.2245 42.5187 11.8449 39.5407 11.178 36.3695C10.5112 33.1982 10.5748 29.9167 11.3638 26.7737C12.5665 31.3286 15.2426 35.3575 18.9748 38.2323C22.707 41.1071 27.2855 42.666 31.9965 42.6661H39.4709V32.0008H31.9965C26.1465 32.0008 21.3878 27.1839 21.3878 21.3339C21.3878 15.4838 26.1465 10.6669 31.9965 10.6669Z" fill="white"/>
<path d="M60.792 22.689V16.829C60.792 12.6765 63.3067 10.2963 67.9475 10.2963C69.9191 10.2963 71.5518 10.8411 72.8225 11.9041C74.0931 12.9672 74.7442 14.5484 74.7442 16.6994V16.9585H70.703V16.6994C70.703 14.8325 69.3743 13.977 67.695 13.977C65.7771 13.977 64.8182 14.833 64.8182 16.545V22.9747C64.8182 24.6855 65.7771 25.5409 67.695 25.5409C69.4324 25.5409 70.703 24.7636 70.703 22.8186V22.5594H74.7442V22.8186C74.7442 24.9779 74.0964 26.5774 72.8258 27.6355C71.5551 28.6935 69.9224 29.2184 67.9508 29.2184C63.3134 29.2234 60.792 26.8365 60.792 22.689Z" fill="white"/>
<path d="M77.9 28.8332V10.6851H85.7813C89.5268 10.6851 91.52 12.7597 91.52 16.389C91.52 18.8523 90.5616 20.6146 88.6166 21.6261L92.0399 27.511V28.8398H88.1183L84.333 22.0912H81.9212V28.8315L77.9 28.8332ZM81.9179 18.7476H85.107C86.6633 18.7476 87.4407 18.0998 87.4407 16.4405C87.4407 14.8077 86.6633 14.1848 85.107 14.1848H81.9179V18.7476Z" fill="white"/>
<path d="M100.071 28.8333V21.6528L94.2381 12.0073V10.6785H98.2045L102.119 17.8856L106.242 10.6785H109.958V12.0073L104.124 21.4966V28.8333H100.071Z" fill="white"/>
<path d="M112.282 28.8332V10.6851H120.421C123.662 10.6851 125.607 12.8893 125.607 16.389C125.607 19.8887 123.663 22.0663 120.421 22.0663H116.3V28.8332H112.282ZM116.3 18.5666H119.67C120.682 18.5666 121.537 17.8407 121.537 16.389C121.537 14.9373 120.682 14.1848 119.67 14.1848H116.3V18.5666Z" fill="white"/>
<path d="M132.037 28.8332V14.1848H127.033V10.6851H141.033V14.1848H136.05V28.8332H132.037Z" fill="white"/>
<path d="M157.667 22.6624C157.667 24.7121 157.017 26.3166 155.695 27.4793C154.373 28.642 152.611 29.2167 150.38 29.2167C148.149 29.2167 146.394 28.6453 145.065 27.4793C143.736 26.3133 143.093 24.7054 143.093 22.6624V16.8821C143.093 12.7296 145.894 10.2963 150.38 10.2963C154.866 10.2963 157.665 12.733 157.665 16.8821L157.667 22.6624ZM153.647 16.6828C153.647 15.2045 152.533 13.9853 150.382 13.9853C148.231 13.9853 147.115 15.2045 147.115 16.6828V22.8534C147.115 24.3301 148.229 25.5492 150.382 25.5492C152.534 25.5492 153.641 24.3217 153.641 22.8451L153.647 16.6828Z" fill="white"/>
<path d="M61.7509 53.3184V35.167H69.8897C73.1302 35.167 75.0753 37.3712 75.0753 40.8709C75.0753 44.3706 73.1302 46.5482 69.8897 46.5482H65.7754V53.3184H61.7509ZM65.7754 43.0485H69.1472C70.1571 43.0485 71.0142 42.3226 71.0142 40.8709C71.0142 39.4192 70.1571 38.6667 69.1472 38.6667H65.7754V43.0485Z" fill="white"/>
<path d="M77.9 53.3184V35.167H85.7813C89.5268 35.167 91.52 37.2399 91.52 40.8709C91.52 43.3342 90.5616 45.0965 88.6166 46.108L92.0333 51.9896V53.3184H88.1183L84.333 46.5748H81.9212V53.3184H77.9ZM81.9179 43.2328H85.107C86.6633 43.2328 87.4407 42.585 87.4407 40.9257C87.4407 39.2929 86.6633 38.6701 85.107 38.6701H81.9179V43.2328Z" fill="white"/>
<path d="M109.067 47.1438C109.067 49.1918 108.419 50.798 107.097 51.9607C105.775 53.1234 104.011 53.6964 101.782 53.6964C99.5527 53.6964 97.7954 53.1267 96.4666 51.9607C95.1378 50.7947 94.4966 49.1851 94.4966 47.1438V41.3585C94.4966 37.206 97.2954 34.7743 101.782 34.7743C106.268 34.7743 109.067 37.211 109.067 41.3585V47.1438ZM105.049 41.1542C105.049 39.6776 103.933 38.4584 101.782 38.4584C99.6307 38.4584 98.5145 39.6776 98.5145 41.1542V47.3265C98.5145 48.8031 99.6291 50.0223 101.782 50.0223C103.934 50.0223 105.049 48.8031 105.049 47.3265V41.1542Z" fill="white"/>
<path d="M112.024 47.1725V41.3109C112.024 37.1584 114.539 34.7782 119.179 34.7782C121.149 34.7782 122.782 35.3213 124.053 36.3844C125.323 37.4474 125.971 39.0303 125.971 41.1813V41.4404H121.927V41.1813C121.927 39.3144 120.598 38.4589 118.92 38.4589C117.001 38.4589 116.042 39.3144 116.042 41.0252V47.4566C116.042 49.1674 117.001 50.0228 118.92 50.0228C120.656 50.0228 121.927 49.2455 121.927 47.3004V47.0413H125.971V47.3004C125.971 49.4597 125.323 51.0593 124.053 52.1173C122.782 53.1754 121.149 53.6986 119.179 53.6986C114.539 53.7036 112.024 51.325 112.024 47.1725Z" fill="white"/>
<path d="M129.16 53.3184V35.167H141.119V38.6667H133.18V42.5551H139.92V45.9004H133.18V49.8154H141.164V53.3184H129.16Z" fill="white"/>
<path d="M145.274 52.0711C143.9 50.9815 143.226 49.4268 143.226 47.4303H147.245C147.228 48.0234 147.441 48.6001 147.842 49.0382C148.672 49.8421 149.655 50.0231 150.823 50.0231C152.56 50.0231 153.467 49.3488 153.467 48.2857C153.472 48.0453 153.405 47.8089 153.276 47.606C153.147 47.4031 152.961 47.2426 152.741 47.1446C152.243 46.8606 151.341 46.4968 149.993 46.0567L148.541 45.5584C147.194 45.1182 146.337 44.7279 145.274 43.9256C144.237 43.1217 143.668 41.9025 143.668 40.3478C143.668 38.6619 144.264 37.3132 145.481 36.3033C146.699 35.2934 148.36 34.7735 150.464 34.7735C152.512 34.7735 154.172 35.2917 155.447 36.3548C156.723 37.4178 157.341 38.9476 157.341 40.969H153.286C153.286 39.308 152.016 38.4543 150.356 38.4543C148.697 38.4543 147.737 39.0771 147.737 40.1402C147.737 40.7099 147.996 40.9956 148.386 41.3029C148.592 41.4839 149.112 41.6666 149.396 41.7696L150.725 42.2364L152.074 42.7031C155.573 43.9223 157.545 45.2693 157.545 48.0698C157.545 51.4665 155.054 53.6956 150.466 53.6956C148.386 53.7039 146.649 53.1607 145.274 52.0711Z" fill="white"/>
<path d="M161.647 52.0711C160.274 50.9815 159.599 49.4268 159.599 47.4303H163.617C163.6 48.0234 163.813 48.6001 164.214 49.0382C165.044 49.8421 166.029 50.0231 167.203 50.0231C168.941 50.0231 169.848 49.3488 169.848 48.2857C169.852 48.0453 169.785 47.8089 169.656 47.606C169.527 47.4031 169.341 47.2427 169.122 47.1446C168.624 46.8606 167.722 46.4968 166.375 46.0567L164.923 45.5584C163.574 45.1182 162.719 44.7279 161.656 43.9256C160.619 43.1217 160.048 41.9025 160.048 40.3478C160.048 38.6619 160.644 37.3132 161.863 36.3033C163.083 35.2934 164.74 34.7735 166.846 34.7735C168.894 34.7735 170.554 35.2917 171.829 36.3548C173.105 37.4178 173.721 38.9476 173.721 40.969H169.677C169.677 39.308 168.406 38.4543 166.747 38.4543C165.087 38.4543 164.106 39.0821 164.106 40.1452C164.106 40.7149 164.365 41.0006 164.753 41.3079C164.961 41.4889 165.479 41.6716 165.765 41.7746L167.094 42.2414L168.442 42.7081C171.942 43.9273 173.912 45.2743 173.912 48.0748C173.912 51.4715 171.421 53.7006 166.835 53.7006C164.758 53.7039 163.021 53.1608 161.647 52.0711Z" fill="white"/>
<path d="M177.151 53.3184V35.167H181.171V53.3184H177.151Z" fill="white"/>
<path d="M185.163 53.3184V35.167H188.844L195.3 45.8223V35.167H199.318V53.3184H195.638L189.186 42.6598V53.3184H185.163Z" fill="white"/>
<path d="M204.581 51.9413C203.389 50.7487 202.792 49.1674 202.792 47.1709V41.3109C202.792 37.1883 205.462 34.7782 210.051 34.7782C212.099 34.7782 213.758 35.3213 215.055 36.4392C216.353 37.557 217 39.1084 217 41.1049H212.956C212.956 39.4722 211.71 38.4606 209.818 38.4606C207.825 38.4606 206.81 39.4722 206.81 41.1315V47.1726C206.81 48.8336 207.9 50.0245 209.767 50.0245C210.416 50.0377 211.059 49.8908 211.639 49.5968C212.218 49.3028 212.716 48.8706 213.089 48.3386V46.7307H209.978V43.3855H217.004V53.3183H214.844L214.014 51.7104C213.105 52.9296 211.368 53.7036 209.503 53.7036C207.433 53.7036 205.795 53.1073 204.581 51.9413Z" fill="white"/>
</g>
<defs>
<clipPath id="clip0">
<rect width="217" height="64" fill="white"/>
</clipPath>
</defs>
</svg>
