<svg width="56" height="56" viewBox="0 0 56 56" fill="none" xmlns="http://www.w3.org/2000/svg">
<path fill-rule="evenodd" clip-rule="evenodd" d="M0 25.7536C0 33.3057 6.18565 39.4279 13.816 39.4279H15.6715H15.6761H15.6803C16.604 39.4305 17.3521 40.2704 17.3521 41.1861C17.3521 41.281 17.3441 41.374 17.3287 41.4645L17.3245 41.4903L17.3232 41.4947L17.3231 41.4951C17.3075 41.5773 17.2857 41.6575 17.2583 41.735L15.8146 47.0822V47.0865C15.7884 47.1992 15.7746 47.3167 15.7746 47.4372C15.7746 48.3004 16.4809 49 17.3521 49H24.4507H24.4553C25.3676 48.9979 26.1344 48.382 26.3572 47.5471L26.3594 47.5433L29.4039 35.9988C29.4245 35.868 29.4582 35.7414 29.5036 35.6206C29.7829 34.8779 30.5051 34.3488 31.3521 34.3488H42.1971C48.6641 34.3488 54.0924 29.9428 55.5902 23.9954C55.8579 22.9322 56 21.8198 56 20.6745C56 19.5302 55.8582 18.4187 55.5909 17.3566C54.0943 11.4076 48.6653 7 42.1971 7H41.8022H29.018C27.5995 7 26.355 7.93623 25.9754 9.28904L25.4523 11.0965C25.1629 11.6786 24.5582 12.0791 23.8592 12.0791H15.4788L13.816 12.0791C6.18565 12.0791 0 18.2013 0 25.7536ZM14.0134 22.4325H19.9811C21.4093 22.4325 22.6595 21.4841 23.0306 20.1192L23.297 19.1395L23.4782 18.4732C23.767 17.8685 24.36 17.4341 25.0618 17.3636C25.0916 17.3606 25.1217 17.3582 25.1521 17.3566C25.189 17.3545 25.2262 17.3536 25.2635 17.3536C25.301 17.3536 25.3382 17.3545 25.3751 17.3566H28.8035H37.2109H41.8546C41.9028 17.3545 41.9512 17.3536 42 17.3536C42.0488 17.3536 42.0504 17.3515 42.0986 17.3536C43.8824 17.4288 45.3521 18.8886 45.3521 20.6745C45.3521 22.5085 43.8513 23.9954 42 23.9954H32.0585H28.8042H24.4408C23.0075 23.9954 21.7539 24.9507 21.3877 26.3223L21.0974 27.4097C21.0756 27.5546 21.0379 27.6943 20.9859 27.8269C20.6999 28.5569 19.9836 29.0745 19.145 29.0745H14.7983H14.0134C12.1603 29.0745 10.6581 27.5876 10.6581 25.7536C10.6581 23.9194 12.1603 22.4325 14.0134 22.4325Z" fill="#0057FF"/>
<mask id="mask0" mask-type="alpha" maskUnits="userSpaceOnUse" x="0" y="7" width="56" height="42">
<path fill-rule="evenodd" clip-rule="evenodd" d="M0 25.7536C0 33.3057 6.18565 39.4279 13.816 39.4279H15.6715H15.6761H15.6803C16.604 39.4305 17.3521 40.2704 17.3521 41.1861C17.3521 41.281 17.3441 41.374 17.3287 41.4645L17.3245 41.4903L17.3232 41.4947L17.3231 41.4951C17.3075 41.5773 17.2857 41.6575 17.2583 41.735L15.8146 47.0822V47.0865C15.7884 47.1992 15.7746 47.3167 15.7746 47.4372C15.7746 48.3004 16.4809 49 17.3521 49H24.4507H24.4553C25.3676 48.9979 26.1344 48.382 26.3572 47.5471L26.3594 47.5433L29.4039 35.9988C29.4245 35.868 29.4582 35.7414 29.5036 35.6207C29.7829 34.8779 30.5051 34.3488 31.3521 34.3488H42.1971C48.6641 34.3488 54.0924 29.9428 55.5902 23.9954C55.8579 22.9322 56 21.8198 56 20.6745C56 19.5302 55.8582 18.4187 55.5909 17.3566C54.0943 11.4076 48.6653 7 42.1971 7H41.8022H29.018C27.5995 7 26.355 7.93623 25.9754 9.28904L25.4523 11.0965C25.1629 11.6786 24.5582 12.0791 23.8592 12.0791H15.4788L13.816 12.0791C6.18565 12.0791 0 18.2013 0 25.7536ZM14.0134 22.4325H19.9811C21.4093 22.4325 22.6595 21.4841 23.0306 20.1192L23.297 19.1395L23.4782 18.4732C23.767 17.8685 24.36 17.4341 25.0618 17.3636C25.0916 17.3606 25.1217 17.3582 25.1521 17.3566C25.189 17.3545 25.2262 17.3536 25.2635 17.3536C25.301 17.3536 25.3382 17.3545 25.3751 17.3566H28.8035H37.2109H41.8546C41.9028 17.3545 41.9512 17.3536 42 17.3536C42.0488 17.3536 42.0504 17.3515 42.0986 17.3536C43.8824 17.4288 45.3521 18.8886 45.3521 20.6745C45.3521 22.5085 43.8513 23.9954 42 23.9954H32.0585H28.8042H24.4408C23.0075 23.9954 21.7539 24.9507 21.3877 26.3223L21.0974 27.4097C21.0756 27.5546 21.0379 27.6943 20.9859 27.8269C20.6999 28.5569 19.9836 29.0745 19.145 29.0745H14.7983H14.0134C12.1603 29.0745 10.6581 27.5876 10.6581 25.7536C10.6581 23.9194 12.1603 22.4325 14.0134 22.4325Z" fill="#303030"/>
</mask>
<g mask="url(#mask0)">
<path d="M27.6055 2.96191L15.2816 49.348H6.60547L19.1266 2.96191H27.6055Z" fill="url(#paint0_linear)" fill-opacity="0.2"/>
</g>
<defs>
<linearGradient id="paint0_linear" x1="21.4928" y1="26.1058" x2="14.001" y2="24.0334" gradientUnits="userSpaceOnUse">
<stop/>
<stop offset="1" stop-opacity="0"/>
</linearGradient>
</defs>
</svg>
