<svg width="56" height="42" viewBox="0 0 56 42" fill="none" xmlns="http://www.w3.org/2000/svg">
<path fill-rule="evenodd" clip-rule="evenodd" d="M0 18.7536C0 26.3057 6.18565 32.4279 13.816 32.4279H15.6715H15.6761H15.6803C16.604 32.4305 17.3521 33.2704 17.3521 34.1861C17.3521 34.281 17.3441 34.374 17.3287 34.4645L17.3245 34.4903L17.3232 34.4947L17.3231 34.4951C17.3075 34.5773 17.2857 34.6575 17.2583 34.735L15.8146 40.0822V40.0865C15.7884 40.1992 15.7746 40.3167 15.7746 40.4372C15.7746 41.3004 16.4809 42 17.3521 42H24.4507H24.4553C25.3676 41.9979 26.1344 41.382 26.3572 40.5471L26.3594 40.5433L29.4039 28.9988C29.4245 28.868 29.4582 28.7414 29.5036 28.6206C29.7829 27.8779 30.5051 27.3488 31.3521 27.3488H42.1971C48.6641 27.3488 54.0924 22.9428 55.5902 16.9954C55.8579 15.9322 56 14.8198 56 13.6745C56 12.5302 55.8582 11.4187 55.5909 10.3566C54.0943 4.40764 48.6653 0 42.1971 0H41.8022H29.018C27.5995 0 26.355 0.936227 25.9754 2.28904L25.4523 4.09651C25.1629 4.67857 24.5582 5.07907 23.8592 5.07907H15.4788L13.816 5.07908C6.18565 5.07908 0 11.2013 0 18.7536ZM14.0134 15.4325H19.9811C21.4093 15.4325 22.6595 14.4841 23.0306 13.1192L23.297 12.1395L23.4782 11.4732C23.767 10.8685 24.36 10.4341 25.0618 10.3636C25.0916 10.3606 25.1217 10.3582 25.1521 10.3566C25.189 10.3545 25.2262 10.3536 25.2635 10.3536C25.301 10.3536 25.3382 10.3545 25.3751 10.3566H28.8035H37.2109H41.8546C41.9028 10.3545 41.9512 10.3536 42 10.3536C42.0488 10.3536 42.0504 10.3515 42.0986 10.3536C43.8824 10.4288 45.3521 11.8886 45.3521 13.6745C45.3521 15.5085 43.8513 16.9954 42 16.9954H32.0585H28.8042H24.4408C23.0075 16.9954 21.7539 17.9507 21.3877 19.3223L21.0974 20.4097C21.0756 20.5546 21.0379 20.6943 20.9859 20.8269C20.6999 21.5569 19.9836 22.0745 19.145 22.0745H14.7983H14.0134C12.1603 22.0745 10.6581 20.5876 10.6581 18.7536C10.6581 16.9194 12.1603 15.4325 14.0134 15.4325Z" fill="#0057FF"/>
<mask id="mask0" mask-type="alpha" maskUnits="userSpaceOnUse" x="0" y="0" width="56" height="42">
<path fill-rule="evenodd" clip-rule="evenodd" d="M0 18.7536C0 26.3057 6.18565 32.4279 13.816 32.4279H15.6715H15.6761H15.6803C16.604 32.4305 17.3521 33.2704 17.3521 34.1861C17.3521 34.281 17.3441 34.374 17.3287 34.4645L17.3245 34.4903L17.3232 34.4947L17.3231 34.4951C17.3075 34.5773 17.2857 34.6575 17.2583 34.735L15.8146 40.0822V40.0865C15.7884 40.1992 15.7746 40.3167 15.7746 40.4372C15.7746 41.3004 16.4809 42 17.3521 42H24.4507H24.4553C25.3676 41.9979 26.1344 41.382 26.3572 40.5471L26.3594 40.5433L29.4039 28.9988C29.4245 28.868 29.4582 28.7414 29.5036 28.6207C29.7829 27.8779 30.5051 27.3488 31.3521 27.3488H42.1971C48.6641 27.3488 54.0924 22.9428 55.5902 16.9954C55.8579 15.9322 56 14.8198 56 13.6745C56 12.5302 55.8582 11.4187 55.5909 10.3566C54.0943 4.40764 48.6653 0 42.1971 0H41.8022H29.018C27.5995 0 26.355 0.936227 25.9754 2.28904L25.4523 4.09651C25.1629 4.67857 24.5582 5.07907 23.8592 5.07907H15.4788L13.816 5.07909C6.18565 5.07909 0 11.2013 0 18.7536ZM14.0134 15.4325H19.9811C21.4093 15.4325 22.6595 14.4841 23.0306 13.1192L23.297 12.1395L23.4782 11.4732C23.767 10.8685 24.36 10.4341 25.0618 10.3636C25.0916 10.3606 25.1217 10.3582 25.1521 10.3566C25.189 10.3545 25.2262 10.3536 25.2635 10.3536C25.301 10.3536 25.3382 10.3545 25.3751 10.3566H28.8035H37.2109H41.8546C41.9028 10.3545 41.9512 10.3536 42 10.3536C42.0488 10.3536 42.0504 10.3515 42.0986 10.3536C43.8824 10.4288 45.3521 11.8886 45.3521 13.6745C45.3521 15.5085 43.8513 16.9954 42 16.9954H32.0585H28.8042H24.4408C23.0075 16.9954 21.7539 17.9507 21.3877 19.3223L21.0974 20.4097C21.0756 20.5546 21.0379 20.6943 20.9859 20.8269C20.6999 21.5569 19.9836 22.0745 19.145 22.0745H14.7983H14.0134C12.1603 22.0745 10.6581 20.5876 10.6581 18.7536C10.6581 16.9194 12.1603 15.4325 14.0134 15.4325Z" fill="#303030"/>
</mask>
<g mask="url(#mask0)">
<path d="M27.6056 -4.03784L15.2817 42.3483H6.60559L19.1267 -4.03784H27.6056Z" fill="url(#paint0_linear)" fill-opacity="0.2"/>
</g>
<defs>
<linearGradient id="paint0_linear" x1="21.493" y1="19.106" x2="14.0011" y2="17.0336" gradientUnits="userSpaceOnUse">
<stop/>
<stop offset="1" stop-opacity="0"/>
</linearGradient>
</defs>
</svg>
