<svg width="30" height="48" viewBox="0 0 30 48" fill="none" xmlns="http://www.w3.org/2000/svg">
<path d="M24.3196 8.00021H30V0C30 0 24.0356 0 23.8917 0.00622875C10.664 0.24915 0 10.8953 0 24.0006C0 37.2479 10.8975 47.9888 24.3196 48H30V39.9998H24.3196C21.8569 39.9903 19.4286 39.428 17.2187 38.3553C15.0087 37.2826 13.0751 35.7277 11.5642 33.8084C10.0533 31.889 9.00482 29.6555 8.49805 27.2771C7.99128 24.8986 8.03956 22.4376 8.63923 20.0802C9.55324 23.4964 11.587 26.5182 14.4234 28.6742C17.2598 30.8303 20.7394 31.9995 24.3196 31.9996H30V24.0006H24.3196C19.8738 24.0006 16.2573 20.3879 16.2573 16.0004C16.2573 11.6129 19.8738 8.00021 24.3196 8.00021Z" fill="#0057FF"/>
</svg>
