<svg width="26" height="34" viewBox="0 0 26 34" fill="none" xmlns="http://www.w3.org/2000/svg">
<path d="M12.9997 1C6.21162 1 0.688232 6.52272 0.688232 13.3114C0.688232 19.7271 10.9065 30.7746 12.0714 32.0133L12.271 32.2254C12.666 32.6453 13.3332 32.6452 13.728 32.2252L13.9272 32.0133C15.0921 30.7746 25.3118 19.7265 25.3118 13.3114C25.3104 6.52272 19.7877 1 12.9997 1ZM13.7373 28.4164C13.3465 28.867 12.6527 28.8671 12.2618 28.4166C8.75963 24.3805 3.23549 17.1919 3.23549 13.3108C3.23549 7.92701 7.61524 3.5466 12.9997 3.5466C18.3834 3.5466 22.7638 7.92701 22.7638 13.3108C22.7632 17.1882 17.2389 24.3784 13.7373 28.4164Z" fill="#0057FF" stroke="#0057FF"/>
<path d="M12.9998 8.2168C10.1906 8.2168 7.90527 10.5021 7.90527 13.3113C7.90527 16.1206 10.1906 18.4058 12.9998 18.4058C15.809 18.4058 18.0943 16.1206 18.0943 13.3113C18.0936 10.5021 15.8084 8.2168 12.9998 8.2168Z" fill="#0057FF" fill-opacity="0.2"/>
</svg>
