<svg width="32" height="32" viewBox="0 0 32 32" fill="none" xmlns="http://www.w3.org/2000/svg">
<path d="M16 20C18.2091 20 20 18.2091 20 16C20 13.7909 18.2091 12 16 12C13.7909 12 12 13.7909 12 16C12 18.2091 13.7909 20 16 20Z" stroke="#0057FF" stroke-opacity="0.2" stroke-width="3" stroke-linecap="round" stroke-linejoin="round"/>
<path d="M25.8668 19.9999C25.6893 20.4021 25.6364 20.8482 25.7148 21.2807C25.7932 21.7132 25.9994 22.1123 26.3068 22.4266L26.3868 22.5066C26.6348 22.7542 26.8315 23.0483 26.9657 23.3721C27.0999 23.6958 27.1689 24.0428 27.1689 24.3933C27.1689 24.7437 27.0999 25.0907 26.9657 25.4144C26.8315 25.7382 26.6348 26.0323 26.3868 26.2799C26.1392 26.5279 25.8451 26.7245 25.5213 26.8587C25.1976 26.9929 24.8506 27.062 24.5002 27.062C24.1497 27.062 23.8027 26.9929 23.479 26.8587C23.1553 26.7245 22.8612 26.5279 22.6135 26.2799L22.5335 26.1999C22.2193 25.8925 21.8201 25.6863 21.3876 25.6079C20.9551 25.5295 20.509 25.5824 20.1068 25.7599C19.7125 25.9289 19.3761 26.2096 19.1392 26.5673C18.9023 26.925 18.7752 27.3442 18.7735 27.7733V27.9999C18.7735 28.7072 18.4925 29.3854 17.9924 29.8855C17.4923 30.3856 16.8141 30.6666 16.1068 30.6666C15.3996 30.6666 14.7213 30.3856 14.2212 29.8855C13.7211 29.3854 13.4402 28.7072 13.4402 27.9999V27.8799C13.4298 27.4386 13.287 27.0106 13.0302 26.6515C12.7734 26.2925 12.4145 26.019 12.0002 25.8666C11.598 25.6891 11.1519 25.6362 10.7194 25.7146C10.2869 25.793 9.88773 25.9992 9.5735 26.3066L9.4935 26.3866C9.24583 26.6345 8.95173 26.8312 8.628 26.9654C8.30427 27.0996 7.95727 27.1687 7.60683 27.1687C7.25639 27.1687 6.90938 27.0996 6.58565 26.9654C6.26193 26.8312 5.96782 26.6345 5.72016 26.3866C5.47223 26.1389 5.27553 25.8448 5.14134 25.5211C5.00714 25.1974 4.93806 24.8504 4.93806 24.4999C4.93806 24.1495 5.00714 23.8025 5.14134 23.4787C5.27553 23.155 5.47223 22.8609 5.72016 22.6132L5.80016 22.5333C6.10754 22.219 6.31374 21.8199 6.39217 21.3874C6.47059 20.9548 6.41765 20.5087 6.24016 20.1066C6.07115 19.7122 5.7905 19.3759 5.43278 19.139C5.07506 18.9021 4.65588 18.775 4.22683 18.7733H4.00016C3.29292 18.7733 2.61464 18.4923 2.11454 17.9922C1.61445 17.4921 1.3335 16.8138 1.3335 16.1066C1.3335 15.3993 1.61445 14.7211 2.11454 14.221C2.61464 13.7209 3.29292 13.4399 4.00016 13.4399H4.12016C4.56149 13.4296 4.9895 13.2867 5.34856 13.0299C5.70762 12.7731 5.98112 12.4142 6.1335 11.9999C6.31098 11.5978 6.36393 11.1517 6.2855 10.7191C6.20708 10.2866 6.00088 9.88749 5.6935 9.57325L5.6135 9.49325C5.36556 9.24559 5.16887 8.95149 5.03467 8.62776C4.90047 8.30403 4.8314 7.95703 4.8314 7.60658C4.8314 7.25614 4.90047 6.90914 5.03467 6.58541C5.16887 6.26168 5.36556 5.96758 5.6135 5.71992C5.86116 5.47198 6.15526 5.27529 6.47899 5.14109C6.80272 5.00689 7.14972 4.93782 7.50016 4.93782C7.8506 4.93782 8.19761 5.00689 8.52134 5.14109C8.84506 5.27529 9.13917 5.47198 9.38683 5.71992L9.46683 5.79992C9.78107 6.1073 10.1802 6.3135 10.6127 6.39192C11.0452 6.47035 11.4913 6.41741 11.8935 6.23992H12.0002C12.3945 6.0709 12.7309 5.79026 12.9678 5.43254C13.2047 5.07482 13.3318 4.65563 13.3335 4.22659V3.99992C13.3335 3.29267 13.6144 2.6144 14.1145 2.1143C14.6146 1.6142 15.2929 1.33325 16.0002 1.33325C16.7074 1.33325 17.3857 1.6142 17.8858 2.1143C18.3859 2.6144 18.6668 3.29267 18.6668 3.99992V4.11992C18.6685 4.54897 18.7957 4.96815 19.0326 5.32587C19.2695 5.68359 19.6058 5.96423 20.0002 6.13325C20.4023 6.31074 20.8484 6.36368 21.2809 6.28526C21.7135 6.20683 22.1126 6.00063 22.4268 5.69325L22.5068 5.61325C22.7545 5.36531 23.0486 5.16862 23.3723 5.03443C23.696 4.90023 24.0431 4.83115 24.3935 4.83115C24.7439 4.83115 25.0909 4.90023 25.4147 5.03443C25.7384 5.16862 26.0325 5.36531 26.2802 5.61325C26.5281 5.86091 26.7248 6.15502 26.859 6.47874C26.9932 6.80247 27.0623 7.14948 27.0623 7.49992C27.0623 7.85036 26.9932 8.19736 26.859 8.52109C26.7248 8.84482 26.5281 9.13892 26.2802 9.38658L26.2002 9.46658C25.8928 9.78082 25.6866 10.1799 25.6082 10.6125C25.5297 11.045 25.5827 11.4911 25.7602 11.8933V11.9999C25.9292 12.3943 26.2098 12.7306 26.5675 12.9675C26.9253 13.2044 27.3444 13.3315 27.7735 13.3333H28.0002C28.7074 13.3333 29.3857 13.6142 29.8858 14.1143C30.3859 14.6144 30.6668 15.2927 30.6668 15.9999C30.6668 16.7072 30.3859 17.3854 29.8858 17.8855C29.3857 18.3856 28.7074 18.6666 28.0002 18.6666H27.8802C27.4511 18.6683 27.0319 18.7954 26.6742 19.0323C26.3165 19.2692 26.0358 19.6056 25.8668 19.9999V19.9999Z" stroke="#0057FF" stroke-width="3" stroke-linecap="round" stroke-linejoin="round"/>
</svg>
