<svg width="32" height="32" viewBox="0 0 32 32" fill="none" xmlns="http://www.w3.org/2000/svg">
<path d="M21.3335 28V25.3333C21.3335 23.9188 20.7716 22.5623 19.7714 21.5621C18.7712 20.5619 17.4147 20 16.0002 20H6.66683C5.25234 20 3.89579 20.5619 2.89559 21.5621C1.8954 22.5623 1.3335 23.9188 1.3335 25.3333V28M16.6668 9.33333C16.6668 12.2789 14.279 14.6667 11.3335 14.6667C8.38798 14.6667 6.00016 12.2789 6.00016 9.33333C6.00016 6.38781 8.38798 4 11.3335 4C14.279 4 16.6668 6.38781 16.6668 9.33333Z" stroke="#0057FF" stroke-width="3" stroke-linecap="round" stroke-linejoin="round"/>
<path d="M22.6665 14.6667L25.3332 17.3333L30.6665 12" stroke="#3A86FF" stroke-opacity="0.2" stroke-width="3" stroke-linecap="round" stroke-linejoin="round"/>
</svg>
